B612Mono-BoldItalic.ufo
<glyph name="exclam" format="2">
  <advance width="1300"/>
  <unicode hex="0021"/>
  <outline>
    <contour>
      <point x="785" y="1500" type="line" name="at01"/>
      <point x="599" y="444" type="line" name="av02"/>
      <point x="293" y="409" type="line"/>
      <point x="485" y="1500" type="line"/>
    </contour>
    <contour>
      <point x="233" y="149" type="qcurve"/>
      <point x="239" y="183"/>
      <point x="274" y="242"/>
      <point x="327" y="287"/>
      <point x="391" y="313"/>
      <point x="425" y="313" type="qcurve" name="av01"/>
      <point x="459" y="313"/>
      <point x="513" y="287"/>
      <point x="550" y="242"/>
      <point x="565" y="183"/>
      <point x="559" y="149" type="qcurve"/>
      <point x="553" y="116"/>
      <point x="517" y="55"/>
      <point x="466" y="10"/>
      <point x="402" y="-17"/>
      <point x="368" y="-17" type="qcurve" name="ab01"/>
      <point x="335" y="-17"/>
      <point x="279" y="10"/>
      <point x="241" y="55"/>
      <point x="227" y="116"/>
    </contour>
  </outline>
</glyph>
<glyph name="quotedbl" format="2">
  <advance width="1300"/>
  <unicode hex="0022"/>
  <outline>
    <contour>
      <point x="893" y="1500" type="line" name="sv01"/>
      <point x="870" y="1367" type="line"/>
      <point x="867" y="1349"/>
      <point x="858" y="1300"/>
      <point x="846" y="1246"/>
      <point x="832" y="1191"/>
      <point x="825" y="1168" type="qcurve"/>
      <point x="775" y="1013" type="line" name="sv02"/>
      <point x="595" y="1013" type="line"/>
      <point x="599" y="1168" type="line"/>
      <point x="600" y="1191"/>
      <point x="605" y="1246"/>
      <point x="613" y="1300"/>
      <point x="621" y="1349"/>
      <point x="624" y="1367" type="qcurve"/>
      <point x="647" y="1500" type="line"/>
    </contour>
    <contour>
      <point x="593" y="1500" type="line"/>
      <point x="570" y="1367" type="line"/>
      <point x="567" y="1349"/>
      <point x="558" y="1300"/>
      <point x="546" y="1246"/>
      <point x="532" y="1191"/>
      <point x="525" y="1168" type="qcurve"/>
      <point x="475" y="1013" type="line"/>
      <point x="295" y="1013" type="line" name="av01"/>
      <point x="299" y="1168" type="line"/>
      <point x="300" y="1191"/>
      <point x="305" y="1246"/>
      <point x="313" y="1300"/>
      <point x="321" y="1349"/>
      <point x="324" y="1367" type="qcurve"/>
      <point x="347" y="1500" type="line" name="at01"/>
    </contour>
  </outline>
</glyph>
<glyph name="numbersign" format="2">
  <advance width="1300"/>
  <unicode hex="0023"/>
  <outline>
    <contour>
      <point x="1074" y="885" type="line"/>
      <point x="1062" y="845"/>
      <point x="1040" y="773"/>
      <point x="1018" y="703"/>
      <point x="995" y="629"/>
      <point x="983" y="587" type="qcurve"/>
      <point x="1216" y="587" type="line" name="sv01"/>
      <point x="1152" y="373" type="line" name="sv02"/>
      <point x="922" y="373" type="line"/>
      <point x="909" y="329"/>
      <point x="880" y="233"/>
      <point x="850" y="136"/>
      <point x="822" y="42"/>
      <point x="809" y="0" type="qcurve" name="sv03"/>
      <point x="500" y="-17" type="line" name="ab03"/>
      <point x="619" y="373" type="line"/>
      <point x="453" y="373" type="line"/>
      <point x="440" y="329"/>
      <point x="410" y="233"/>
      <point x="380" y="136"/>
      <point x="351" y="42"/>
      <point x="338" y="0" type="qcurve" name="ab01"/>
      <point x="30" y="-17" type="line" name="ab02"/>
      <point x="152" y="373" type="line"/>
      <point x="1" y="373" type="line"/>
      <point x="37" y="587" type="line" name="av01"/>
      <point x="214" y="587" type="line"/>
      <point x="304" y="885" type="line"/>
      <point x="81" y="885" type="line"/>
      <point x="146" y="1100" type="line" name="at04"/>
      <point x="368" y="1100" type="line"/>
      <point x="379" y="1135"/>
      <point x="398" y="1200"/>
      <point x="409" y="1235" type="qcurve"/>
      <point x="455" y="1500" type="line" name="at01"/>
      <point x="796" y="1520" type="line" name="at02"/>
      <point x="669" y="1100" type="line"/>
      <point x="836" y="1100" type="line"/>
      <point x="849" y="1144"/>
      <point x="881" y="1248"/>
      <point x="914" y="1355"/>
      <point x="945" y="1458"/>
      <point x="957" y="1500" type="qcurve" name="sv04"/>
      <point x="1269" y="1520" type="line" name="at03"/>
      <point x="1138" y="1100" type="line"/>
      <point x="1299" y="1100" type="line" name="sv05"/>
      <point x="1261" y="885" type="line" name="sv06"/>
    </contour>
    <contour>
      <point x="771" y="885" type="line"/>
      <point x="607" y="885" type="line"/>
      <point x="595" y="845"/>
      <point x="573" y="773"/>
      <point x="552" y="703"/>
      <point x="529" y="629"/>
      <point x="517" y="587" type="qcurve"/>
      <point x="681" y="587" type="line"/>
    </contour>
  </outline>
</glyph>
<glyph name="quotesingle" format="2">
  <advance width="1300"/>
  <unicode hex="0027"/>
  <outline>
    <contour>
      <point x="300" y="1500" type="line" name="at01"/>
      <point x="570" y="1500" type="line" name="sv01"/>
      <point x="546" y="1367" type="line"/>
      <point x="540" y="1331"/>
      <point x="514" y="1266"/>
      <point x="469" y="1197"/>
      <point x="401" y="1118"/>
      <point x="352" y="1068" type="qcurve" name="sv02"/>
      <point x="213" y="1068" type="line" name="av01"/>
      <point x="230" y="1148"/>
      <point x="265" y="1301"/>
      <point x="276" y="1367" type="qcurve"/>
    </contour>
  </outline>
</glyph>
<glyph name="parenright" format="2">
  <advance width="1300"/>
  <unicode hex="0029"/>
  <outline>
    <contour>
      <point x="824" y="38" type="line" name="hr00"/>
      <point x="807" y="-55"/>
      <point x="758" y="-221"/>
      <point x="665" y="-347"/>
      <point x="517" y="-420"/>
      <point x="403" y="-420" type="qcurve" name="av02"/>
      <point x="378" y="-420"/>
      <point x="323" y="-413"/>
      <point x="269" y="-399"/>
      <point x="219" y="-378"/>
      <point x="201" y="-365" type="qcurve"/>
      <point x="320" y="-245" type="line"/>
      <point x="335" y="-245"/>
      <point x="381" y="-238"/>
      <point x="431" y="-200"/>
      <point x="475" y="-119"/>
      <point x="488" y="-46" type="qcurve" name="ah01"/>
      <point x="713" y="1227" type="line"/>
      <point x="725" y="1298"/>
      <point x="709" y="1380"/>
      <point x="673" y="1421"/>
      <point x="626" y="1431"/>
      <point x="608" y="1431" type="qcurve"/>
      <point x="538" y="1545" type="line"/>
      <point x="561" y="1558"/>
      <point x="617" y="1579"/>
      <point x="677" y="1593"/>
      <point x="735" y="1600"/>
      <point x="760" y="1600" type="qcurve" name="av01"/>
      <point x="874" y="1600"/>
      <point x="997" y="1532"/>
      <point x="1046" y="1412"/>
      <point x="1038" y="1251"/>
      <point x="1022" y="1158" type="qcurve"/>
    </contour>
  </outline>
</glyph>
<glyph name="plus" format="2">
  <advance width="1300"/>
  <unicode hex="002B"/>
  <outline>
    <contour>
      <point x="205" y="700" type="line" name="av01"/>
      <point x="565" y="700" type="line"/>
      <point x="638" y="1117" type="line" name="at01"/>
      <point x="858" y="1117" type="line" name="sv01"/>
      <point x="785" y="700" type="line"/>
      <point x="1145" y="700" type="line" name="sv02"/>
      <point x="1109" y="500" type="line" name="sv03"/>
      <point x="749" y="500" type="line"/>
      <point x="679" y="100" type="line" name="sv04"/>
      <point x="459" y="100" type="line" name="av02"/>
      <point x="529" y="500" type="line"/>
      <point x="169" y="500" type="line"/>
    </contour>
  </outline>
</glyph>
<glyph name="comma" format="2">
  <advance width="1300"/>
  <unicode hex="002C"/>
  <outline>
    <contour>
      <point x="152" y="156" type="qcurve" name="hr00"/>
      <point x="158" y="191"/>
      <point x="197" y="254"/>
      <point x="255" y="300"/>
      <point x="325" y="329"/>
      <point x="361" y="329" type="qcurve" name="av01"/>
      <point x="396" y="329"/>
      <point x="454" y="304"/>
      <point x="496" y="256"/>
      <point x="513" y="182"/>
      <point x="505" y="136" type="qcurve"/>
      <point x="493" y="72"/>
      <point x="456" y="-47"/>
      <point x="386" y="-169"/>
      <point x="272" y="-296"/>
      <point x="185" y="-365" type="qcurve"/>
      <point x="128" y="-337" type="line"/>
      <point x="165" y="-284"/>
      <point x="196" y="-228" type="qcurve"/>
      <point x="223" y="-181"/>
      <point x="272" y="-70"/>
      <point x="282" y="-17" type="qcurve"/>
      <point x="252" y="-16"/>
      <point x="198" y="8"/>
      <point x="160" y="50"/>
      <point x="145" y="115"/>
    </contour>
  </outline>
</glyph>
<glyph name="hyphen" format="2">
  <advance width="1300"/>
  <unicode hex="002D"/>
  <outline>
    <contour>
      <point x="339" y="624" type="line" name="hr00"/>
      <point x="966" y="624" type="line"/>
      <point x="927" y="400" type="line" name="sv01"/>
      <point x="300" y="400" type="line" name="av01"/>
    </contour>
  </outline>
</glyph>
<glyph name="period" format="2">
  <advance width="1300"/>
  <unicode hex="002E"/>
  <outline>
    <contour>
      <point x="103" y="183" type="qcurve" name="hr00"/>
      <point x="110" y="224"/>
      <point x="154" y="296"/>
      <point x="217" y="350"/>
      <point x="294" y="381"/>
      <point x="335" y="381" type="qcurve"/>
      <point x="376" y="381"/>
      <point x="442" y="350"/>
      <point x="487" y="296"/>
      <point x="505" y="224"/>
      <point x="498" y="183" type="qcurve"/>
      <point x="490" y="142"/>
      <point x="447" y="69"/>
      <point x="384" y="15"/>
      <point x="307" y="-17"/>
      <point x="266" y="-17" type="qcurve"/>
      <point x="225" y="-17"/>
      <point x="158" y="15"/>
      <point x="114" y="69"/>
      <point x="95" y="142"/>
    </contour>
  </outline>
</glyph>
<glyph name="slash" format="2">
  <advance width="1300"/>
  <unicode hex="002F"/>
  <outline>
    <contour>
      <point x="331" y="-100" type="line" name="sv01"/>
      <point x="0" y="-100" type="line" name="av01"/>
      <point x="977" y="1600" type="line" name="av02"/>
      <point x="1300" y="1600" type="line" name="sv02"/>
    </contour>
  </outline>
</glyph>
<glyph name="zero" format="2">
  <advance width="1300"/>
  <unicode hex="0030"/>
  <outline>
    <contour>
      <point x="512" y="-16" type="qcurve" name="ab01"/>
      <point x="419" y="-16"/>
      <point x="275" y="49"/>
      <point x="170" y="161"/>
      <point x="104" y="311"/>
      <point x="71" y="481"/>
      <point x="72" y="663"/>
      <point x="88" y="750" type="qcurve" name="ah01"/>
      <point x="104" y="840"/>
      <point x="162" y="1023"/>
      <point x="249" y="1194"/>
      <point x="364" y="1342"/>
      <point x="508" y="1453"/>
      <point x="681" y="1516"/>
      <point x="783" y="1516" type="qcurve" name="at01"/>
      <point x="876" y="1516"/>
      <point x="1020" y="1451"/>
      <point x="1125" y="1339"/>
      <point x="1192" y="1189"/>
      <point x="1224" y="1019"/>
      <point x="1223" y="837"/>
      <point x="1208" y="750" type="qcurve" name="ah04"/>
      <point x="1192" y="660"/>
      <point x="1133" y="477"/>
      <point x="1046" y="306"/>
      <point x="931" y="158"/>
      <point x="787" y="47"/>
      <point x="613" y="-16"/>
    </contour>
    <contour>
      <point x="422" y="791" type="qcurve" name="ah02"/>
      <point x="413" y="740"/>
      <point x="400" y="616"/>
      <point x="399" y="491"/>
      <point x="414" y="373"/>
      <point x="451" y="281"/>
      <point x="513" y="226"/>
      <point x="561" y="226" type="qcurve"/>
      <point x="603" y="226"/>
      <point x="677" y="267"/>
      <point x="739" y="338"/>
      <point x="791" y="433"/>
      <point x="832" y="541"/>
      <point x="861" y="654"/>
      <point x="871" y="709" type="qcurve" name="ah03"/>
      <point x="880" y="760"/>
      <point x="893" y="884"/>
      <point x="894" y="1009"/>
      <point x="879" y="1127"/>
      <point x="842" y="1218"/>
      <point x="779" y="1273"/>
      <point x="731" y="1273" type="qcurve"/>
      <point x="689" y="1273"/>
      <point x="615" y="1232"/>
      <point x="553" y="1161"/>
      <point x="502" y="1066"/>
      <point x="461" y="959"/>
      <point x="431" y="845"/>
    </contour>
  </outline>
</glyph>
<glyph name="two" format="2">
  <advance width="1300"/>
  <unicode hex="0032"/>
  <outline>
    <contour>
      <point x="49" y="0" type="line" name="ab01"/>
      <point x="81" y="190" type="line"/>
      <point x="141" y="264"/>
      <point x="293" y="427"/>
      <point x="450" y="584"/>
      <point x="599" y="724"/>
      <point x="655" y="775" type="qcurve"/>
      <point x="720" y="833"/>
      <point x="809" y="913"/>
      <point x="868" y="981"/>
      <point x="901" y="1050"/>
      <point x="909" y="1097" type="qcurve"/>
      <point x="916" y="1134"/>
      <point x="904" y="1207"/>
      <point x="868" y="1265"/>
      <point x="809" y="1300"/>
      <point x="768" y="1300" type="qcurve"/>
      <point x="686" y="1300"/>
      <point x="542" y="1190"/>
      <point x="478" y="1096" type="qcurve"/>
      <point x="260" y="1183" type="line"/>
      <point x="303" y="1260"/>
      <point x="416" y="1383"/>
      <point x="556" y="1470"/>
      <point x="724" y="1517"/>
      <point x="821" y="1517" type="qcurve" name="at01"/>
      <point x="935" y="1517"/>
      <point x="1100" y="1442"/>
      <point x="1201" y="1320"/>
      <point x="1238" y="1165"/>
      <point x="1224" y="1086" type="qcurve"/>
      <point x="1212" y="1016"/>
      <point x="1147" y="898"/>
      <point x="1054" y="789"/>
      <point x="941" y="681"/>
      <point x="880" y="621" type="qcurve"/>
      <point x="820" y="561"/>
      <point x="691" y="437"/>
      <point x="574" y="325"/>
      <point x="478" y="231"/>
      <point x="451" y="200" type="qcurve"/>
      <point x="1093" y="200" type="line"/>
      <point x="1058" y="0" type="line"/>
    </contour>
  </outline>
</glyph>
<glyph name="three" format="2">
  <advance width="1300"/>
  <unicode hex="0033"/>
  <outline>
    <contour>
      <point x="361" y="938" type="line" name="hr00"/>
      <point x="394" y="959"/>
      <point x="486" y="1019"/>
      <point x="592" y="1091"/>
      <point x="703" y="1170"/>
      <point x="806" y="1253"/>
      <point x="895" y="1336"/>
      <point x="926" y="1374" type="qcurve"/>
      <point x="652" y="1300" type="line"/>
      <point x="321" y="1300" type="line"/>
      <point x="378" y="1500" type="line"/>
      <point x="1220" y="1500" type="line"/>
      <point x="1189" y="1327" type="line"/>
      <point x="1144" y="1248"/>
      <point x="1005" y="1116"/>
      <point x="923" y="1052" type="qcurve"/>
      <point x="752" y="969" type="line"/>
      <point x="857" y="969"/>
      <point x="1020" y="914"/>
      <point x="1124" y="812"/>
      <point x="1165" y="665"/>
      <point x="1149" y="573" type="qcurve"/>
      <point x="1131" y="474"/>
      <point x="1021" y="312"/>
      <point x="858" y="185"/>
      <point x="653" y="91"/>
      <point x="427" y="30"/>
      <point x="193" y="0"/>
      <point x="82" y="0" type="qcurve"/>
      <point x="118" y="200" type="line"/>
      <point x="236" y="204"/>
      <point x="470" y="258"/>
      <point x="662" y="351"/>
      <point x="792" y="482"/>
      <point x="807" y="563" type="qcurve"/>
      <point x="817" y="621"/>
      <point x="782" y="700"/>
      <point x="706" y="749"/>
      <point x="599" y="770"/>
      <point x="537" y="770" type="qcurve"/>
      <point x="522" y="770"/>
      <point x="464" y="767"/>
      <point x="401" y="764"/>
      <point x="344" y="761"/>
      <point x="329" y="760" type="qcurve"/>
    </contour>
  </outline>
</glyph>
<glyph name="four" format="2">
  <advance width="1300"/>
  <unicode hex="0034"/>
  <outline>
    <contour>
      <point x="1155" y="300" type="line" name="hr00"/>
      <point x="977" y="300" type="line"/>
      <point x="924" y="0" type="line"/>
      <point x="603" y="0" type="line"/>
      <point x="656" y="300" type="line"/>
      <point x="96" y="300" type="line"/>
      <point x="132" y="500" type="line"/>
      <point x="805" y="1520" type="line"/>
      <point x="1082" y="1500" type="line"/>
      <point x="621" y="763" type="line"/>
      <point x="401" y="500" type="line"/>
      <point x="692" y="500" type="line"/>
      <point x="741" y="780" type="line"/>
      <point x="1066" y="800" type="line"/>
      <point x="1013" y="500" type="line"/>
      <point x="1212" y="500" type="line"/>
    </contour>
  </outline>
</glyph>
<glyph name="five" format="2">
  <advance width="1300"/>
  <unicode hex="0035"/>
  <outline>
    <contour>
      <point x="619" y="1046" type="line" name="hr00"/>
      <point x="644" y="1052"/>
      <point x="702" y="1059"/>
      <point x="737" y="1059" type="qcurve"/>
      <point x="853" y="1059"/>
      <point x="1024" y="991"/>
      <point x="1131" y="873"/>
      <point x="1170" y="716"/>
      <point x="1154" y="626" type="qcurve"/>
      <point x="1136" y="523"/>
      <point x="1023" y="351"/>
      <point x="858" y="212"/>
      <point x="651" y="107"/>
      <point x="426" y="36"/>
      <point x="193" y="0"/>
      <point x="85" y="0" type="qcurve"/>
      <point x="125" y="226" type="line"/>
      <point x="197" y="228"/>
      <point x="351" y="256"/>
      <point x="499" y="304"/>
      <point x="635" y="372"/>
      <point x="743" y="455"/>
      <point x="813" y="552"/>
      <point x="823" y="606" type="qcurve"/>
      <point x="830" y="647"/>
      <point x="816" y="725"/>
      <point x="776" y="785"/>
      <point x="712" y="822"/>
      <point x="669" y="822" type="qcurve"/>
      <point x="631" y="822"/>
      <point x="563" y="810"/>
      <point x="506" y="791"/>
      <point x="460" y="769"/>
      <point x="444" y="759" type="qcurve"/>
      <point x="219" y="759" type="line"/>
      <point x="350" y="1500" type="line"/>
      <point x="1216" y="1500" type="line"/>
      <point x="1180" y="1300" type="line"/>
      <point x="663" y="1300" type="line"/>
    </contour>
  </outline>
</glyph>
<glyph name="six" format="2">
  <advance width="1300"/>
  <unicode hex="0036"/>
  <outline>
    <contour>
      <point x="1132" y="1280" type="line" name="hr00"/>
      <point x="1109" y="1294"/>
      <point x="1048" y="1300"/>
      <point x="1024" y="1300" type="qcurve"/>
      <point x="955" y="1300"/>
      <point x="796" y="1233"/>
      <point x="644" y="1105"/>
      <point x="514" y="919"/>
      <point x="475" y="800" type="qcurve"/>
      <point x="666" y="945" type="line"/>
      <point x="724" y="956"/>
      <point x="769" y="956" type="qcurve"/>
      <point x="866" y="956"/>
      <point x="1038" y="907"/>
      <point x="1160" y="802"/>
      <point x="1215" y="639"/>
      <point x="1195" y="525" type="qcurve"/>
      <point x="1175" y="414"/>
      <point x="1061" y="217"/>
      <point x="889" y="69"/>
      <point x="670" y="-17"/>
      <point x="547" y="-17" type="qcurve" name="ab01"/>
      <point x="439" y="-17"/>
      <point x="285" y="47"/>
      <point x="181" y="152"/>
      <point x="121" y="287"/>
      <point x="95" y="430"/>
      <point x="98" y="570"/>
      <point x="108" y="627" type="qcurve"/>
      <point x="129" y="745"/>
      <point x="219" y="969"/>
      <point x="351" y="1166"/>
      <point x="521" y="1332"/>
      <point x="722" y="1451"/>
      <point x="949" y="1517"/>
      <point x="1072" y="1517" type="qcurve" name="at01"/>
      <point x="1090" y="1517"/>
      <point x="1156" y="1512"/>
      <point x="1204" y="1498" type="qcurve"/>
    </contour>
    <contour>
      <point x="720" y="756" type="qcurve" name="av01"/>
      <point x="684" y="756"/>
      <point x="605" y="726"/>
      <point x="530" y="680"/>
      <point x="464" y="625"/>
      <point x="440" y="601" type="qcurve"/>
      <point x="435" y="575"/>
      <point x="429" y="532"/>
      <point x="426" y="493"/>
      <point x="426" y="455"/>
      <point x="428" y="434" type="qcurve"/>
      <point x="432" y="387"/>
      <point x="455" y="302"/>
      <point x="496" y="238"/>
      <point x="552" y="200"/>
      <point x="589" y="200" type="qcurve"/>
      <point x="643" y="200"/>
      <point x="733" y="257"/>
      <point x="801" y="348"/>
      <point x="846" y="461"/>
      <point x="856" y="516" type="qcurve"/>
      <point x="865" y="566"/>
      <point x="853" y="654"/>
      <point x="817" y="719"/>
      <point x="758" y="756"/>
    </contour>
  </outline>
</glyph>
<glyph name="seven" format="2">
  <advance width="1300"/>
  <unicode hex="0037"/>
  <outline>
    <contour>
      <point x="179" y="1500" type="line" name="hr00"/>
      <point x="1186" y="1500" type="line"/>
      <point x="1157" y="1339" type="line"/>
      <point x="1152" y="1312"/>
      <point x="1110" y="1236"/>
      <point x="1045" y="1143"/>
      <point x="961" y="1034"/>
      <point x="915" y="976" type="qcurve"/>
      <point x="861" y="906"/>
      <point x="741" y="748"/>
      <point x="632" y="584"/>
      <point x="545" y="421"/>
      <point x="523" y="346" type="qcurve"/>
      <point x="512" y="310"/>
      <point x="492" y="222"/>
      <point x="474" y="129"/>
      <point x="458" y="39"/>
      <point x="451" y="0" type="qcurve"/>
      <point x="114" y="0" type="line"/>
      <point x="120" y="32"/>
      <point x="140" y="140"/>
      <point x="166" y="260"/>
      <point x="196" y="377"/>
      <point x="212" y="418" type="qcurve"/>
      <point x="246" y="507"/>
      <point x="347" y="688"/>
      <point x="463" y="860"/>
      <point x="584" y="1018"/>
      <point x="638" y="1086" type="qcurve"/>
      <point x="683" y="1143"/>
      <point x="757" y="1239"/>
      <point x="775" y="1272" type="qcurve"/>
      <point x="139" y="1272" type="line"/>
    </contour>
  </outline>
</glyph>
<glyph name="eight" format="2">
  <advance width="1300"/>
  <unicode hex="0038"/>
  <outline>
    <contour>
      <point x="810" y="1517" type="qcurve" name="at01"/>
      <point x="913" y="1517"/>
      <point x="1079" y="1464"/>
      <point x="1189" y="1365"/>
      <point x="1236" y="1223"/>
      <point x="1220" y="1134" type="qcurve"/>
      <point x="1211" y="1083"/>
      <point x="1156" y="997"/>
      <point x="1080" y="925"/>
      <point x="990" y="867"/>
      <point x="945" y="844" type="qcurve"/>
      <point x="1006" y="812"/>
      <point x="1106" y="727"/>
      <point x="1174" y="622"/>
      <point x="1201" y="498"/>
      <point x="1189" y="427" type="qcurve"/>
      <point x="1168" y="312"/>
      <point x="1042" y="144"/>
      <point x="864" y="35"/>
      <point x="651" y="-17"/>
      <point x="545" y="-17" type="qcurve" name="ab01"/>
      <point x="441" y="-17"/>
      <point x="257" y="42"/>
      <point x="127" y="158"/>
      <point x="66" y="329"/>
      <point x="86" y="441" type="qcurve"/>
      <point x="98" y="512"/>
      <point x="163" y="635"/>
      <point x="258" y="737"/>
      <point x="378" y="818"/>
      <point x="446" y="848" type="qcurve"/>
      <point x="405" y="875"/>
      <point x="337" y="936"/>
      <point x="291" y="1004"/>
      <point x="271" y="1080"/>
      <point x="279" y="1124" type="qcurve"/>
      <point x="291" y="1192"/>
      <point x="352" y="1304"/>
      <point x="436" y="1391"/>
      <point x="539" y="1455"/>
      <point x="649" y="1497"/>
      <point x="760" y="1517"/>
    </contour>
    <contour>
      <point x="863" y="422" type="qcurve"/>
      <point x="872" y="476"/>
      <point x="842" y="564" name="hr00"/>
      <point x="781" y="635"/>
      <point x="700" y="690"/>
      <point x="659" y="711" type="qcurve"/>
      <point x="612" y="690"/>
      <point x="529" y="635"/>
      <point x="462" y="563"/>
      <point x="416" y="475"/>
      <point x="406" y="421" type="qcurve"/>
      <point x="398" y="373" name="hr01"/>
      <point x="422" y="291"/>
      <point x="474" y="233"/>
      <point x="546" y="200"/>
      <point x="585" y="200" type="qcurve"/>
      <point x="630" y="200"/>
      <point x="722" y="230"/>
      <point x="798" y="287"/>
      <point x="854" y="369"/>
    </contour>
    <contour>
      <point x="605" y="1156" type="qcurve"/>
      <point x="599" y="1122"/>
      <point x="617" y="1065"/>
      <point x="656" y="1017"/>
      <point x="709" y="979"/>
      <point x="739" y="964" type="qcurve"/>
      <point x="799" y="993"/>
      <point x="892" y="1089"/>
      <point x="903" y="1152" type="qcurve"/>
      <point x="910" y="1190"/>
      <point x="891" y="1246"/>
      <point x="855" y="1282"/>
      <point x="809" y="1300"/>
      <point x="789" y="1300" type="qcurve"/>
      <point x="761" y="1300"/>
      <point x="700" y="1278"/>
      <point x="648" y="1239"/>
      <point x="610" y="1186"/>
    </contour>
  </outline>
</glyph>
<glyph name="nine" format="2">
  <advance width="1300"/>
  <unicode hex="0039"/>
  <outline>
    <contour>
      <point x="190" y="200" type="line" name="hr00"/>
      <point x="259" y="202"/>
      <point x="400" y="244"/>
      <point x="532" y="314"/>
      <point x="649" y="409"/>
      <point x="743" y="518"/>
      <point x="807" y="638"/>
      <point x="819" y="700" type="qcurve"/>
      <point x="614" y="548" type="line"/>
      <point x="598" y="546"/>
      <point x="564" y="544"/>
      <point x="547" y="544" type="qcurve"/>
      <point x="438" y="544"/>
      <point x="260" y="611"/>
      <point x="142" y="735"/>
      <point x="93" y="910"/>
      <point x="112" y="1017" type="qcurve"/>
      <point x="131" y="1128"/>
      <point x="240" y="1312"/>
      <point x="404" y="1444"/>
      <point x="617" y="1517"/>
      <point x="741" y="1517" type="qcurve" name="at01"/>
      <point x="851" y="1517"/>
      <point x="1008" y="1455"/>
      <point x="1113" y="1352"/>
      <point x="1171" y="1218"/>
      <point x="1196" y="1075"/>
      <point x="1192" y="933"/>
      <point x="1181" y="873" type="qcurve"/>
      <point x="1150" y="696"/>
      <point x="983" y="385"/>
      <point x="727" y="148"/>
      <point x="391" y="-1"/>
      <point x="190" y="-17" type="qcurve" name="ab01"/>
    </contour>
    <contour>
      <point x="594" y="761" type="qcurve" name="av01"/>
      <point x="628" y="761"/>
      <point x="705" y="793"/>
      <point x="779" y="845"/>
      <point x="844" y="911"/>
      <point x="866" y="945" type="qcurve"/>
      <point x="875" y="1008"/>
      <point x="864" y="1135"/>
      <point x="825" y="1237"/>
      <point x="757" y="1300"/>
      <point x="709" y="1300" type="qcurve"/>
      <point x="662" y="1300"/>
      <point x="575" y="1257"/>
      <point x="504" y="1185"/>
      <point x="454" y="1088"/>
      <point x="445" y="1034" type="qcurve"/>
      <point x="435" y="980"/>
      <point x="444" y="882"/>
      <point x="482" y="806"/>
      <point x="547" y="761"/>
    </contour>
  </outline>
</glyph>
<glyph name="colon" format="2">
  <advance width="1300"/>
  <unicode hex="003A"/>
  <outline>
    <contour>
      <point x="137" y="183" type="qcurve" name="hr00"/>
      <point x="144" y="224"/>
      <point x="188" y="296"/>
      <point x="252" y="350"/>
      <point x="328" y="381"/>
      <point x="369" y="381" type="qcurve" name="av03"/>
      <point x="410" y="381"/>
      <point x="477" y="350"/>
      <point x="521" y="296"/>
      <point x="539" y="224"/>
      <point x="532" y="183" type="qcurve"/>
      <point x="525" y="142"/>
      <point x="481" y="69"/>
      <point x="418" y="15"/>
      <point x="342" y="-17"/>
      <point x="301" y="-17" type="qcurve" name="ab01"/>
      <point x="260" y="-17"/>
      <point x="192" y="15"/>
      <point x="148" y="69"/>
      <point x="130" y="142"/>
    </contour>
    <contour>
      <point x="228" y="700" type="qcurve"/>
      <point x="235" y="741"/>
      <point x="279" y="813"/>
      <point x="343" y="867"/>
      <point x="419" y="898"/>
      <point x="460" y="898" type="qcurve" name="av01"/>
      <point x="501" y="898"/>
      <point x="568" y="867"/>
      <point x="612" y="813"/>
      <point x="630" y="741"/>
      <point x="623" y="700" type="qcurve"/>
      <point x="616" y="659"/>
      <point x="572" y="586"/>
      <point x="510" y="532"/>
      <point x="433" y="500"/>
      <point x="392" y="500" type="qcurve" name="av02"/>
      <point x="351" y="500"/>
      <point x="284" y="532"/>
      <point x="239" y="586"/>
      <point x="221" y="659"/>
    </contour>
  </outline>
</glyph>
<glyph name="less" format="2">
  <advance width="1300"/>
  <unicode hex="003C"/>
  <outline>
    <contour>
      <point x="1219" y="1277" type="line" name="av01"/>
      <point x="1172" y="1009" type="line" name="sv01"/>
      <point x="442" y="654" type="line" name="iv01"/>
      <point x="1047" y="302" type="line" name="sv02"/>
      <point x="1000" y="34" type="line" name="av02"/>
      <point x="83" y="545" type="line"/>
      <point x="123" y="770" type="line"/>
    </contour>
  </outline>
</glyph>
<glyph name="equal" format="2">
  <advance width="1300"/>
  <unicode hex="003D"/>
  <outline>
    <contour>
      <point x="304" y="800" type="line" name="av01"/>
      <point x="1104" y="800" type="line" name="sv01"/>
      <point x="1065" y="581" type="line"/>
      <point x="265" y="581" type="line"/>
    </contour>
    <contour>
      <point x="234" y="400" type="line" name="av02"/>
      <point x="1034" y="400" type="line" name="sv02"/>
      <point x="995" y="181" type="line"/>
      <point x="195" y="181" type="line"/>
    </contour>
  </outline>
</glyph>
<glyph name="greater" format="2">
  <advance width="1300"/>
  <unicode hex="003E"/>
  <outline>
    <contour>
      <point x="1217" y="770" type="line"/>
      <point x="1177" y="545" type="line"/>
      <point x="80" y="34" type="line" name="av02"/>
      <point x="127" y="302" type="line" name="sv01"/>
      <point x="856" y="654" type="line" name="iv01"/>
      <point x="252" y="1009" type="line" name="sv02"/>
      <point x="299" y="1278" type="line" name="av01"/>
    </contour>
  </outline>
</glyph>
<glyph name="C" format="2">
  <advance width="1300"/>
  <unicode hex="0043"/>
  <guideline x="0" y="233" angle="0"/>
  <outline>
    <contour>
      <point x="1058" y="133" type="line" name="hr00"/>
      <point x="943" y="52"/>
      <point x="705" y="-17"/>
      <point x="575" y="-17" type="qcurve" name="ab01"/>
      <point x="472" y="-17"/>
      <point x="303" y="40"/>
      <point x="174" y="143"/>
      <point x="84" y="287"/>
      <point x="37" y="461"/>
      <point x="31" y="662"/>
      <point x="50" y="769" type="qcurve"/>
      <point x="68" y="870"/>
      <point x="124" y="1059"/>
      <point x="210" y="1225"/>
      <point x="331" y="1363"/>
      <point x="497" y="1462"/>
      <point x="713" y="1517"/>
      <point x="850" y="1517" type="qcurve" name="at01"/>
      <point x="914" y="1517"/>
      <point x="1035" y="1494"/>
      <point x="1143" y="1450"/>
      <point x="1235" y="1386"/>
      <point x="1271" y="1344" type="qcurve"/>
      <point x="1091" y="1160" type="line"/>
      <point x="1062" y="1182"/>
      <point x="996" y="1222"/>
      <point x="927" y="1252"/>
      <point x="856" y="1270"/>
      <point x="822" y="1270" type="qcurve"/>
      <point x="727" y="1270"/>
      <point x="585" y="1192"/>
      <point x="484" y="1057"/>
      <point x="418" y="875"/>
      <point x="400" y="772" type="qcurve"/>
      <point x="389" y="711"/>
      <point x="384" y="584"/>
      <point x="398" y="464"/>
      <point x="434" y="358"/>
      <point x="495" y="279"/>
      <point x="584" y="233"/>
      <point x="643" y="233" type="qcurve"/>
      <point x="677" y="233"/>
      <point x="745" y="244"/>
      <point x="823" y="269"/>
      <point x="916" y="310"/>
      <point x="975" y="340" type="qcurve"/>
    </contour>
  </outline>
</glyph>
<glyph name="D" format="2">
  <advance width="1300"/>
  <unicode hex="0044"/>
  <guideline x="0" y="1450" angle="0"/>
  <guideline x="0" y="210" angle="0"/>
  <guideline x="278" y="0" angle="90"/>
  <outline>
    <contour>
      <point x="223" y="1500" type="line" name="hr00"/>
      <point x="273" y="1505"/>
      <point x="387" y="1511"/>
      <point x="497" y="1515"/>
      <point x="595" y="1517"/>
      <point x="628" y="1517" type="qcurve" name="at01"/>
      <point x="721" y="1517"/>
      <point x="901" y="1482"/>
      <point x="1059" y="1407"/>
      <point x="1187" y="1293"/>
      <point x="1268" y="1135"/>
      <point x="1294" y="932"/>
      <point x="1272" y="807" type="qcurve"/>
      <point x="1234" y="589"/>
      <point x="1091" y="282"/>
      <point x="868" y="89"/>
      <point x="558" y="0"/>
      <point x="353" y="0" type="qcurve" name="sv01"/>
      <point x="2" y="0" type="line" name="ab01"/>
      <point x="223" y="1262" type="line"/>
    </contour>
    <contour>
      <point x="549" y="1121" type="line"/>
      <point x="396" y="250" type="line"/>
      <point x="501" y="250"/>
      <point x="656" y="301"/>
      <point x="769" y="386"/>
      <point x="843" y="496"/>
      <point x="891" y="613"/>
      <point x="917" y="729"/>
      <point x="926" y="778" type="qcurve"/>
      <point x="946" y="890"/>
      <point x="943" y="1076"/>
      <point x="871" y="1210"/>
      <point x="714" y="1283"/>
      <point x="579" y="1283" type="qcurve"/>
      <point x="576" y="1283"/>
      <point x="569" y="1282"/>
      <point x="565" y="1282" type="qcurve"/>
      <point x="557" y="1282" type="line"/>
    </contour>
  </outline>
</glyph>
<glyph name="E" format="2">
  <advance width="1300"/>
  <unicode hex="0045"/>
  <outline>
    <contour>
      <point x="1066" y="228" type="line" name="hr00"/>
      <point x="999" y="0" type="line" name="sv01"/>
      <point x="39" y="0" type="line" name="ab01"/>
      <point x="97" y="231" type="line"/>
      <point x="279" y="1263" type="line"/>
      <point x="279" y="1500" type="line" name="at01"/>
      <point x="1254" y="1500" type="line" name="sv02"/>
      <point x="1214" y="1272" type="line"/>
      <point x="617" y="1272" type="line"/>
      <point x="607" y="1134" type="line"/>
      <point x="569" y="916" type="line" name="av01"/>
      <point x="1085" y="916" type="line" name="sv03"/>
      <point x="1047" y="703" type="line"/>
      <point x="531" y="703" type="line"/>
      <point x="471" y="360" type="line"/>
      <point x="439" y="228" type="line" name="mv01"/>
    </contour>
  </outline>
</glyph>
<glyph name="F" format="2">
  <advance width="1300"/>
  <unicode hex="0046"/>
  <outline>
    <contour>
      <point x="383" y="0" type="line" name="sv01"/>
      <point x="32" y="0" type="line" name="ab01"/>
      <point x="255" y="1263" type="line"/>
      <point x="255" y="1500" type="line" name="at01"/>
      <point x="1264" y="1500" type="line" name="sv02"/>
      <point x="1197" y="1272" type="line" name="mv01"/>
      <point x="593" y="1272" type="line"/>
      <point x="583" y="1134" type="line"/>
      <point x="545" y="916" type="line" name="av01"/>
      <point x="1058" y="916" type="line" name="sv03"/>
      <point x="1020" y="703" type="line"/>
      <point x="507" y="703" type="line"/>
    </contour>
  </outline>
</glyph>
<glyph name="G" format="2">
  <advance width="1300"/>
  <unicode hex="0047"/>
  <outline>
    <contour>
      <point x="1157" y="221" type="line" name="hr00"/>
      <point x="1103" y="171"/>
      <point x="976" y="84"/>
      <point x="829" y="20"/>
      <point x="664" y="-17"/>
      <point x="572" y="-17" type="qcurve" name="ab01"/>
      <point x="417" y="-17"/>
      <point x="193" y="108"/>
      <point x="60" y="322"/>
      <point x="19" y="608"/>
      <point x="47" y="769" type="qcurve"/>
      <point x="74" y="920"/>
      <point x="204" y="1192"/>
      <point x="409" y="1397"/>
      <point x="689" y="1517"/>
      <point x="865" y="1517" type="qcurve" name="at01"/>
      <point x="994" y="1517"/>
      <point x="1213" y="1428"/>
      <point x="1286" y="1344" type="qcurve"/>
      <point x="1108" y="1170" type="line"/>
      <point x="1079" y="1192"/>
      <point x="1013" y="1232"/>
      <point x="944" y="1262"/>
      <point x="873" y="1280"/>
      <point x="838" y="1280" type="qcurve"/>
      <point x="743" y="1280"/>
      <point x="596" y="1199"/>
      <point x="488" y="1060"/>
      <point x="416" y="875"/>
      <point x="398" y="772" type="qcurve"/>
      <point x="387" y="711"/>
      <point x="382" y="582"/>
      <point x="395" y="459"/>
      <point x="431" y="351"/>
      <point x="492" y="269"/>
      <point x="579" y="221"/>
      <point x="639" y="221" type="qcurve"/>
      <point x="664" y="221"/>
      <point x="719" y="233"/>
      <point x="771" y="252"/>
      <point x="819" y="276"/>
      <point x="837" y="289" type="qcurve"/>
      <point x="895" y="616" type="line"/>
      <point x="604" y="635" type="line"/>
      <point x="640" y="840" type="line" name="av01"/>
      <point x="1266" y="840" type="line" name="sv01"/>
    </contour>
  </outline>
</glyph>
<glyph name="H" format="2">
  <advance width="1300"/>
  <unicode hex="0048"/>
  <outline>
    <contour>
      <point x="672" y="0" type="line" name="hr00"/>
      <point x="794" y="688" type="line" name="sv01"/>
      <point x="478" y="688" type="line" name="av01"/>
      <point x="356" y="0" type="line"/>
      <point x="10" y="0" type="line" name="ab01"/>
      <point x="232" y="1263" type="line"/>
      <point x="232" y="1500" type="line" name="at01"/>
      <point x="625" y="1520" type="line" name="at02"/>
      <point x="518" y="916" type="line"/>
      <point x="834" y="916" type="line"/>
      <point x="937" y="1500" type="line" name="sv02"/>
      <point x="1287" y="1520" type="line" name="at03"/>
      <point x="1018" y="0" type="line" name="sv03"/>
    </contour>
  </outline>
</glyph>
<glyph name="I" format="2">
  <advance width="1300"/>
  <unicode hex="0049"/>
  <outline>
    <contour>
      <point x="347" y="1500" type="line" name="at01"/>
      <point x="1225" y="1500" type="line" name="sv01"/>
      <point x="1185" y="1272" type="line"/>
      <point x="912" y="1272" type="line"/>
      <point x="727" y="228" type="line"/>
      <point x="1028" y="228" type="line"/>
      <point x="953" y="0" type="line" name="sv02"/>
      <point x="75" y="0" type="line" name="ab01"/>
      <point x="115" y="228" type="line"/>
      <point x="393" y="228" type="line"/>
      <point x="578" y="1272" type="line"/>
      <point x="272" y="1272" type="line"/>
    </contour>
  </outline>
</glyph>
<glyph name="J" format="2">
  <advance width="1300"/>
  <unicode hex="004A"/>
  <outline>
    <contour>
      <point x="471" y="1500" type="line" name="at01"/>
      <point x="1243" y="1500" type="line" name="sv01"/>
      <point x="1057" y="446" type="line"/>
      <point x="1041" y="352"/>
      <point x="954" y="191"/>
      <point x="884" y="121" type="qcurve"/>
      <point x="851" y="88"/>
      <point x="764" y="37"/>
      <point x="661" y="2"/>
      <point x="547" y="-17"/>
      <point x="489" y="-17" type="qcurve" name="ab01"/>
      <point x="392" y="-17"/>
      <point x="251" y="18"/>
      <point x="149" y="78"/>
      <point x="78" y="156"/>
      <point x="50" y="200" type="qcurve"/>
      <point x="239" y="400" type="line"/>
      <point x="251" y="382"/>
      <point x="290" y="329"/>
      <point x="351" y="280"/>
      <point x="441" y="244"/>
      <point x="504" y="244" type="qcurve"/>
      <point x="534" y="244"/>
      <point x="597" y="263"/>
      <point x="653" y="309"/>
      <point x="696" y="386"/>
      <point x="706" y="444" type="qcurve"/>
      <point x="827" y="1132" type="line"/>
      <point x="871" y="1266" type="line"/>
      <point x="450" y="1266" type="line"/>
    </contour>
  </outline>
</glyph>
<glyph name="K" format="2">
  <advance width="1300"/>
  <unicode hex="004B"/>
  <outline>
    <contour>
      <point x="8" y="0" type="line" name="ab01"/>
      <point x="230" y="1263" type="line"/>
      <point x="230" y="1500" type="line" name="at01"/>
      <point x="627" y="1520" type="line" name="at02"/>
      <point x="541" y="1035" type="line"/>
      <point x="924" y="1500" type="line" name="sv01"/>
      <point x="1292" y="1500" type="line"/>
      <point x="777" y="900" type="line"/>
      <point x="527" y="800" type="line"/>
      <point x="735" y="716" type="line"/>
      <point x="1138" y="0" type="line" name="sv02"/>
      <point x="758" y="0" type="line"/>
      <point x="454" y="540" type="line"/>
      <point x="358" y="0" type="line"/>
    </contour>
  </outline>
</glyph>
<glyph name="L" format="2">
  <advance width="1300"/>
  <unicode hex="004C"/>
  <outline>
    <contour>
      <point x="507" y="228" type="line" name="hr00"/>
      <point x="1197" y="228" type="line"/>
      <point x="1129" y="0" type="line" name="ab01"/>
      <point x="104" y="0" type="line" name="sv01"/>
      <point x="167" y="232" type="line"/>
      <point x="349" y="1263" type="line"/>
      <point x="349" y="1500" type="line"/>
      <point x="743" y="1520" type="line" name="at01"/>
      <point x="538" y="360" type="line"/>
    </contour>
  </outline>
</glyph>
<glyph name="M" format="2">
  <advance width="1300"/>
  <unicode hex="004D"/>
  <guideline x="0" y="1327" angle="0"/>
  <outline>
    <contour>
      <point x="717" y="0" type="line" name="hr00"/>
      <point x="797" y="449" type="line"/>
      <point x="1036" y="1200" type="line"/>
      <point x="1026" y="1200" type="line"/>
      <point x="801" y="700" type="line"/>
      <point x="693" y="475" type="line"/>
      <point x="502" y="475" type="line"/>
      <point x="477" y="700" type="line" name="mh01"/>
      <point x="426" y="1200" type="line" name="mv01"/>
      <point x="416" y="1200" type="line"/>
      <point x="396" y="449" type="line" name="mh02"/>
      <point x="316" y="0" type="line"/>
      <point x="5" y="0" type="line" name="ab01"/>
      <point x="227" y="1263" type="line"/>
      <point x="227" y="1500" type="line" name="at01"/>
      <point x="552" y="1520" type="line" name="at02"/>
      <point x="645" y="1079" type="line"/>
      <point x="642" y="800" type="line"/>
      <point x="725" y="1082" type="line"/>
      <point x="969" y="1500" type="line" name="sv01"/>
      <point x="1299" y="1520" type="line" name="at03"/>
      <point x="1030" y="0" type="line" name="sv02"/>
    </contour>
  </outline>
</glyph>
<glyph name="N" format="2">
  <advance width="1300"/>
  <unicode hex="004E"/>
  <outline>
    <contour>
      <point x="739" y="0" type="line" name="hr00"/>
      <point x="443" y="950" type="line"/>
      <point x="433" y="950" type="line"/>
      <point x="442" y="649" type="line"/>
      <point x="327" y="0" type="line"/>
      <point x="5" y="0" type="line" name="ab01"/>
      <point x="227" y="1263" type="line"/>
      <point x="227" y="1500" type="line" name="at01"/>
      <point x="566" y="1520" type="line" name="at02"/>
      <point x="861" y="600" type="line"/>
      <point x="871" y="600" type="line"/>
      <point x="857" y="852" type="line"/>
      <point x="971" y="1500" type="line" name="sv01"/>
      <point x="1297" y="1520" type="line" name="at03"/>
      <point x="1028" y="0" type="line" name="sv02"/>
    </contour>
  </outline>
</glyph>
<glyph name="O" format="2">
  <advance width="1300"/>
  <unicode hex="004F"/>
  <outline>
    <contour>
      <point x="514" y="-17" type="qcurve" name="ab01"/>
      <point x="416" y="-17"/>
      <point x="261" y="38"/>
      <point x="146" y="139"/>
      <point x="70" y="279"/>
      <point x="32" y="450"/>
      <point x="32" y="645"/>
      <point x="51" y="750" type="qcurve"/>
      <point x="69" y="855"/>
      <point x="137" y="1050"/>
      <point x="233" y="1221"/>
      <point x="357" y="1361"/>
      <point x="507" y="1462"/>
      <point x="684" y="1517"/>
      <point x="785" y="1517" type="qcurve" name="at01"/>
      <point x="932" y="1517"/>
      <point x="1134" y="1395"/>
      <point x="1248" y="1187"/>
      <point x="1276" y="907"/>
      <point x="1248" y="750" type="qcurve"/>
      <point x="1229" y="645"/>
      <point x="1162" y="450"/>
      <point x="1066" y="279"/>
      <point x="942" y="139"/>
      <point x="791" y="38"/>
      <point x="614" y="-17"/>
    </contour>
    <contour>
      <point x="892" y="721" type="qcurve"/>
      <point x="903" y="783"/>
      <point x="919" y="913"/>
      <point x="922" y="1036"/>
      <point x="906" y="1145"/>
      <point x="864" y="1226"/>
      <point x="792" y="1274"/>
      <point x="736" y="1274" type="qcurve"/>
      <point x="684" y="1274"/>
      <point x="600" y="1231"/>
      <point x="533" y="1158"/>
      <point x="482" y="1061"/>
      <point x="443" y="952"/>
      <point x="415" y="837"/>
      <point x="406" y="783" type="qcurve"/>
      <point x="395" y="720"/>
      <point x="379" y="589"/>
      <point x="377" y="465"/>
      <point x="393" y="356"/>
      <point x="435" y="274"/>
      <point x="507" y="226"/>
      <point x="562" y="226" type="qcurve"/>
      <point x="639" y="226"/>
      <point x="751" y="320"/>
      <point x="829" y="466"/>
      <point x="878" y="640"/>
    </contour>
  </outline>
</glyph>
<glyph name="Q" format="2">
  <advance width="1300"/>
  <unicode hex="0051"/>
  <outline>
    <contour>
      <point x="398" y="783" type="qcurve" name="hr00"/>
      <point x="389" y="723"/>
      <point x="371" y="596"/>
      <point x="364" y="475"/>
      <point x="374" y="367"/>
      <point x="412" y="286"/>
      <point x="483" y="239"/>
      <point x="541" y="239" type="qcurve"/>
      <point x="533" y="262"/>
      <point x="509" y="335"/>
      <point x="484" y="413"/>
      <point x="461" y="482"/>
      <point x="455" y="500" type="qcurve"/>
      <point x="700" y="601" type="line"/>
      <point x="797" y="300" type="line"/>
      <point x="832" y="500" type="line"/>
      <point x="850" y="548"/>
      <point x="891" y="671"/>
      <point x="905" y="751" type="qcurve"/>
      <point x="916" y="813"/>
      <point x="929" y="939"/>
      <point x="926" y="1056"/>
      <point x="905" y="1159"/>
      <point x="860" y="1235"/>
      <point x="788" y="1279"/>
      <point x="736" y="1279" type="qcurve"/>
      <point x="687" y="1279"/>
      <point x="604" y="1236"/>
      <point x="535" y="1162"/>
      <point x="480" y="1063"/>
      <point x="438" y="953"/>
      <point x="407" y="837"/>
    </contour>
    <contour>
      <point x="1035" y="-180" type="line"/>
      <point x="939" y="-180"/>
      <point x="800" y="-159"/>
      <point x="696" y="-99"/>
      <point x="618" y="11"/>
      <point x="584" y="100" type="qcurve"/>
      <point x="565" y="-11" type="line"/>
      <point x="539" y="-14"/>
      <point x="491" y="-17"/>
      <point x="466" y="-17" type="qcurve" name="ab01"/>
      <point x="375" y="-17"/>
      <point x="233" y="41"/>
      <point x="129" y="145"/>
      <point x="62" y="288"/>
      <point x="30" y="459"/>
      <point x="33" y="650"/>
      <point x="50" y="750" type="qcurve"/>
      <point x="68" y="855"/>
      <point x="136" y="1050"/>
      <point x="232" y="1221"/>
      <point x="356" y="1361"/>
      <point x="506" y="1462"/>
      <point x="683" y="1517"/>
      <point x="784" y="1517" type="qcurve" name="at01"/>
      <point x="931" y="1517"/>
      <point x="1134" y="1405"/>
      <point x="1250" y="1208"/>
      <point x="1280" y="938"/>
      <point x="1252" y="780" type="qcurve"/>
      <point x="1236" y="688"/>
      <point x="1170" y="497"/>
      <point x="1075" y="323"/>
      <point x="952" y="176"/>
      <point x="879" y="127" type="qcurve"/>
      <point x="892" y="97"/>
      <point x="936" y="65"/>
      <point x="989" y="52"/>
      <point x="1048" y="50"/>
      <point x="1075" y="50" type="qcurve"/>
    </contour>
  </outline>
</glyph>
<glyph name="R" format="2">
  <advance width="1300"/>
  <unicode hex="0052"/>
  <outline>
    <contour>
      <point x="491" y="600" type="line" name="hr00"/>
      <point x="385" y="0" type="line"/>
      <point x="61" y="0" type="line" name="ab01"/>
      <point x="282" y="1262" type="line"/>
      <point x="282" y="1488" type="line"/>
      <point x="327" y="1493"/>
      <point x="426" y="1504"/>
      <point x="526" y="1512"/>
      <point x="624" y="1517"/>
      <point x="668" y="1517" type="qcurve" name="at01"/>
      <point x="795" y="1517"/>
      <point x="1011" y="1454"/>
      <point x="1161" y="1335"/>
      <point x="1231" y="1166"/>
      <point x="1212" y="1061" type="qcurve"/>
      <point x="1197" y="972"/>
      <point x="1117" y="831"/>
      <point x="997" y="723"/>
      <point x="840" y="647"/>
      <point x="746" y="624" type="qcurve"/>
      <point x="834" y="600" type="line"/>
      <point x="1136" y="0" type="line" name="sv01"/>
      <point x="771" y="0" type="line"/>
    </contour>
    <contour>
      <point x="582" y="1121" type="line"/>
      <point x="526" y="800" type="line"/>
      <point x="562" y="800" type="line"/>
      <point x="630" y="800"/>
      <point x="743" y="843"/>
      <point x="828" y="916"/>
      <point x="882" y="1013"/>
      <point x="891" y="1066" type="qcurve"/>
      <point x="903" y="1136"/>
      <point x="867" y="1226"/>
      <point x="794" y="1277"/>
      <point x="699" y="1296"/>
      <point x="653" y="1296" type="qcurve"/>
      <point x="637" y="1296"/>
      <point x="609" y="1295"/>
      <point x="597" y="1294" type="qcurve"/>
    </contour>
  </outline>
</glyph>
<glyph name="S" format="2">
  <advance width="1300"/>
  <unicode hex="0053"/>
  <outline>
    <contour>
      <point x="1048" y="1178" type="line" name="hr00"/>
      <point x="1006" y="1205"/>
      <point x="938" y="1241"/>
      <point x="878" y="1264"/>
      <point x="823" y="1274"/>
      <point x="795" y="1274" type="qcurve"/>
      <point x="758" y="1274"/>
      <point x="683" y="1260"/>
      <point x="619" y="1226"/>
      <point x="572" y="1169"/>
      <point x="565" y="1125" type="qcurve"/>
      <point x="557" y="1084"/>
      <point x="588" y="1025"/>
      <point x="646" y="979"/>
      <point x="725" y="941"/>
      <point x="766" y="921" type="qcurve"/>
      <point x="859" y="876"/>
      <point x="1001" y="775"/>
      <point x="1090" y="652"/>
      <point x="1122" y="497"/>
      <point x="1104" y="398" type="qcurve"/>
      <point x="1084" y="282"/>
      <point x="960" y="124"/>
      <point x="784" y="26"/>
      <point x="570" y="-17"/>
      <point x="460" y="-17" type="qcurve" name="ab01"/>
      <point x="397" y="-17"/>
      <point x="285" y="1"/>
      <point x="183" y="36"/>
      <point x="87" y="88"/>
      <point x="39" y="121" type="qcurve"/>
      <point x="217" y="348" type="line"/>
      <point x="241" y="330"/>
      <point x="308" y="294"/>
      <point x="384" y="264"/>
      <point x="465" y="246"/>
      <point x="503" y="246" type="qcurve"/>
      <point x="547" y="246"/>
      <point x="636" y="262"/>
      <point x="711" y="303"/>
      <point x="765" y="374"/>
      <point x="775" y="430" type="qcurve"/>
      <point x="785" y="484"/>
      <point x="750" y="562"/>
      <point x="681" y="621"/>
      <point x="589" y="669"/>
      <point x="542" y="693" type="qcurve"/>
      <point x="476" y="727"/>
      <point x="356" y="813"/>
      <point x="271" y="919"/>
      <point x="230" y="1049"/>
      <point x="244" y="1127" type="qcurve"/>
      <point x="262" y="1228"/>
      <point x="372" y="1375"/>
      <point x="529" y="1471"/>
      <point x="718" y="1517"/>
      <point x="814" y="1517" type="qcurve" name="at01"/>
      <point x="931" y="1517"/>
      <point x="1134" y="1443"/>
      <point x="1232" y="1369" type="qcurve"/>
    </contour>
  </outline>
</glyph>
<glyph name="T" format="2">
  <advance width="1300"/>
  <unicode hex="0054"/>
  <outline>
    <contour>
      <point x="246" y="0" type="line" name="hr00"/>
      <point x="471" y="1272" type="line"/>
      <point x="68" y="1272" type="line"/>
      <point x="108" y="1500" type="line" name="at01"/>
      <point x="1242" y="1500" type="line" name="sv01"/>
      <point x="1202" y="1272" type="line"/>
      <point x="804" y="1272" type="line"/>
      <point x="579" y="0" type="line" name="ab01"/>
    </contour>
  </outline>
</glyph>
<glyph name="U" format="2">
  <advance width="1300"/>
  <unicode hex="0055"/>
  <outline>
    <contour>
      <point x="1261" y="1500" type="line" name="sv01"/>
      <point x="1091" y="534" type="line"/>
      <point x="1067" y="395"/>
      <point x="956" y="188"/>
      <point x="792" y="51"/>
      <point x="579" y="-17"/>
      <point x="453" y="-17" type="qcurve" name="ab01"/>
      <point x="317" y="-17"/>
      <point x="144" y="69"/>
      <point x="55" y="227"/>
      <point x="42" y="448"/>
      <point x="66" y="582" type="qcurve"/>
      <point x="186" y="1263" type="line"/>
      <point x="186" y="1500" type="line" name="at01"/>
      <point x="563" y="1520" type="line" name="at02"/>
      <point x="394" y="564" type="line"/>
      <point x="380" y="483"/>
      <point x="370" y="355"/>
      <point x="393" y="267"/>
      <point x="457" y="221"/>
      <point x="516" y="221" type="qcurve"/>
      <point x="607" y="221"/>
      <point x="730" y="368"/>
      <point x="756" y="516" type="qcurve"/>
      <point x="929" y="1500" type="line"/>
    </contour>
  </outline>
</glyph>
<glyph name="V" format="2">
  <advance width="1300"/>
  <unicode hex="0056"/>
  <outline>
    <contour>
      <point x="1283" y="1500" type="line" name="sv01"/>
      <point x="641" y="200" type="line"/>
      <point x="575" y="-17" type="line" name="ab01"/>
      <point x="226" y="0" type="line"/>
      <point x="17" y="1500" type="line" name="at01"/>
      <point x="343" y="1520" type="line" name="at02"/>
      <point x="451" y="700" type="line" name="mh01"/>
      <point x="427" y="260" type="line" name="mv01"/>
      <point x="574" y="700" type="line"/>
      <point x="963" y="1500" type="line"/>
    </contour>
  </outline>
</glyph>
<glyph name="W" format="2">
  <advance width="1300"/>
  <unicode hex="0057"/>
  <outline>
    <contour>
      <point x="319" y="1520" type="line" name="at02"/>
      <point x="333" y="959" type="line"/>
      <point x="231" y="400" type="line"/>
      <point x="241" y="400" type="line"/>
      <point x="348" y="701" type="line"/>
      <point x="452" y="1000" type="line"/>
      <point x="678" y="1000" type="line"/>
      <point x="682" y="701" type="line"/>
      <point x="681" y="400" type="line"/>
      <point x="691" y="400" type="line"/>
      <point x="787" y="957" type="line"/>
      <point x="985" y="1500" type="line"/>
      <point x="1276" y="1500" type="line" name="sv01"/>
      <point x="743" y="0" type="line" name="sv02"/>
      <point x="490" y="0" type="line"/>
      <point x="482" y="300" type="line"/>
      <point x="504" y="650" type="line"/>
      <point x="401" y="300" type="line"/>
      <point x="286" y="0" type="line"/>
      <point x="30" y="0" type="line" name="ab01"/>
      <point x="31" y="1500" type="line" name="at01"/>
    </contour>
  </outline>
</glyph>
<glyph name="X" format="2">
  <advance width="1300"/>
  <unicode hex="0058"/>
  <outline>
    <contour>
      <point x="856" y="0" type="line" name="hr00"/>
      <point x="642" y="613" type="line"/>
      <point x="602" y="427" type="line"/>
      <point x="352" y="0" type="line"/>
      <point x="30" y="0" type="line" name="ab01"/>
      <point x="552" y="824" type="line"/>
      <point x="283" y="1500" type="line" name="at01"/>
      <point x="615" y="1520" type="line" name="at02"/>
      <point x="796" y="1050" type="line"/>
      <point x="848" y="1231" type="line"/>
      <point x="1013" y="1500" type="line"/>
      <point x="1300" y="1500" type="line" name="sv01"/>
      <point x="879" y="855" type="line"/>
      <point x="1196" y="0" type="line" name="sv02"/>
    </contour>
  </outline>
</glyph>
<glyph name="Y" format="2">
  <advance width="1300"/>
  <unicode hex="0059"/>
  <outline>
    <contour>
      <point x="518" y="1143" type="line" name="hr00"/>
      <point x="560" y="773" type="line"/>
      <point x="683" y="1143" type="line"/>
      <point x="928" y="1500" type="line"/>
      <point x="1263" y="1500" type="line" name="sv01"/>
      <point x="680" y="650" type="line"/>
      <point x="565" y="0" type="line" name="sv02"/>
      <point x="214" y="0" type="line" name="ab01"/>
      <point x="329" y="650" type="line"/>
      <point x="50" y="1500" type="line" name="at01"/>
      <point x="393" y="1520" type="line" name="at02"/>
    </contour>
  </outline>
</glyph>
<glyph name="Z" format="2">
  <advance width="1300"/>
  <unicode hex="005A"/>
  <outline>
    <contour>
      <point x="1100" y="228" type="line" name="hr00"/>
      <point x="1087" y="0" type="line" name="sv01"/>
      <point x="48" y="0" type="line" name="ab01"/>
      <point x="30" y="86" type="line"/>
      <point x="765" y="1187" type="line"/>
      <point x="922" y="1300" type="line"/>
      <point x="787" y="1272" type="line"/>
      <point x="329" y="1272" type="line"/>
      <point x="342" y="1500" type="line" name="at01"/>
      <point x="1256" y="1500" type="line" name="sv02"/>
      <point x="1287" y="1442" type="line"/>
      <point x="541" y="314" type="line"/>
      <point x="387" y="200" type="line"/>
      <point x="524" y="228" type="line"/>
    </contour>
  </outline>
</glyph>
<glyph name="bracketleft" format="2">
  <advance width="1300"/>
  <unicode hex="005B"/>
  <outline>
    <contour>
      <point x="459" y="1288" type="line" name="hr00"/>
      <point x="474" y="1520" type="line" name="at01"/>
      <point x="1174" y="1520" type="line" name="sv01"/>
      <point x="1135" y="1302" type="line"/>
      <point x="785" y="1302" type="line"/>
      <point x="774" y="1154" type="line"/>
      <point x="565" y="-31" type="line"/>
      <point x="524" y="-179" type="line"/>
      <point x="874" y="-179" type="line"/>
      <point x="835" y="-398" type="line" name="sv02"/>
      <point x="135" y="-398" type="line" name="av01"/>
      <point x="202" y="-166" type="line"/>
    </contour>
  </outline>
</glyph>
<glyph name="bracketright" format="2">
  <advance width="1300"/>
  <unicode hex="005D"/>
  <outline>
    <contour>
      <point x="862" y="-166" type="line" name="hr00"/>
      <point x="847" y="-398" type="line" name="sv01"/>
      <point x="147" y="-398" type="line" name="av01"/>
      <point x="186" y="-179" type="line"/>
      <point x="535" y="-179" type="line"/>
      <point x="546" y="-31" type="line"/>
      <point x="755" y="1154" type="line"/>
      <point x="796" y="1302" type="line"/>
      <point x="447" y="1302" type="line"/>
      <point x="486" y="1520" type="line" name="at01"/>
      <point x="1186" y="1520" type="line" name="sv02"/>
      <point x="1119" y="1288" type="line"/>
    </contour>
  </outline>
</glyph>
<glyph name="asciicircum" format="2">
  <advance width="1300"/>
  <unicode hex="005E"/>
  <outline>
    <contour>
      <point x="1242" y="866" type="line" name="sv01"/>
      <point x="942" y="866" type="line"/>
      <point x="701" y="1200" type="line"/>
      <point x="342" y="868" type="line"/>
      <point x="43" y="868" type="line" name="av01"/>
      <point x="638" y="1500" type="line"/>
      <point x="850" y="1520" type="line"/>
    </contour>
  </outline>
</glyph>
<glyph name="underscore" format="2">
  <advance width="1300"/>
  <unicode hex="005F"/>
  <outline>
    <contour>
      <point x="112" y="-200" type="line"/>
      <point x="1212" y="-200" type="line"/>
      <point x="1167" y="-455" type="line" name="sv01"/>
      <point x="67" y="-455" type="line" name="av01"/>
    </contour>
  </outline>
</glyph>
<glyph name="grave" format="2">
  <advance width="1300"/>
  <unicode hex="0060"/>
  <outline>
    <contour>
      <point x="1101" y="1200" type="line" name="ah01"/>
      <point x="886" y="1200" type="line" name="sh01"/>
      <point x="658" y="1520" type="line"/>
      <point x="991" y="1500" type="line" name="at01"/>
    </contour>
  </outline>
</glyph>
<glyph name="a" format="2">
  <advance width="1300"/>
  <unicode hex="0061"/>
  <outline>
    <contour>
      <point x="840" y="885" type="line" name="hr00"/>
      <point x="820" y="888"/>
      <point x="786" y="892"/>
      <point x="779" y="893" type="qcurve"/>
      <point x="704" y="893"/>
      <point x="589" y="831"/>
      <point x="507" y="727"/>
      <point x="458" y="588"/>
      <point x="450" y="510" type="qcurve"/>
      <point x="444" y="449"/>
      <point x="449" y="340"/>
      <point x="471" y="257"/>
      <point x="512" y="209"/>
      <point x="541" y="209" type="qcurve"/>
      <point x="575" y="209"/>
      <point x="636" y="232"/>
      <point x="689" y="268"/>
      <point x="730" y="310"/>
      <point x="745" y="329" type="qcurve"/>
    </contour>
    <contour>
      <point x="484" y="-16" type="qcurve" name="ab01"/>
      <point x="407" y="-15"/>
      <point x="293" y="32"/>
      <point x="212" y="112"/>
      <point x="163" y="219"/>
      <point x="140" y="342"/>
      <point x="139" y="476"/>
      <point x="148" y="542" type="qcurve"/>
      <point x="157" y="614"/>
      <point x="205" y="756"/>
      <point x="284" y="884"/>
      <point x="393" y="993"/>
      <point x="534" y="1072"/>
      <point x="709" y="1117"/>
      <point x="813" y="1117" type="qcurve" name="at01"/>
      <point x="874" y="1116"/>
      <point x="936" y="1108" type="qcurve"/>
      <point x="990" y="1101"/>
      <point x="1116" y="1071"/>
      <point x="1174" y="1043" type="qcurve"/>
      <point x="1031" y="209" type="line"/>
      <point x="1017" y="0" type="line" name="sv01"/>
      <point x="695" y="0" type="line" name="ab02"/>
      <point x="723" y="162" type="line"/>
      <point x="568" y="-10" type="line"/>
      <point x="557" y="-12"/>
      <point x="521" y="-17"/>
    </contour>
  </outline>
</glyph>
<glyph name="b" format="2">
  <advance width="1300"/>
  <unicode hex="0062"/>
  <outline>
    <contour>
      <point x="454" y="212" type="line" name="hr00"/>
      <point x="483" y="207"/>
      <point x="547" y="200"/>
      <point x="577" y="200" type="qcurve"/>
      <point x="640" y="200"/>
      <point x="734" y="275"/>
      <point x="802" y="392"/>
      <point x="846" y="533"/>
      <point x="857" y="598" type="qcurve"/>
      <point x="872" y="680"/>
      <point x="869" y="795"/>
      <point x="842" y="867"/>
      <point x="795" y="900"/>
      <point x="767" y="900" type="qcurve"/>
      <point x="706" y="900"/>
      <point x="607" y="858"/>
      <point x="563" y="826" type="qcurve"/>
    </contour>
    <contour>
      <point x="337" y="1398" type="line"/>
      <point x="337" y="1601" type="line"/>
      <point x="705" y="1632" type="line" name="av01"/>
      <point x="589" y="974" type="line"/>
      <point x="707" y="1096" type="line"/>
      <point x="738" y="1104"/>
      <point x="805" y="1117"/>
      <point x="833" y="1117" type="qcurve" name="at01"/>
      <point x="925" y="1117"/>
      <point x="1074" y="1048"/>
      <point x="1171" y="915"/>
      <point x="1206" y="719"/>
      <point x="1184" y="593" type="qcurve"/>
      <point x="1160" y="456"/>
      <point x="1038" y="231"/>
      <point x="864" y="71"/>
      <point x="648" y="-17"/>
      <point x="530" y="-17" type="qcurve" name="ab01"/>
      <point x="466" y="-17"/>
      <point x="337" y="-4"/>
      <point x="222" y="16"/>
      <point x="128" y="42"/>
      <point x="100" y="54" type="qcurve"/>
    </contour>
  </outline>
</glyph>
<glyph name="c" format="2">
  <advance width="1300"/>
  <unicode hex="0063"/>
  <outline>
    <contour>
      <point x="1007" y="772" type="line" name="hr00"/>
      <point x="970" y="833"/>
      <point x="862" y="885"/>
      <point x="785" y="885" type="qcurve"/>
      <point x="724" y="885"/>
      <point x="603" y="838"/>
      <point x="502" y="752"/>
      <point x="429" y="629"/>
      <point x="416" y="553" type="qcurve"/>
      <point x="404" y="484"/>
      <point x="437" y="367"/>
      <point x="510" y="283"/>
      <point x="613" y="236"/>
      <point x="671" y="236" type="qcurve"/>
      <point x="723" y="236"/>
      <point x="811" y="255"/>
      <point x="885" y="288"/>
      <point x="943" y="330"/>
      <point x="965" y="353" type="qcurve"/>
      <point x="1051" y="137" type="line"/>
      <point x="1030" y="121"/>
      <point x="950" y="69"/>
      <point x="835" y="19"/>
      <point x="685" y="-17"/>
      <point x="594" y="-17" type="qcurve" name="ab01"/>
      <point x="461" y="-17"/>
      <point x="260" y="75"/>
      <point x="133" y="232"/>
      <point x="86" y="440"/>
      <point x="106" y="555" type="qcurve"/>
      <point x="118" y="624"/>
      <point x="167" y="762"/>
      <point x="245" y="887"/>
      <point x="355" y="994"/>
      <point x="500" y="1072"/>
      <point x="684" y="1117"/>
      <point x="797" y="1117" type="qcurve" name="at01"/>
      <point x="931" y="1117"/>
      <point x="1138" y="1042"/>
      <point x="1201" y="957" type="qcurve"/>
    </contour>
  </outline>
</glyph>
<glyph name="d" format="2">
  <advance width="1300"/>
  <unicode hex="0064"/>
  <outline>
    <contour>
      <point x="796" y="900" type="line" name="hr00"/>
      <point x="727" y="900" type="line"/>
      <point x="661" y="900"/>
      <point x="552" y="838"/>
      <point x="470" y="732"/>
      <point x="414" y="592"/>
      <point x="401" y="515" type="qcurve"/>
      <point x="388" y="441"/>
      <point x="391" y="325"/>
      <point x="419" y="243"/>
      <point x="470" y="200"/>
      <point x="505" y="200" type="qcurve"/>
      <point x="541" y="200"/>
      <point x="599" y="221"/>
      <point x="645" y="254"/>
      <point x="680" y="296"/>
      <point x="693" y="316" type="qcurve"/>
    </contour>
    <contour>
      <point x="637" y="0" type="line" name="ab02"/>
      <point x="666" y="162" type="line"/>
      <point x="510" y="-10" type="line"/>
      <point x="502" y="-12"/>
      <point x="488" y="-14"/>
      <point x="468" y="-16"/>
      <point x="441" y="-17"/>
      <point x="420" y="-17" type="qcurve" name="ab01"/>
      <point x="328" y="-17"/>
      <point x="183" y="64"/>
      <point x="90" y="210"/>
      <point x="57" y="409"/>
      <point x="78" y="528" type="qcurve"/>
      <point x="99" y="647"/>
      <point x="218" y="856"/>
      <point x="397" y="1011"/>
      <point x="628" y="1100"/>
      <point x="761" y="1100" type="qcurve" name="at01"/>
      <point x="831" y="1100" type="line" name="sv01"/>
      <point x="925" y="1632" type="line" name="av01"/>
      <point x="1245" y="1600" type="line"/>
      <point x="1000" y="209" type="line"/>
      <point x="985" y="0" type="line" name="sv02"/>
    </contour>
  </outline>
</glyph>
<glyph name="e" format="2">
  <advance width="1300"/>
  <unicode hex="0065"/>
  <outline>
    <contour>
      <point x="1078" y="158" type="line" name="hr00"/>
      <point x="1032" y="121"/>
      <point x="928" y="58"/>
      <point x="808" y="11"/>
      <point x="668" y="-16"/>
      <point x="586" y="-16" type="qcurve" name="ab01"/>
      <point x="442" y="-16"/>
      <point x="239" y="78"/>
      <point x="119" y="235"/>
      <point x="80" y="439"/>
      <point x="100" y="550" type="qcurve"/>
      <point x="112" y="621"/>
      <point x="164" y="760"/>
      <point x="243" y="886"/>
      <point x="351" y="993"/>
      <point x="488" y="1072"/>
      <point x="654" y="1117"/>
      <point x="752" y="1117" type="qcurve" name="at01"/>
      <point x="872" y="1117"/>
      <point x="1048" y="1046"/>
      <point x="1155" y="918"/>
      <point x="1192" y="740"/>
      <point x="1173" y="632" type="qcurve"/>
      <point x="1168" y="605"/>
      <point x="1146" y="517"/>
      <point x="1132" y="466" type="qcurve" name="sv01"/>
      <point x="395" y="466" type="line" name="av01"/>
      <point x="387" y="412"/>
      <point x="400" y="318"/>
      <point x="456" y="249"/>
      <point x="560" y="210"/>
      <point x="644" y="210" type="qcurve"/>
      <point x="696" y="210"/>
      <point x="777" y="233"/>
      <point x="839" y="264"/>
      <point x="885" y="298"/>
      <point x="901" y="310" type="qcurve"/>
    </contour>
    <contour>
      <point x="886" y="672" type="line"/>
      <point x="894" y="718"/>
      <point x="882" y="800"/>
      <point x="840" y="863"/>
      <point x="769" y="900"/>
      <point x="718" y="900" type="qcurve"/>
      <point x="667" y="900"/>
      <point x="592" y="870"/>
      <point x="537" y="825"/>
      <point x="501" y="775"/>
      <point x="490" y="756" type="qcurve"/>
      <point x="381" y="653" type="line"/>
      <point x="557" y="671" type="line"/>
    </contour>
  </outline>
</glyph>
<glyph name="f" format="2">
  <advance width="1300"/>
  <unicode hex="0066"/>
  <guideline x="0" y="3298" angle="0"/>
  <outline>
    <contour>
      <point x="487" y="876" type="line" name="hr00"/>
      <point x="231" y="876" type="line"/>
      <point x="270" y="1100" type="line" name="at01"/>
      <point x="526" y="1100" type="line"/>
      <point x="551" y="1242" type="line"/>
      <point x="570" y="1339"/>
      <point x="637" y="1485"/>
      <point x="741" y="1581"/>
      <point x="887" y="1623"/>
      <point x="985" y="1617" type="qcurve" name="av01"/>
      <point x="1037" y="1614"/>
      <point x="1128" y="1589"/>
      <point x="1202" y="1556"/>
      <point x="1261" y="1518"/>
      <point x="1282" y="1501" type="qcurve"/>
      <point x="1118" y="1341" type="line"/>
      <point x="1089" y="1361"/>
      <point x="1021" y="1388"/>
      <point x="977" y="1393" type="qcurve"/>
      <point x="951" y="1396"/>
      <point x="909" y="1383"/>
      <point x="878" y="1345"/>
      <point x="855" y="1281"/>
      <point x="847" y="1233" type="qcurve"/>
      <point x="823" y="1100" type="line"/>
      <point x="1120" y="1100" type="line" name="sv01"/>
      <point x="1054" y="876" type="line"/>
      <point x="798" y="876" type="line"/>
      <point x="644" y="0" type="line"/>
      <point x="624" y="-112"/>
      <point x="568" y="-279"/>
      <point x="473" y="-387"/>
      <point x="326" y="-435"/>
      <point x="214" y="-428" type="qcurve" name="av02"/>
      <point x="177" y="-426"/>
      <point x="113" y="-413"/>
      <point x="62" y="-398"/>
      <point x="26" y="-382"/>
      <point x="16" y="-376" type="qcurve"/>
      <point x="106" y="-179" type="line"/>
      <point x="107" y="-179"/>
      <point x="108" y="-180"/>
      <point x="109" y="-180" type="qcurve"/>
      <point x="128" y="-188"/>
      <point x="175" y="-204"/>
      <point x="201" y="-202" type="qcurve"/>
      <point x="229" y="-199"/>
      <point x="271" y="-169"/>
      <point x="301" y="-116"/>
      <point x="323" y="-44"/>
      <point x="333" y="0" type="qcurve"/>
    </contour>
  </outline>
</glyph>
<glyph name="g" format="2">
  <advance width="1300"/>
  <unicode hex="0067"/>
  <outline>
    <contour>
      <point x="727" y="16" type="line" name="hr00"/>
      <point x="692" y="2"/>
      <point x="592" y="-17"/>
      <point x="534" y="-17" type="qcurve" name="ab01"/>
      <point x="433" y="-17"/>
      <point x="262" y="72"/>
      <point x="146" y="225"/>
      <point x="97" y="430"/>
      <point x="117" y="545" type="qcurve"/>
      <point x="138" y="662"/>
      <point x="253" y="870"/>
      <point x="425" y="1026"/>
      <point x="648" y="1117"/>
      <point x="777" y="1117" type="qcurve" name="at02"/>
      <point x="795" y="1117"/>
      <point x="819" y="1116"/>
      <point x="829" y="1114" type="qcurve"/>
      <point x="892" y="958" type="line"/>
      <point x="921" y="1120" type="line" name="at01"/>
      <point x="1243" y="1100" type="line"/>
      <point x="1042" y="-41" type="line"/>
      <point x="1025" y="-140"/>
      <point x="919" y="-313"/>
      <point x="755" y="-442"/>
      <point x="543" y="-517"/>
      <point x="419" y="-517" type="qcurve" name="ab02"/>
      <point x="353" y="-517"/>
      <point x="249" y="-496"/>
      <point x="162" y="-456"/>
      <point x="91" y="-397"/>
      <point x="58" y="-359" type="qcurve"/>
      <point x="231" y="-192" type="line"/>
      <point x="244" y="-206"/>
      <point x="291" y="-240"/>
      <point x="349" y="-272"/>
      <point x="416" y="-293"/>
      <point x="450" y="-293" type="qcurve"/>
      <point x="492" y="-293"/>
      <point x="580" y="-252"/>
      <point x="655" y="-180"/>
      <point x="710" y="-83"/>
      <point x="720" y="-27" type="qcurve"/>
    </contour>
    <contour>
      <point x="868" y="820" type="line"/>
      <point x="845" y="852"/>
      <point x="779" y="900"/>
      <point x="734" y="900" type="qcurve"/>
      <point x="674" y="900"/>
      <point x="575" y="828"/>
      <point x="501" y="719"/>
      <point x="452" y="591"/>
      <point x="442" y="534" type="qcurve"/>
      <point x="430" y="463"/>
      <point x="445" y="341"/>
      <point x="487" y="251"/>
      <point x="551" y="200"/>
      <point x="588" y="200" type="qcurve"/>
      <point x="647" y="200"/>
      <point x="736" y="250"/>
      <point x="774" y="287" type="qcurve"/>
    </contour>
  </outline>
</glyph>
<glyph name="h" format="2">
  <advance width="1300"/>
  <unicode hex="0068"/>
  <outline>
    <contour>
      <point x="409" y="0" type="line" name="hr00"/>
      <point x="92" y="0" type="line" name="ab01"/>
      <point x="329" y="1339" type="line"/>
      <point x="329" y="1568" type="line"/>
      <point x="692" y="1600" type="line" name="av01"/>
      <point x="586" y="1000" type="line"/>
      <point x="680" y="1100" type="line"/>
      <point x="726" y="1110"/>
      <point x="830" y="1117"/>
      <point x="894" y="1117" type="qcurve" name="at01"/>
      <point x="1071" y="1117"/>
      <point x="1221" y="911"/>
      <point x="1187" y="718" type="qcurve"/>
      <point x="1060" y="0" type="line" name="sv01"/>
      <point x="734" y="0" type="line"/>
      <point x="858" y="698" type="line"/>
      <point x="867" y="750"/>
      <point x="856" y="824"/>
      <point x="827" y="871"/>
      <point x="784" y="892"/>
      <point x="762" y="892" type="qcurve"/>
      <point x="720" y="892"/>
      <point x="658" y="877"/>
      <point x="609" y="853"/>
      <point x="570" y="823"/>
      <point x="552" y="808" type="qcurve"/>
    </contour>
  </outline>
</glyph>
<glyph name="i" format="2">
  <advance width="1300"/>
  <unicode hex="0069"/>
  <outline>
    <contour>
      <point x="588" y="1501" type="line" name="at01"/>
      <point x="925" y="1501" type="line" name="sv01"/>
      <point x="879" y="1240" type="line"/>
      <point x="542" y="1240" type="line" name="mv01"/>
    </contour>
    <contour>
      <point x="570" y="920" type="line"/>
      <point x="406" y="876" type="line"/>
      <point x="212" y="876" type="line"/>
      <point x="212" y="1100" type="line" name="at02"/>
      <point x="854" y="1100" type="line" name="sv02"/>
      <point x="729" y="423" type="line"/>
      <point x="722" y="384"/>
      <point x="733" y="315"/>
      <point x="764" y="265"/>
      <point x="812" y="236"/>
      <point x="842" y="236" type="qcurve"/>
      <point x="875" y="236"/>
      <point x="932" y="247"/>
      <point x="987" y="269"/>
      <point x="1042" y="305"/>
      <point x="1072" y="330" type="qcurve"/>
      <point x="1090" y="98" type="line"/>
      <point x="1075" y="87"/>
      <point x="1025" y="49"/>
      <point x="950" y="11"/>
      <point x="845" y="-17"/>
      <point x="774" y="-17" type="qcurve" name="ab01"/>
      <point x="659" y="-17"/>
      <point x="504" y="55"/>
      <point x="417" y="178"/>
      <point x="393" y="341"/>
      <point x="409" y="432" type="qcurve"/>
      <point x="473" y="800" type="line"/>
    </contour>
  </outline>
</glyph>
<glyph name="j" format="2">
  <advance width="1300"/>
  <unicode hex="006A"/>
  <outline>
    <contour>
      <point x="855" y="1501" type="line" name="at02"/>
      <point x="1192" y="1501" type="line" name="sv01"/>
      <point x="1146" y="1240" type="line" name="mv01"/>
      <point x="809" y="1240" type="line"/>
    </contour>
    <contour>
      <point x="834" y="920" type="line"/>
      <point x="670" y="876" type="line"/>
      <point x="475" y="876" type="line"/>
      <point x="476" y="1100" type="line" name="at01"/>
      <point x="1117" y="1100" type="line" name="sv02"/>
      <point x="911" y="-68" type="line"/>
      <point x="895" y="-159"/>
      <point x="813" y="-322"/>
      <point x="683" y="-445"/>
      <point x="503" y="-517"/>
      <point x="388" y="-517" type="qcurve" name="ab01"/>
      <point x="317" y="-517"/>
      <point x="221" y="-489"/>
      <point x="159" y="-451"/>
      <point x="124" y="-413"/>
      <point x="112" y="-402" type="qcurve"/>
      <point x="212" y="-170" type="line"/>
      <point x="255" y="-220"/>
      <point x="347" y="-264"/>
      <point x="413" y="-264" type="qcurve"/>
      <point x="443" y="-264"/>
      <point x="497" y="-236"/>
      <point x="542" y="-187"/>
      <point x="575" y="-118"/>
      <point x="582" y="-77" type="qcurve"/>
      <point x="737" y="800" type="line"/>
    </contour>
  </outline>
</glyph>
<glyph name="k" format="2">
  <advance width="1300"/>
  <unicode hex="006B"/>
  <outline>
    <contour>
      <point x="103" y="0" type="line" name="ab01"/>
      <point x="349" y="1397" type="line"/>
      <point x="349" y="1600" type="line"/>
      <point x="696" y="1631" type="line" name="av01"/>
      <point x="544" y="769" type="line"/>
      <point x="868" y="1100" type="line" name="at01"/>
      <point x="1209" y="1100" type="line" name="sv01"/>
      <point x="776" y="700" type="line"/>
      <point x="559" y="627" type="line"/>
      <point x="737" y="564" type="line"/>
      <point x="1116" y="0" type="line" name="sv02"/>
      <point x="768" y="0" type="line"/>
      <point x="489" y="458" type="line"/>
      <point x="409" y="0" type="line"/>
    </contour>
  </outline>
</glyph>
<glyph name="l" format="2">
  <advance width="1300"/>
  <unicode hex="006C"/>
  <outline>
    <contour>
      <point x="646" y="1386" type="line" name="hr00"/>
      <point x="482" y="1342" type="line"/>
      <point x="287" y="1342" type="line"/>
      <point x="287" y="1566" type="line" name="av01"/>
      <point x="919" y="1566" type="line" name="sv01"/>
      <point x="711" y="388" type="line"/>
      <point x="702" y="337"/>
      <point x="711" y="268"/>
      <point x="736" y="226"/>
      <point x="775" y="208"/>
      <point x="796" y="208" type="qcurve"/>
      <point x="824" y="208"/>
      <point x="874" y="225"/>
      <point x="918" y="251"/>
      <point x="957" y="284"/>
      <point x="973" y="300" type="qcurve"/>
      <point x="1047" y="107" type="line"/>
      <point x="1035" y="98"/>
      <point x="988" y="57"/>
      <point x="913" y="15"/>
      <point x="808" y="-17"/>
      <point x="738" y="-17" type="qcurve" name="ab01"/>
      <point x="630" y="-17"/>
      <point x="486" y="51"/>
      <point x="404" y="167"/>
      <point x="383" y="323"/>
      <point x="398" y="410" type="qcurve"/>
      <point x="549" y="1266" type="line"/>
    </contour>
  </outline>
</glyph>
<glyph name="m" format="2">
  <advance width="1300"/>
  <unicode hex="006D"/>
  <outline>
    <contour>
      <point x="286" y="0" type="line" name="mh01"/>
      <point x="-28" y="0" type="line" name="mh02"/>
      <point x="165" y="1100" type="line"/>
      <point x="483" y="1120" type="line" name="at01"/>
      <point x="462" y="1000" type="line"/>
      <point x="557" y="1100" type="line"/>
      <point x="562" y="1103"/>
      <point x="582" y="1109"/>
      <point x="606" y="1114"/>
      <point x="631" y="1117"/>
      <point x="640" y="1117" type="qcurve" name="at02"/>
      <point x="688" y="1117"/>
      <point x="756" y="1110"/>
      <point x="805" y="1092"/>
      <point x="839" y="1062"/>
      <point x="854" y="1039" type="qcurve"/>
      <point x="876" y="1052"/>
      <point x="933" y="1079"/>
      <point x="996" y="1102"/>
      <point x="1062" y="1117"/>
      <point x="1093" y="1117" type="qcurve" name="at03"/>
      <point x="1190" y="1117"/>
      <point x="1293" y="1063"/>
      <point x="1333" y="964"/>
      <point x="1324" y="823"/>
      <point x="1308" y="736" type="qcurve"/>
      <point x="1179" y="0" type="line" name="mh03"/>
      <point x="864" y="0" type="line" name="mh04"/>
      <point x="992" y="727" type="line"/>
      <point x="999" y="768"/>
      <point x="1008" y="827"/>
      <point x="1006" y="866"/>
      <point x="990" y="885"/>
      <point x="972" y="885" type="qcurve"/>
      <point x="955" y="885"/>
      <point x="922" y="871"/>
      <point x="892" y="847"/>
      <point x="870" y="816"/>
      <point x="864" y="798" type="qcurve"/>
      <point x="863" y="791"/>
      <point x="860" y="766"/>
      <point x="855" y="741"/>
      <point x="852" y="719"/>
      <point x="851" y="715" type="qcurve"/>
      <point x="725" y="0" type="line" name="mh05"/>
      <point x="421" y="0" type="line" name="mh06"/>
      <point x="546" y="708" type="line"/>
      <point x="553" y="750"/>
      <point x="561" y="816"/>
      <point x="559" y="861"/>
      <point x="545" y="885"/>
      <point x="529" y="885" type="qcurve"/>
      <point x="500" y="885"/>
      <point x="444" y="847"/>
      <point x="427" y="804" type="qcurve"/>
    </contour>
  </outline>
</glyph>
<glyph name="n" format="2">
  <advance width="1300"/>
  <unicode hex="006E"/>
  <outline>
    <contour>
      <point x="412" y="0" type="line" name="hr00"/>
      <point x="95" y="0" type="line" name="ab01"/>
      <point x="289" y="1100" type="line"/>
      <point x="609" y="1120" type="line" name="at01"/>
      <point x="588" y="1000" type="line"/>
      <point x="683" y="1100" type="line"/>
      <point x="722" y="1110"/>
      <point x="811" y="1117"/>
      <point x="869" y="1117" type="qcurve" name="at02"/>
      <point x="960" y="1117"/>
      <point x="1096" y="1063"/>
      <point x="1180" y="964"/>
      <point x="1209" y="823"/>
      <point x="1193" y="736" type="qcurve"/>
      <point x="1064" y="0" type="line" name="sv01"/>
      <point x="747" y="0" type="line"/>
      <point x="876" y="736" type="line"/>
      <point x="883" y="777"/>
      <point x="870" y="836"/>
      <point x="836" y="874"/>
      <point x="787" y="892"/>
      <point x="759" y="892" type="qcurve"/>
      <point x="696" y="892"/>
      <point x="601" y="851"/>
      <point x="554" y="808" type="qcurve"/>
    </contour>
  </outline>
</glyph>
<glyph name="o" format="2">
  <advance width="1300"/>
  <unicode hex="006F"/>
  <outline>
    <contour>
      <point x="556" y="-17" type="qcurve" name="ab01"/>
      <point x="436" y="-17"/>
      <point x="251" y="70"/>
      <point x="134" y="223"/>
      <point x="90" y="431"/>
      <point x="111" y="553" type="qcurve"/>
      <point x="132" y="674"/>
      <point x="247" y="881"/>
      <point x="417" y="1032"/>
      <point x="634" y="1117"/>
      <point x="757" y="1117" type="qcurve" name="at01"/>
      <point x="877" y="1117"/>
      <point x="1060" y="1032"/>
      <point x="1174" y="881"/>
      <point x="1215" y="674"/>
      <point x="1194" y="553" type="qcurve"/>
      <point x="1173" y="431"/>
      <point x="1061" y="223"/>
      <point x="894" y="70"/>
      <point x="680" y="-17"/>
    </contour>
    <contour>
      <point x="863" y="528" type="qcurve"/>
      <point x="875" y="596"/>
      <point x="875" y="728"/>
      <point x="842" y="833"/>
      <point x="771" y="897"/>
      <point x="713" y="897" type="qcurve"/>
      <point x="657" y="897"/>
      <point x="567" y="842"/>
      <point x="498" y="750"/>
      <point x="452" y="633"/>
      <point x="441" y="571" type="qcurve"/>
      <point x="429" y="502"/>
      <point x="431" y="370"/>
      <point x="467" y="267"/>
      <point x="540" y="203"/>
      <point x="599" y="203" type="qcurve"/>
      <point x="653" y="203"/>
      <point x="741" y="258"/>
      <point x="808" y="350"/>
      <point x="852" y="466"/>
    </contour>
  </outline>
</glyph>
<glyph name="p" format="2">
  <advance width="1300"/>
  <unicode hex="0070"/>
  <outline>
    <contour>
      <point x="486" y="200" type="line" name="hr00"/>
      <point x="564" y="200" type="line"/>
      <point x="631" y="200"/>
      <point x="760" y="259"/>
      <point x="867" y="361"/>
      <point x="942" y="498"/>
      <point x="956" y="576" type="qcurve"/>
      <point x="971" y="657"/>
      <point x="959" y="779"/>
      <point x="914" y="860"/>
      <point x="842" y="900"/>
      <point x="797" y="900" type="qcurve"/>
      <point x="770" y="900"/>
      <point x="714" y="884"/>
      <point x="661" y="859"/>
      <point x="613" y="827"/>
      <point x="594" y="811" type="qcurve"/>
    </contour>
    <contour>
      <point x="37" y="-500" type="line" name="ab01"/>
      <point x="319" y="1100" type="line"/>
      <point x="648" y="1120" type="line" name="at02"/>
      <point x="617" y="944" type="line"/>
      <point x="771" y="1110" type="line"/>
      <point x="792" y="1113"/>
      <point x="838" y="1117"/>
      <point x="862" y="1117" type="qcurve" name="at01"/>
      <point x="955" y="1117"/>
      <point x="1117" y="1039"/>
      <point x="1228" y="894"/>
      <point x="1274" y="690"/>
      <point x="1252" y="564" type="qcurve"/>
      <point x="1231" y="441"/>
      <point x="1097" y="234"/>
      <point x="899" y="84"/>
      <point x="649" y="0"/>
      <point x="512" y="0" type="qcurve" name="sv01"/>
      <point x="451" y="0" type="line" name="ab02"/>
      <point x="363" y="-500" type="line" name="sv02"/>
    </contour>
  </outline>
</glyph>
<glyph name="q" format="2">
  <advance width="1300"/>
  <unicode hex="0071"/>
  <outline>
    <contour>
      <point x="861" y="891" type="line" name="hr00"/>
      <point x="832" y="895"/>
      <point x="776" y="900"/>
      <point x="738" y="900" type="qcurve"/>
      <point x="696" y="900"/>
      <point x="620" y="868"/>
      <point x="554" y="814"/>
      <point x="498" y="741"/>
      <point x="454" y="658"/>
      <point x="424" y="569"/>
      <point x="416" y="526" type="qcurve"/>
      <point x="401" y="442"/>
      <point x="416" y="320"/>
      <point x="460" y="239"/>
      <point x="529" y="200"/>
      <point x="568" y="200" type="qcurve"/>
      <point x="604" y="200"/>
      <point x="658" y="211"/>
      <point x="700" y="232"/>
      <point x="735" y="260"/>
      <point x="753" y="278" type="qcurve"/>
    </contour>
    <contour>
      <point x="728" y="136" type="line"/>
      <point x="586" y="-8" type="line"/>
      <point x="536" y="-17"/>
      <point x="492" y="-17" type="qcurve" name="ab02"/>
      <point x="400" y="-17"/>
      <point x="236" y="58"/>
      <point x="122" y="198"/>
      <point x="72" y="400"/>
      <point x="95" y="526" type="qcurve"/>
      <point x="119" y="663"/>
      <point x="250" y="882"/>
      <point x="435" y="1035"/>
      <point x="661" y="1117"/>
      <point x="780" y="1117" type="qcurve" name="at01"/>
      <point x="844" y="1117"/>
      <point x="977" y="1099"/>
      <point x="1095" y="1074"/>
      <point x="1189" y="1047"/>
      <point x="1213" y="1038" type="qcurve"/>
      <point x="942" y="-500" type="line" name="sv01"/>
      <point x="616" y="-500" type="line" name="ab01"/>
    </contour>
  </outline>
</glyph>
<glyph name="r" format="2">
  <advance width="1300"/>
  <unicode hex="0072"/>
  <outline>
    <contour>
      <point x="559" y="1000" type="line" name="hr00"/>
      <point x="654" y="1100" type="line"/>
      <point x="710" y="1115"/>
      <point x="812" y="1117"/>
      <point x="859" y="1117" type="qcurve" name="at02"/>
      <point x="940" y="1117"/>
      <point x="1057" y="1099"/>
      <point x="1139" y="1072"/>
      <point x="1190" y="1043"/>
      <point x="1205" y="1032" type="qcurve"/>
      <point x="1205" y="735" type="line"/>
      <point x="916" y="700" type="line"/>
      <point x="898" y="876" type="line"/>
      <point x="879" y="879"/>
      <point x="840" y="885"/>
      <point x="820" y="885" type="qcurve"/>
      <point x="724" y="885"/>
      <point x="572" y="814"/>
      <point x="515" y="750" type="qcurve"/>
      <point x="383" y="0" type="line" name="sv01"/>
      <point x="66" y="0" type="line" name="ab01"/>
      <point x="260" y="1100" type="line"/>
      <point x="580" y="1120" type="line" name="at01"/>
    </contour>
  </outline>
</glyph>
<glyph name="s" format="2">
  <advance width="1300"/>
  <unicode hex="0073"/>
  <outline>
    <contour>
      <point x="1089" y="822" type="line" name="hr00"/>
      <point x="1064" y="840"/>
      <point x="998" y="868"/>
      <point x="924" y="887"/>
      <point x="844" y="898"/>
      <point x="805" y="898" type="qcurve"/>
      <point x="749" y="898"/>
      <point x="653" y="890"/>
      <point x="582" y="869"/>
      <point x="537" y="832"/>
      <point x="532" y="804" type="qcurve"/>
      <point x="527" y="778"/>
      <point x="575" y="741"/>
      <point x="652" y="713"/>
      <point x="746" y="693"/>
      <point x="788" y="684" type="qcurve"/>
      <point x="854" y="669"/>
      <point x="991" y="613"/>
      <point x="1098" y="528"/>
      <point x="1155" y="411"/>
      <point x="1142" y="335" type="qcurve"/>
      <point x="1124" y="235"/>
      <point x="1011" y="100"/>
      <point x="838" y="18"/>
      <point x="616" y="-17"/>
      <point x="490" y="-17" type="qcurve" name="ab01"/>
      <point x="430" y="-17"/>
      <point x="315" y="0"/>
      <point x="212" y="30"/>
      <point x="126" y="71"/>
      <point x="96" y="95" type="qcurve"/>
      <point x="231" y="305" type="line"/>
      <point x="292" y="263"/>
      <point x="439" y="208"/>
      <point x="531" y="208" type="qcurve"/>
      <point x="553" y="208"/>
      <point x="615" y="212"/>
      <point x="683" y="222"/>
      <point x="751" y="241"/>
      <point x="807" y="271"/>
      <point x="846" y="314"/>
      <point x="851" y="344" type="qcurve"/>
      <point x="856" y="371"/>
      <point x="814" y="413"/>
      <point x="745" y="444"/>
      <point x="660" y="467"/>
      <point x="622" y="475" type="qcurve"/>
      <point x="540" y="493"/>
      <point x="396" y="553"/>
      <point x="292" y="640"/>
      <point x="242" y="756"/>
      <point x="255" y="832" type="qcurve"/>
      <point x="268" y="908"/>
      <point x="368" y="1016"/>
      <point x="522" y="1085"/>
      <point x="722" y="1117"/>
      <point x="837" y="1117" type="qcurve" name="at01"/>
      <point x="893" y="1117"/>
      <point x="1003" y="1100"/>
      <point x="1100" y="1073"/>
      <point x="1179" y="1039"/>
      <point x="1203" y="1022" type="qcurve"/>
    </contour>
  </outline>
</glyph>
<glyph name="t" format="2">
  <advance width="1300"/>
  <unicode hex="0074"/>
  <outline>
    <contour>
      <point x="602" y="388" type="line" name="hr00"/>
      <point x="593" y="337"/>
      <point x="593" y="270"/>
      <point x="610" y="230"/>
      <point x="641" y="214"/>
      <point x="663" y="214" type="qcurve"/>
      <point x="717" y="214"/>
      <point x="801" y="234"/>
      <point x="867" y="264"/>
      <point x="918" y="300"/>
      <point x="939" y="316" type="qcurve"/>
      <point x="1011" y="135" type="line"/>
      <point x="996" y="124"/>
      <point x="922" y="74"/>
      <point x="805" y="22"/>
      <point x="645" y="-17"/>
      <point x="545" y="-17" type="qcurve" name="ab01"/>
      <point x="437" y="-17"/>
      <point x="318" y="51"/>
      <point x="269" y="167"/>
      <point x="275" y="323"/>
      <point x="290" y="410" type="qcurve"/>
      <point x="372" y="876" type="line"/>
      <point x="130" y="876" type="line"/>
      <point x="170" y="1100" type="line" name="at01"/>
      <point x="412" y="1100" type="line"/>
      <point x="449" y="1310" type="line"/>
      <point x="780" y="1420" type="line" name="av01"/>
      <point x="724" y="1100" type="line"/>
      <point x="1183" y="1100" type="line" name="sv01"/>
      <point x="1116" y="876" type="line"/>
      <point x="688" y="876" type="line"/>
    </contour>
  </outline>
</glyph>
<glyph name="u" format="2">
  <advance width="1300"/>
  <unicode hex="0075"/>
  <outline>
    <contour>
      <point x="892" y="1100" type="line" name="sv01"/>
      <point x="1213" y="1120" type="line" name="at03"/>
      <point x="1015" y="0" type="line" name="sv02"/>
      <point x="698" y="0" type="line" name="ab01"/>
      <point x="716" y="100" type="line"/>
      <point x="617" y="0" type="line"/>
      <point x="588" y="-8"/>
      <point x="527" y="-17"/>
      <point x="493" y="-17" type="qcurve" name="ab02"/>
      <point x="359" y="-17"/>
      <point x="192" y="59"/>
      <point x="106" y="186"/>
      <point x="89" y="350"/>
      <point x="104" y="438" type="qcurve"/>
      <point x="221" y="1100" type="line" name="at01"/>
      <point x="541" y="1120" type="line" name="at02"/>
      <point x="420" y="438" type="line"/>
      <point x="411" y="386"/>
      <point x="414" y="303"/>
      <point x="445" y="244"/>
      <point x="509" y="213"/>
      <point x="560" y="213" type="qcurve"/>
      <point x="593" y="213"/>
      <point x="653" y="233"/>
      <point x="702" y="265"/>
      <point x="741" y="301"/>
      <point x="754" y="318" type="qcurve"/>
    </contour>
  </outline>
</glyph>
<glyph name="v" format="2">
  <advance width="1300"/>
  <unicode hex="0076"/>
  <guideline x="0" y="381" angle="0"/>
  <outline>
    <contour>
      <point x="509" y="700" type="line" name="hr00"/>
      <point x="512" y="300" type="line"/>
      <point x="655" y="700" type="line"/>
      <point x="856" y="1100" type="line" name="sv01"/>
      <point x="1173" y="1120" type="line" name="at02"/>
      <point x="599" y="-17" type="line" name="ab01"/>
      <point x="286" y="0" type="line"/>
      <point x="129" y="1100" type="line" name="at03"/>
      <point x="447" y="1120" type="line" name="at01"/>
    </contour>
  </outline>
</glyph>
<glyph name="w" format="2">
  <advance width="1300"/>
  <unicode hex="0077"/>
  <guideline x="0" y="540" angle="0"/>
  <guideline x="0" y="640" angle="0"/>
  <guideline x="467" y="0" angle="90"/>
  <guideline x="1040" y="0" angle="90"/>
  <guideline x="743" y="0" angle="90"/>
  <outline>
    <contour>
      <point x="766" y="600" type="line" name="hr00"/>
      <point x="766" y="300" type="line"/>
      <point x="776" y="300" type="line"/>
      <point x="833" y="700" type="line"/>
      <point x="977" y="1100" type="line" name="sv01"/>
      <point x="1273" y="1120" type="line" name="at03"/>
      <point x="857" y="0" type="line" name="sv02"/>
      <point x="591" y="0" type="line"/>
      <point x="562" y="400" type="line"/>
      <point x="582" y="600" type="line"/>
      <point x="530" y="400" type="line"/>
      <point x="364" y="0" type="line"/>
      <point x="79" y="0" type="line" name="ab01"/>
      <point x="79" y="1100" type="line" name="at01"/>
      <point x="370" y="1120" type="line" name="at02"/>
      <point x="368" y="700" type="line"/>
      <point x="285" y="300" type="line"/>
      <point x="295" y="300" type="line"/>
      <point x="400" y="600" type="line"/>
      <point x="517" y="900" type="line" name="av01"/>
      <point x="752" y="900" type="line" name="sv03"/>
    </contour>
  </outline>
</glyph>
<glyph name="x" format="2">
  <advance width="1300"/>
  <unicode hex="0078"/>
  <outline>
    <contour>
      <point x="677" y="272" type="line" name="hr00"/>
      <point x="646" y="474" type="line"/>
      <point x="553" y="272" type="line"/>
      <point x="337" y="0" type="line"/>
      <point x="-1" y="0" type="line" name="ab01"/>
      <point x="502" y="585" type="line"/>
      <point x="237" y="1100" type="line" name="at02"/>
      <point x="582" y="1120" type="line" name="at01"/>
      <point x="684" y="900" type="line"/>
      <point x="711" y="700" type="line"/>
      <point x="806" y="900" type="line"/>
      <point x="971" y="1100" type="line" name="sv01"/>
      <point x="1329" y="1120" type="line" name="at03"/>
      <point x="865" y="581" type="line"/>
      <point x="1171" y="0" type="line" name="sv02"/>
      <point x="810" y="0" type="line"/>
    </contour>
  </outline>
</glyph>
<glyph name="y" format="2">
  <advance width="1300"/>
  <unicode hex="0079"/>
  <guideline x="550" y="0" angle="90"/>
  <outline>
    <contour>
      <point x="592" y="670" type="line" name="hr00"/>
      <point x="596" y="200" type="line"/>
      <point x="738" y="670" type="line"/>
      <point x="977" y="1100" type="line" name="sv01"/>
      <point x="1310" y="1120" type="line" name="at03"/>
      <point x="706" y="8" type="line"/>
      <point x="661" y="-75"/>
      <point x="565" y="-248"/>
      <point x="447" y="-390"/>
      <point x="298" y="-480"/>
      <point x="201" y="-480" type="qcurve" name="av01"/>
      <point x="134" y="-480"/>
      <point x="23" y="-424"/>
      <point x="-26" y="-374" type="qcurve"/>
      <point x="129" y="-194" type="line"/>
      <point x="149" y="-209"/>
      <point x="197" y="-234"/>
      <point x="224" y="-234" type="qcurve"/>
      <point x="268" y="-234"/>
      <point x="353" y="-135"/>
      <point x="406" y="-47" type="qcurve"/>
      <point x="189" y="1100" type="line" name="at01"/>
      <point x="508" y="1120" type="line" name="at02"/>
    </contour>
  </outline>
</glyph>
<glyph name="z" format="2">
  <advance width="1300"/>
  <unicode hex="007A"/>
  <outline>
    <contour>
      <point x="683" y="200" type="line" name="hr00"/>
      <point x="1056" y="200" type="line"/>
      <point x="1048" y="0" type="line" name="sv01"/>
      <point x="145" y="0" type="line" name="ab01"/>
      <point x="127" y="85" type="line"/>
      <point x="645" y="757" type="line"/>
      <point x="886" y="925" type="line"/>
      <point x="630" y="900" type="line"/>
      <point x="356" y="900" type="line"/>
      <point x="364" y="1100" type="line" name="at01"/>
      <point x="1160" y="1100" type="line" name="sv02"/>
      <point x="1178" y="1017" type="line"/>
      <point x="663" y="339" type="line"/>
      <point x="427" y="175" type="line"/>
    </contour>
  </outline>
</glyph>
<glyph name="braceleft" format="2">
  <advance width="1300"/>
  <unicode hex="007B"/>
  <guideline x="0" y="550" angle="0"/>
  <guideline x="0" y="475" angle="0"/>
  <outline>
    <contour>
      <point x="1078" y="1260" type="line" name="hr00"/>
      <point x="1048" y="1280"/>
      <point x="965" y="1305"/>
      <point x="930" y="1305" type="qcurve"/>
      <point x="900" y="1303"/>
      <point x="859" y="1274"/>
      <point x="831" y="1222"/>
      <point x="812" y="1147"/>
      <point x="804" y="1099" type="qcurve"/>
      <point x="762" y="864" type="line"/>
      <point x="752" y="808"/>
      <point x="704" y="710"/>
      <point x="642" y="631"/>
      <point x="573" y="570"/>
      <point x="543" y="550" type="qcurve" name="iv01"/>
      <point x="567" y="530"/>
      <point x="614" y="470"/>
      <point x="648" y="390"/>
      <point x="662" y="293"/>
      <point x="652" y="238" type="qcurve" name="mh01"/>
      <point x="609" y="-2" type="line"/>
      <point x="601" y="-50"/>
      <point x="593" y="-126"/>
      <point x="602" y="-180"/>
      <point x="633" y="-208"/>
      <point x="663" y="-208" type="qcurve"/>
      <point x="698" y="-208"/>
      <point x="789" y="-183"/>
      <point x="827" y="-163" type="qcurve"/>
      <point x="890" y="-348" type="line"/>
      <point x="855" y="-363"/>
      <point x="789" y="-390"/>
      <point x="718" y="-409"/>
      <point x="635" y="-420"/>
      <point x="583" y="-420" type="qcurve" name="av01"/>
      <point x="470" y="-420"/>
      <point x="331" y="-356"/>
      <point x="262" y="-244"/>
      <point x="252" y="-91"/>
      <point x="267" y="-2" type="qcurve"/>
      <point x="310" y="238" type="line"/>
      <point x="326" y="327"/>
      <point x="313" y="432"/>
      <point x="269" y="442" type="qcurve"/>
      <point x="134" y="462" type="line"/>
      <point x="166" y="640" type="line"/>
      <point x="307" y="660" type="line"/>
      <point x="355" y="671"/>
      <point x="405" y="776"/>
      <point x="420" y="864" type="qcurve"/>
      <point x="462" y="1099" type="line"/>
      <point x="478" y="1188"/>
      <point x="541" y="1341"/>
      <point x="651" y="1453"/>
      <point x="812" y="1517"/>
      <point x="925" y="1517" type="qcurve" name="at01"/>
      <point x="977" y="1517"/>
      <point x="1056" y="1506"/>
      <point x="1120" y="1487"/>
      <point x="1177" y="1461"/>
      <point x="1207" y="1445" type="qcurve"/>
    </contour>
  </outline>
</glyph>
<glyph name="bar" format="2">
  <advance width="1300"/>
  <unicode hex="007C"/>
  <outline>
    <contour>
      <point x="983" y="1520" type="line" name="at01"/>
      <point x="648" y="-380" type="line" name="sv01"/>
      <point x="316" y="-380" type="line" name="av01"/>
      <point x="647" y="1500" type="line"/>
    </contour>
  </outline>
</glyph>
<glyph name="exclamdown" format="2">
  <advance width="1300"/>
  <unicode hex="00A1"/>
  <outline>
    <contour>
      <point x="227" y="-400" type="line" name="av01"/>
      <point x="413" y="656" type="line"/>
      <point x="719" y="691" type="line" name="av02"/>
      <point x="527" y="-400" type="line" name="sv01"/>
    </contour>
    <contour>
      <point x="779" y="951" type="qcurve"/>
      <point x="773" y="917"/>
      <point x="738" y="858"/>
      <point x="685" y="813"/>
      <point x="621" y="787"/>
      <point x="587" y="787" type="qcurve" name="av03"/>
      <point x="553" y="787"/>
      <point x="499" y="813"/>
      <point x="462" y="858"/>
      <point x="447" y="917"/>
      <point x="453" y="951" type="qcurve"/>
      <point x="459" y="984"/>
      <point x="495" y="1045"/>
      <point x="546" y="1090"/>
      <point x="610" y="1117"/>
      <point x="644" y="1117" type="qcurve" name="at01"/>
      <point x="677" y="1117"/>
      <point x="733" y="1090"/>
      <point x="771" y="1045"/>
      <point x="785" y="984"/>
    </contour>
  </outline>
</glyph>
<glyph name="cent" format="2">
  <advance width="1300"/>
  <unicode hex="00A2"/>
  <outline>
    <contour>
      <point x="981" y="814" type="line" name="hr00"/>
      <point x="961" y="837"/>
      <point x="922" y="867"/>
      <point x="904" y="877" type="qcurve" name="sh01"/>
      <point x="788" y="223" type="line" name="sh02"/>
      <point x="823" y="236"/>
      <point x="891" y="269"/>
      <point x="922" y="288" type="qcurve"/>
      <point x="1000" y="93" type="line"/>
      <point x="942" y="58"/>
      <point x="817" y="7"/>
      <point x="748" y="-5" type="qcurve"/>
      <point x="716" y="-190" type="line" name="sv01"/>
      <point x="426" y="-190" type="line" name="av02"/>
      <point x="460" y="6" type="line"/>
      <point x="372" y="34"/>
      <point x="252" y="147"/>
      <point x="185" y="298"/>
      <point x="170" y="479"/>
      <point x="187" y="575" type="qcurve" name="ah01"/>
      <point x="202" y="662"/>
      <point x="276" y="827"/>
      <point x="393" y="966"/>
      <point x="552" y="1069"/>
      <point x="652" y="1095" type="qcurve"/>
      <point x="689" y="1302" type="line"/>
      <point x="985" y="1340" type="line" name="av01"/>
      <point x="944" y="1105" type="line"/>
      <point x="1008" y="1090"/>
      <point x="1113" y="1021"/>
      <point x="1158" y="961" type="qcurve"/>
    </contour>
    <contour>
      <point x="468" y="563" type="qcurve" name="sh03"/>
      <point x="446" y="436"/>
      <point x="488" y="271"/>
      <point x="548" y="232" type="qcurve" name="ah03"/>
      <point x="661" y="873" type="line" name="ah02"/>
      <point x="590" y="840"/>
      <point x="491" y="690"/>
    </contour>
  </outline>
</glyph>
<glyph name="sterling" format="2">
  <advance width="1300"/>
  <unicode hex="00A3"/>
  <outline>
    <contour>
      <point x="683" y="216" type="line" name="ih03"/>
      <point x="1004" y="216" type="line" name="sv02"/>
      <point x="966" y="0" type="line" name="sv01"/>
      <point x="17" y="0" type="line" name="ab01"/>
      <point x="84" y="216" type="line" name="ih02"/>
      <point x="217" y="216" type="line"/>
      <point x="219" y="218"/>
      <point x="227" y="231"/>
      <point x="236" y="249" type="qcurve"/>
      <point x="249" y="277"/>
      <point x="326" y="479"/>
      <point x="386" y="665" type="qcurve"/>
      <point x="258" y="665" type="line"/>
      <point x="296" y="883" type="line" name="av01"/>
      <point x="455" y="883" type="line"/>
      <point x="541" y="1150" type="line"/>
      <point x="566" y="1229"/>
      <point x="640" y="1364"/>
      <point x="746" y="1462"/>
      <point x="887" y="1517"/>
      <point x="980" y="1517" type="qcurve" name="at01"/>
      <point x="1034" y="1517"/>
      <point x="1117" y="1504"/>
      <point x="1186" y="1475"/>
      <point x="1247" y="1428"/>
      <point x="1279" y="1395" type="qcurve"/>
      <point x="1119" y="1228" type="line"/>
      <point x="1077" y="1273"/>
      <point x="1017" y="1303"/>
      <point x="987" y="1303" type="qcurve"/>
      <point x="964" y="1303"/>
      <point x="926" y="1276"/>
      <point x="895" y="1227"/>
      <point x="867" y="1158"/>
      <point x="854" y="1116" type="qcurve"/>
      <point x="779" y="883" type="line"/>
      <point x="974" y="883" type="line" name="sv03"/>
      <point x="909" y="665" type="line" name="sv04"/>
      <point x="711" y="665" type="line"/>
      <point x="692" y="601"/>
      <point x="664" y="511"/>
      <point x="640" y="438"/>
      <point x="614" y="371"/>
      <point x="597" y="331" type="qcurve"/>
      <point x="424" y="157" type="line" name="ih01"/>
    </contour>
  </outline>
</glyph>
<glyph name="yen" format="2">
  <advance width="1300"/>
  <unicode hex="00A5"/>
  <outline>
    <contour>
      <point x="39" y="589" type="line" name="av02"/>
      <point x="348" y="589" type="line" name="mv01"/>
      <point x="359" y="650" type="line"/>
      <point x="341" y="700" type="line" name="mh01"/>
      <point x="58" y="700" type="line" name="mh02"/>
      <point x="92" y="889" type="line" name="av01"/>
      <point x="279" y="889" type="line" name="mv02"/>
      <point x="78" y="1500" type="line" name="ih02"/>
      <point x="423" y="1520" type="line" name="at02"/>
      <point x="548" y="1143" type="line"/>
      <point x="589" y="773" type="line" name="ih01"/>
      <point x="713" y="1143" type="line"/>
      <point x="958" y="1500" type="line" name="at01"/>
      <point x="1293" y="1500" type="line" name="ih03"/>
      <point x="874" y="889" type="line"/>
      <point x="1092" y="889" type="line" name="sv01"/>
      <point x="1058" y="700" type="line" name="sv02"/>
      <point x="743" y="700" type="line"/>
      <point x="710" y="650" type="line"/>
      <point x="699" y="589" type="line"/>
      <point x="1039" y="589" type="line" name="sv03"/>
      <point x="1006" y="400" type="line" name="sv04"/>
      <point x="666" y="400" type="line"/>
      <point x="595" y="0" type="line" name="sv05"/>
      <point x="244" y="0" type="line" name="ab01"/>
      <point x="315" y="400" type="line"/>
      <point x="6" y="400" type="line" name="sv06"/>
    </contour>
  </outline>
</glyph>
<glyph name="section" format="2">
  <advance width="1300"/>
  <unicode hex="00A7"/>
  <guideline x="850" y="0" angle="90"/>
  <outline>
    <contour>
      <point x="1059" y="1249" type="line" name="hr00"/>
      <point x="1021" y="1272"/>
      <point x="959" y="1299"/>
      <point x="907" y="1314"/>
      <point x="861" y="1318"/>
      <point x="840" y="1318" type="qcurve" name="iv03"/>
      <point x="809" y="1318"/>
      <point x="750" y="1303"/>
      <point x="702" y="1269"/>
      <point x="667" y="1214"/>
      <point x="660" y="1174" type="qcurve"/>
      <point x="653" y="1135"/>
      <point x="673" y="1075"/>
      <point x="716" y="1025"/>
      <point x="775" y="980"/>
      <point x="807" y="958" type="qcurve" name="iv01"/>
      <point x="860" y="921"/>
      <point x="966" y="839"/>
      <point x="1045" y="737"/>
      <point x="1084" y="610"/>
      <point x="1069" y="527" type="qcurve"/>
      <point x="1060" y="479"/>
      <point x="1015" y="388"/>
      <point x="950" y="312"/>
      <point x="869" y="252"/>
      <point x="825" y="234" type="qcurve" name="iv04"/>
      <point x="857" y="205"/>
      <point x="909" y="141"/>
      <point x="943" y="71"/>
      <point x="956" y="-5"/>
      <point x="949" y="-46" type="qcurve"/>
      <point x="934" y="-128"/>
      <point x="850" y="-259"/>
      <point x="716" y="-351"/>
      <point x="539" y="-400"/>
      <point x="431" y="-400" type="qcurve" name="av01"/>
      <point x="384" y="-400"/>
      <point x="298" y="-390"/>
      <point x="216" y="-366"/>
      <point x="136" y="-328"/>
      <point x="95" y="-299" type="qcurve"/>
      <point x="231" y="-129" type="line"/>
      <point x="269" y="-152"/>
      <point x="331" y="-180"/>
      <point x="384" y="-195"/>
      <point x="429" y="-200"/>
      <point x="450" y="-200" type="qcurve" name="iv05"/>
      <point x="481" y="-200"/>
      <point x="540" y="-184"/>
      <point x="588" y="-149"/>
      <point x="622" y="-93"/>
      <point x="629" y="-54" type="qcurve"/>
      <point x="636" y="-15"/>
      <point x="617" y="45"/>
      <point x="575" y="96"/>
      <point x="516" y="140"/>
      <point x="484" y="163" type="qcurve" name="iv06"/>
      <point x="431" y="200"/>
      <point x="325" y="281"/>
      <point x="246" y="383"/>
      <point x="207" y="510"/>
      <point x="222" y="593" type="qcurve"/>
      <point x="231" y="645"/>
      <point x="276" y="733"/>
      <point x="340" y="805"/>
      <point x="420" y="862"/>
      <point x="464" y="885" type="qcurve" name="iv08"/>
      <point x="432" y="915"/>
      <point x="381" y="979"/>
      <point x="347" y="1049"/>
      <point x="334" y="1125"/>
      <point x="342" y="1166" type="qcurve"/>
      <point x="356" y="1248"/>
      <point x="440" y="1378"/>
      <point x="573" y="1469"/>
      <point x="751" y="1517"/>
      <point x="859" y="1517" type="qcurve" name="at01"/>
      <point x="951" y="1517"/>
      <point x="1113" y="1476"/>
      <point x="1194" y="1419" type="qcurve"/>
    </contour>
    <contour>
      <point x="631" y="747" type="line" name="iv02"/>
      <point x="617" y="737" type="line"/>
      <point x="605" y="728"/>
      <point x="576" y="701"/>
      <point x="550" y="666"/>
      <point x="529" y="622"/>
      <point x="525" y="595" type="qcurve"/>
      <point x="519" y="561"/>
      <point x="535" y="503"/>
      <point x="570" y="452"/>
      <point x="616" y="407"/>
      <point x="640" y="387" type="qcurve"/>
      <point x="660" y="372" type="line" name="iv07"/>
      <point x="674" y="383" type="line"/>
      <point x="699" y="401"/>
      <point x="756" y="472"/>
      <point x="766" y="525" type="qcurve"/>
      <point x="772" y="558"/>
      <point x="755" y="616"/>
      <point x="721" y="667"/>
      <point x="675" y="711"/>
      <point x="651" y="731" type="qcurve"/>
    </contour>
  </outline>
</glyph>
<glyph name="dieresis" format="2">
  <advance width="1300"/>
  <unicode hex="00A8"/>
  <outline>
    <contour>
      <point x="485" y="1566" type="line" name="av01"/>
      <point x="761" y="1566" type="line" name="mh01"/>
      <point x="714" y="1300" type="line" name="sv01"/>
      <point x="438" y="1300" type="line"/>
    </contour>
    <contour>
      <point x="885" y="1566" type="line" name="av02"/>
      <point x="1161" y="1566" type="line" name="mh02"/>
      <point x="1114" y="1300" type="line" name="sv02"/>
      <point x="838" y="1300" type="line" name="mh03"/>
    </contour>
  </outline>
</glyph>
<glyph name="ordfeminine" format="2">
  <advance width="1300"/>
  <unicode hex="00AA"/>
  <outline>
    <contour>
      <point x="189" y="810" type="line" name="hr00"/>
      <point x="631" y="810" type="line"/>
      <point x="610" y="690" type="line"/>
      <point x="168" y="690" type="line"/>
    </contour>
    <contour>
      <point x="565" y="1401" type="line"/>
      <point x="555" y="1403"/>
      <point x="538" y="1405"/>
      <point x="534" y="1405" type="qcurve"/>
      <point x="497" y="1405"/>
      <point x="439" y="1374"/>
      <point x="398" y="1322"/>
      <point x="374" y="1253"/>
      <point x="370" y="1214" type="qcurve"/>
      <point x="367" y="1183"/>
      <point x="369" y="1129"/>
      <point x="380" y="1087"/>
      <point x="401" y="1063"/>
      <point x="415" y="1063" type="qcurve"/>
      <point x="432" y="1063"/>
      <point x="463" y="1075"/>
      <point x="489" y="1093"/>
      <point x="510" y="1114"/>
      <point x="517" y="1123" type="qcurve"/>
    </contour>
    <contour>
      <point x="387" y="951" type="qcurve"/>
      <point x="348" y="951"/>
      <point x="291" y="975"/>
      <point x="251" y="1015"/>
      <point x="226" y="1068"/>
      <point x="215" y="1130"/>
      <point x="214" y="1197"/>
      <point x="219" y="1230" type="qcurve"/>
      <point x="223" y="1266"/>
      <point x="247" y="1337"/>
      <point x="287" y="1401"/>
      <point x="341" y="1455"/>
      <point x="412" y="1495"/>
      <point x="499" y="1517"/>
      <point x="551" y="1517" type="qcurve"/>
      <point x="582" y="1517"/>
      <point x="613" y="1513" type="qcurve"/>
      <point x="640" y="1509"/>
      <point x="703" y="1494"/>
      <point x="732" y="1480" type="qcurve"/>
      <point x="660" y="1063" type="line"/>
      <point x="653" y="959" type="line"/>
      <point x="492" y="959" type="line"/>
      <point x="506" y="1040" type="line"/>
      <point x="429" y="954" type="line"/>
      <point x="423" y="953"/>
      <point x="405" y="950"/>
    </contour>
  </outline>
</glyph>
<glyph name="guillemotleft" format="2">
  <advance width="1300"/>
  <unicode hex="00AB"/>
  <outline>
    <contour>
      <point x="710" y="1106" type="line" name="at01"/>
      <point x="759" y="880" type="line"/>
      <point x="376" y="583" type="line"/>
      <point x="294" y="550" type="line" name="iv01"/>
      <point x="363" y="517" type="line"/>
      <point x="646" y="224" type="line"/>
      <point x="510" y="-13" type="line" name="ab01"/>
      <point x="41" y="476" type="line"/>
      <point x="66" y="620" type="line"/>
    </contour>
    <contour>
      <point x="1210" y="1106" type="line" name="at02"/>
      <point x="1259" y="880" type="line"/>
      <point x="876" y="583" type="line"/>
      <point x="794" y="550" type="line" name="iv02"/>
      <point x="863" y="517" type="line"/>
      <point x="1146" y="224" type="line"/>
      <point x="1010" y="-13" type="line" name="ab02"/>
      <point x="541" y="476" type="line"/>
      <point x="566" y="620" type="line"/>
    </contour>
  </outline>
</glyph>
<glyph name="logicalnot" format="2">
  <advance width="1300"/>
  <unicode hex="00AC"/>
  <outline>
    <contour>
      <point x="1271" y="827" type="line" name="sv01"/>
      <point x="1209" y="586" type="line"/>
      <point x="1151" y="258" type="line" name="sv02"/>
      <point x="809" y="258" type="line" name="av02"/>
      <point x="845" y="459" type="line"/>
      <point x="882" y="600" type="line" name="sv04"/>
      <point x="32" y="600" type="line" name="sv03"/>
      <point x="72" y="827" type="line" name="av01"/>
    </contour>
  </outline>
</glyph>
<glyph name="macron" format="2">
  <advance width="1300"/>
  <unicode hex="00AF"/>
  <outline>
    <contour>
      <point x="319" y="1500" type="line" name="at01"/>
      <point x="1019" y="1500" type="line" name="sv01"/>
      <point x="980" y="1282" type="line" name="sv02"/>
      <point x="280" y="1282" type="line"/>
    </contour>
  </outline>
</glyph>
<glyph name="degree" format="2">
  <advance width="1300"/>
  <unicode hex="00B0"/>
  <outline>
    <contour>
      <point x="547" y="1517" type="qcurve" name="at01"/>
      <point x="608" y="1517"/>
      <point x="709" y="1475"/>
      <point x="776" y="1401"/>
      <point x="806" y="1303"/>
      <point x="796" y="1247" type="qcurve"/>
      <point x="786" y="1191"/>
      <point x="722" y="1093"/>
      <point x="629" y="1020"/>
      <point x="513" y="977"/>
      <point x="452" y="977" type="qcurve" name="av01"/>
      <point x="390" y="977"/>
      <point x="290" y="1020"/>
      <point x="223" y="1093"/>
      <point x="194" y="1191"/>
      <point x="204" y="1247" type="qcurve"/>
      <point x="214" y="1303"/>
      <point x="277" y="1401"/>
      <point x="370" y="1475"/>
      <point x="485" y="1517"/>
    </contour>
    <contour>
      <point x="482" y="1145" type="qcurve" name="av02"/>
      <point x="505" y="1145"/>
      <point x="549" y="1161"/>
      <point x="584" y="1189"/>
      <point x="608" y="1226"/>
      <point x="612" y="1247" type="qcurve"/>
      <point x="615" y="1268"/>
      <point x="604" y="1305"/>
      <point x="578" y="1333"/>
      <point x="540" y="1349"/>
      <point x="517" y="1349" type="qcurve" name="av03"/>
      <point x="494" y="1349"/>
      <point x="450" y="1333"/>
      <point x="415" y="1305"/>
      <point x="391" y="1268"/>
      <point x="388" y="1247" type="qcurve"/>
      <point x="384" y="1226"/>
      <point x="395" y="1189"/>
      <point x="421" y="1161"/>
      <point x="459" y="1145"/>
    </contour>
  </outline>
</glyph>
<glyph name="plusminus" format="2">
  <advance width="1300"/>
  <unicode hex="00B1"/>
  <outline>
    <contour>
      <point x="239" y="862" type="line" name="av02"/>
      <point x="599" y="862" type="line"/>
      <point x="672" y="1196" type="line" name="av01"/>
      <point x="892" y="1196" type="line" name="sv01"/>
      <point x="819" y="862" type="line"/>
      <point x="1179" y="862" type="line" name="sv02"/>
      <point x="1143" y="702" type="line" name="sv03"/>
      <point x="783" y="702" type="line"/>
      <point x="713" y="382" type="line" name="sv04"/>
      <point x="493" y="382" type="line" name="av04"/>
      <point x="563" y="702" type="line"/>
      <point x="203" y="702" type="line"/>
    </contour>
    <contour>
      <point x="159" y="290" type="line" name="av03"/>
      <point x="1059" y="290" type="line" name="sv05"/>
      <point x="1020" y="88" type="line" name="sv06"/>
      <point x="120" y="88" type="line"/>
    </contour>
  </outline>
</glyph>
<glyph name="acute" format="2">
  <advance width="1300"/>
  <unicode hex="00B4"/>
  <outline>
    <contour>
      <point x="592" y="1500" type="line" name="at01"/>
      <point x="933" y="1520" type="line"/>
      <point x="591" y="1200" type="line"/>
      <point x="376" y="1200" type="line" name="av01"/>
    </contour>
  </outline>
</glyph>
<glyph name="mu" format="2">
  <advance width="1300"/>
  <unicode hex="00B5"/>
  <outline>
    <contour>
      <point x="1282" y="51" type="line"/>
      <point x="1265" y="37"/>
      <point x="1226" y="13"/>
      <point x="1173" y="-6"/>
      <point x="1104" y="-17"/>
      <point x="1056" y="-17" type="qcurve" name="ab03"/>
      <point x="1022" y="-17"/>
      <point x="960" y="7"/>
      <point x="911" y="57"/>
      <point x="876" y="135"/>
      <point x="870" y="190" type="qcurve"/>
      <point x="802" y="72" type="line"/>
      <point x="782" y="56"/>
      <point x="729" y="24"/>
      <point x="664" y="-1"/>
      <point x="589" y="-17"/>
      <point x="546" y="-17" type="qcurve" name="ab02"/>
      <point x="526" y="-17"/>
      <point x="470" y="-7"/>
      <point x="414" y="10"/>
      <point x="367" y="30"/>
      <point x="357" y="40" type="qcurve"/>
      <point x="386" y="-166" type="line"/>
      <point x="327" y="-500" type="line" name="sv01"/>
      <point x="17" y="-500" type="line" name="ab01"/>
      <point x="299" y="1100" type="line" name="at01"/>
      <point x="613" y="1120" type="line" name="at02"/>
      <point x="479" y="362" type="line" name="av01"/>
      <point x="472" y="324"/>
      <point x="487" y="263"/>
      <point x="520" y="221"/>
      <point x="567" y="199"/>
      <point x="594" y="199" type="qcurve"/>
      <point x="637" y="199"/>
      <point x="717" y="240"/>
      <point x="752" y="268" type="qcurve"/>
      <point x="899" y="1100" type="line" name="sv02"/>
      <point x="1213" y="1120" type="line" name="at03"/>
      <point x="1080" y="365" type="line" name="sv03"/>
      <point x="1063" y="273"/>
      <point x="1088" y="199"/>
      <point x="1123" y="199" type="qcurve"/>
      <point x="1150" y="199"/>
      <point x="1187" y="210"/>
      <point x="1214" y="223" type="qcurve"/>
    </contour>
  </outline>
</glyph>
<glyph name="paragraph" format="2">
  <advance width="1300"/>
  <unicode hex="00B6"/>
  <outline>
    <contour>
      <point x="934" y="1298" type="line" name="hr00"/>
      <point x="800" y="1298" type="line"/>
      <point x="501" y="-400" type="line"/>
      <point x="232" y="-400" type="line"/>
      <point x="409" y="604" type="line" name="av01"/>
      <point x="334" y="614"/>
      <point x="195" y="672"/>
      <point x="97" y="777"/>
      <point x="53" y="937"/>
      <point x="73" y="1050" type="qcurve" name="ah01"/>
      <point x="88" y="1137"/>
      <point x="156" y="1272"/>
      <point x="250" y="1372"/>
      <point x="363" y="1440"/>
      <point x="485" y="1482"/>
      <point x="609" y="1500"/>
      <point x="667" y="1500" type="qcurve" name="at01"/>
      <point x="1237" y="1500" type="line" name="ah02"/>
      <point x="902" y="-400" type="line"/>
      <point x="635" y="-400" type="line"/>
    </contour>
  </outline>
</glyph>
<glyph name="periodcentered" format="2">
  <advance width="1300"/>
  <unicode hex="00B7"/>
  <outline>
    <contour>
      <point x="103" y="683" type="qcurve" name="hr00"/>
      <point x="110" y="724"/>
      <point x="154" y="796"/>
      <point x="217" y="850"/>
      <point x="294" y="881"/>
      <point x="335" y="881" type="qcurve" name="av01"/>
      <point x="376" y="881"/>
      <point x="442" y="850"/>
      <point x="487" y="796"/>
      <point x="505" y="724"/>
      <point x="498" y="683" type="qcurve"/>
      <point x="490" y="642"/>
      <point x="447" y="569"/>
      <point x="384" y="515"/>
      <point x="307" y="483"/>
      <point x="266" y="483" type="qcurve" name="av02"/>
      <point x="225" y="483"/>
      <point x="158" y="515"/>
      <point x="114" y="569"/>
      <point x="95" y="642"/>
    </contour>
  </outline>
</glyph>
<glyph name="cedilla" format="2">
  <advance width="1300"/>
  <unicode hex="00B8"/>
  <outline>
    <contour>
      <point x="719" y="0" type="line" name="sv01"/>
      <point x="743" y="-20"/>
      <point x="761" y="-46" type="qcurve"/>
      <point x="776" y="-69"/>
      <point x="795" y="-132"/>
      <point x="788" y="-171" type="qcurve"/>
      <point x="779" y="-221"/>
      <point x="717" y="-307"/>
      <point x="627" y="-370"/>
      <point x="516" y="-407"/>
      <point x="459" y="-407" type="qcurve" name="av01"/>
      <point x="399" y="-407"/>
      <point x="290" y="-371"/>
      <point x="246" y="-349" type="qcurve"/>
      <point x="195" y="-323"/>
      <point x="150" y="-290" type="qcurve"/>
      <point x="293" y="-131" type="line"/>
      <point x="322" y="-151"/>
      <point x="351" y="-166" type="qcurve"/>
      <point x="375" y="-179"/>
      <point x="430" y="-200"/>
      <point x="452" y="-200" type="qcurve"/>
      <point x="475" y="-200"/>
      <point x="520" y="-175"/>
      <point x="525" y="-147" type="qcurve"/>
      <point x="529" y="-126"/>
      <point x="513" y="-79"/>
      <point x="489" y="-37"/>
      <point x="463" y="-6" name="ab01"/>
      <point x="457" y="0" type="qcurve"/>
    </contour>
  </outline>
</glyph>
<glyph name="onesuperior" format="2">
  <advance width="1300"/>
  <unicode hex="00B9"/>
  <outline>
    <contour>
      <point x="422" y="1160" type="line" name="hr00"/>
      <point x="491" y="1341" type="line"/>
      <point x="353" y="1206" type="line"/>
      <point x="305" y="1169" type="line"/>
      <point x="243" y="1261" type="line"/>
      <point x="522" y="1480" type="line"/>
      <point x="642" y="1470" type="line"/>
      <point x="527" y="820" type="line"/>
      <point x="649" y="820" type="line"/>
      <point x="631" y="720" type="line"/>
      <point x="222" y="720" type="line"/>
      <point x="240" y="820" type="line"/>
      <point x="362" y="820" type="line"/>
    </contour>
  </outline>
</glyph>
<glyph name="guillemotright" format="2">
  <advance width="1300"/>
  <unicode hex="00BB"/>
  <outline>
    <contour>
      <point x="789" y="619" type="line"/>
      <point x="764" y="476" type="line"/>
      <point x="122" y="-13" type="line" name="ab01"/>
      <point x="70" y="224" type="line"/>
      <point x="455" y="517" type="line"/>
      <point x="535" y="550" type="line" name="iv01"/>
      <point x="466" y="582" type="line"/>
      <point x="187" y="880" type="line"/>
      <point x="316" y="1106" type="line" name="at01"/>
    </contour>
    <contour>
      <point x="1289" y="619" type="line"/>
      <point x="1264" y="476" type="line"/>
      <point x="622" y="-13" type="line" name="ab02"/>
      <point x="570" y="224" type="line"/>
      <point x="955" y="517" type="line"/>
      <point x="1035" y="550" type="line" name="iv02"/>
      <point x="966" y="582" type="line"/>
      <point x="687" y="880" type="line"/>
      <point x="816" y="1106" type="line" name="at02"/>
    </contour>
  </outline>
</glyph>
<glyph name="onequarter" format="2">
  <advance width="1300"/>
  <unicode hex="00BC"/>
  <outline>
    <contour>
      <point x="261" y="0" type="line" name="hr00"/>
      <point x="76" y="0" type="line"/>
      <point x="1116" y="1500" type="line"/>
      <point x="1292" y="1500" type="line"/>
    </contour>
    <contour>
      <point x="300" y="1160" type="line" name="hr01"/>
      <point x="369" y="1341" type="line"/>
      <point x="231" y="1206" type="line"/>
      <point x="183" y="1169" type="line"/>
      <point x="121" y="1261" type="line"/>
      <point x="400" y="1480" type="line"/>
      <point x="520" y="1470" type="line"/>
      <point x="405" y="820" type="line"/>
      <point x="527" y="820" type="line"/>
      <point x="509" y="720" type="line"/>
      <point x="100" y="720" type="line"/>
      <point x="118" y="820" type="line"/>
      <point x="240" y="820" type="line"/>
    </contour>
    <contour>
      <point x="1191" y="150" type="line" name="hr02"/>
      <point x="1102" y="150" type="line"/>
      <point x="1076" y="0" type="line"/>
      <point x="915" y="0" type="line"/>
      <point x="942" y="150" type="line"/>
      <point x="662" y="150" type="line"/>
      <point x="680" y="250" type="line"/>
      <point x="1016" y="760" type="line"/>
      <point x="1155" y="750" type="line"/>
      <point x="924" y="381" type="line"/>
      <point x="814" y="250" type="line"/>
      <point x="960" y="250" type="line"/>
      <point x="984" y="390" type="line"/>
      <point x="1147" y="400" type="line"/>
      <point x="1120" y="250" type="line"/>
      <point x="1220" y="250" type="line"/>
    </contour>
  </outline>
</glyph>
<glyph name="onehalf" format="2">
  <advance width="1300"/>
  <unicode hex="00BD"/>
  <outline>
    <contour>
      <point x="251" y="0" type="line" name="hr00"/>
      <point x="66" y="0" type="line"/>
      <point x="1106" y="1500" type="line"/>
      <point x="1282" y="1500" type="line"/>
    </contour>
    <contour>
      <point x="676" y="0" type="line"/>
      <point x="692" y="95" type="line"/>
      <point x="722" y="132"/>
      <point x="798" y="213"/>
      <point x="877" y="292"/>
      <point x="951" y="362"/>
      <point x="979" y="387" type="qcurve"/>
      <point x="1012" y="416"/>
      <point x="1056" y="456"/>
      <point x="1086" y="490"/>
      <point x="1102" y="525"/>
      <point x="1106" y="548" type="qcurve"/>
      <point x="1110" y="567"/>
      <point x="1104" y="603"/>
      <point x="1086" y="632"/>
      <point x="1056" y="650"/>
      <point x="1036" y="650" type="qcurve"/>
      <point x="995" y="650"/>
      <point x="923" y="595"/>
      <point x="891" y="548" type="qcurve"/>
      <point x="782" y="591" type="line"/>
      <point x="803" y="630"/>
      <point x="860" y="691"/>
      <point x="930" y="735"/>
      <point x="1014" y="758"/>
      <point x="1062" y="758" type="qcurve"/>
      <point x="1119" y="758"/>
      <point x="1202" y="721"/>
      <point x="1252" y="660"/>
      <point x="1271" y="582"/>
      <point x="1264" y="543" type="qcurve"/>
      <point x="1258" y="508"/>
      <point x="1225" y="449"/>
      <point x="1179" y="394"/>
      <point x="1122" y="340"/>
      <point x="1092" y="310" type="qcurve"/>
      <point x="1062" y="280"/>
      <point x="997" y="218"/>
      <point x="939" y="162"/>
      <point x="891" y="115"/>
      <point x="877" y="100" type="qcurve"/>
      <point x="1198" y="100" type="line"/>
      <point x="1181" y="0" type="line"/>
    </contour>
    <contour>
      <point x="300" y="1160" type="line" name="hr01"/>
      <point x="369" y="1341" type="line"/>
      <point x="231" y="1206" type="line"/>
      <point x="183" y="1169" type="line"/>
      <point x="121" y="1261" type="line"/>
      <point x="400" y="1480" type="line"/>
      <point x="520" y="1470" type="line"/>
      <point x="405" y="820" type="line"/>
      <point x="527" y="820" type="line"/>
      <point x="509" y="720" type="line"/>
      <point x="100" y="720" type="line"/>
      <point x="118" y="820" type="line"/>
      <point x="240" y="820" type="line"/>
    </contour>
  </outline>
</glyph>
<glyph name="Agrave" format="2">
  <advance width="1300"/>
  <unicode hex="00C0"/>
  <outline>
    <contour>
      <point x="35" y="0" type="line" name="ab01"/>
      <point x="616" y="1284" type="line"/>
      <point x="680" y="1500" type="line"/>
      <point x="1072" y="1520" type="line" name="at01"/>
      <point x="1234" y="0" type="line" name="sv01"/>
      <point x="900" y="0" type="line"/>
      <point x="872" y="427" type="line" name="sv02"/>
      <point x="530" y="427" type="line" name="av01"/>
      <point x="353" y="0" type="line"/>
    </contour>
    <contour>
      <point x="862" y="1331" type="line" name="mv01"/>
      <point x="763" y="990" type="line" name="mh01"/>
      <point x="627" y="646" type="line"/>
      <point x="851" y="646" type="line"/>
      <point x="840" y="990" type="line" name="mh02"/>
    </contour>
    <contour>
      <point x="1001" y="1600" type="line" name="ah01"/>
      <point x="786" y="1600" type="line" name="sh01"/>
      <point x="558" y="1920" type="line"/>
      <point x="891" y="1900" type="line" name="at02"/>
    </contour>
  </outline>
</glyph>
<glyph name="Atilde" format="2">
  <advance width="1300"/>
  <unicode hex="00C3"/>
  <outline>
    <contour>
      <point x="35" y="0" type="line" name="ab01"/>
      <point x="616" y="1284" type="line"/>
      <point x="680" y="1500" type="line"/>
      <point x="1072" y="1520" type="line" name="at01"/>
      <point x="1234" y="0" type="line" name="sv01"/>
      <point x="900" y="0" type="line"/>
      <point x="872" y="427" type="line" name="sv02"/>
      <point x="530" y="427" type="line" name="av01"/>
      <point x="353" y="0" type="line"/>
    </contour>
    <contour>
      <point x="862" y="1331" type="line" name="mv01"/>
      <point x="763" y="990" type="line" name="mh01"/>
      <point x="627" y="646" type="line"/>
      <point x="851" y="646" type="line"/>
      <point x="840" y="990" type="line" name="mh02"/>
    </contour>
    <contour>
      <point x="507" y="1627" type="line"/>
      <point x="518" y="1667"/>
      <point x="566" y="1758"/>
      <point x="640" y="1834"/>
      <point x="740" y="1884"/>
      <point x="803" y="1884" type="qcurve"/>
      <point x="852" y="1884"/>
      <point x="915" y="1859"/>
      <point x="963" y="1829"/>
      <point x="1008" y="1804"/>
      <point x="1039" y="1804" type="qcurve"/>
      <point x="1060" y="1804"/>
      <point x="1091" y="1818"/>
      <point x="1113" y="1842"/>
      <point x="1129" y="1874"/>
      <point x="1135" y="1892" type="qcurve"/>
      <point x="1301" y="1882" type="line"/>
      <point x="1290" y="1838"/>
      <point x="1246" y="1745"/>
      <point x="1176" y="1669"/>
      <point x="1077" y="1620"/>
      <point x="1010" y="1620" type="qcurve"/>
      <point x="964" y="1620"/>
      <point x="906" y="1645"/>
      <point x="858" y="1675"/>
      <point x="810" y="1700"/>
      <point x="775" y="1700" type="qcurve" name="mv02"/>
      <point x="757" y="1700"/>
      <point x="731" y="1686"/>
      <point x="710" y="1664"/>
      <point x="694" y="1635"/>
      <point x="688" y="1620" type="qcurve"/>
    </contour>
  </outline>
</glyph>
<glyph name="Adieresis" format="2">
  <advance width="1300"/>
  <unicode hex="00C4"/>
  <outline>
    <contour>
      <point x="35" y="0" type="line" name="ab01"/>
      <point x="616" y="1284" type="line"/>
      <point x="680" y="1500" type="line"/>
      <point x="1072" y="1520" type="line" name="at01"/>
      <point x="1234" y="0" type="line" name="sv01"/>
      <point x="900" y="0" type="line"/>
      <point x="872" y="427" type="line" name="sv02"/>
      <point x="530" y="427" type="line" name="av01"/>
      <point x="353" y="0" type="line"/>
    </contour>
    <contour>
      <point x="862" y="1331" type="line" name="mv01"/>
      <point x="763" y="990" type="line" name="mh01"/>
      <point x="627" y="646" type="line"/>
      <point x="851" y="646" type="line"/>
      <point x="840" y="990" type="line" name="mh02"/>
    </contour>
    <contour>
      <point x="625" y="1866" type="line" name="av02"/>
      <point x="901" y="1866" type="line" name="mh03"/>
      <point x="854" y="1600" type="line" name="sv03"/>
      <point x="578" y="1600" type="line"/>
    </contour>
    <contour>
      <point x="1025" y="1866" type="line" name="av03"/>
      <point x="1301" y="1866" type="line" name="mh04"/>
      <point x="1254" y="1600" type="line" name="sv04"/>
      <point x="978" y="1600" type="line" name="mh05"/>
    </contour>
  </outline>
</glyph>
<glyph name="Aring" format="2">
  <advance width="1300"/>
  <unicode hex="00C5"/>
  <outline>
    <contour>
      <point x="35" y="0" type="line" name="ab01"/>
      <point x="616" y="1284" type="line"/>
      <point x="680" y="1500" type="line"/>
      <point x="1072" y="1520" type="line" name="at01"/>
      <point x="1234" y="0" type="line" name="sv01"/>
      <point x="900" y="0" type="line"/>
      <point x="872" y="427" type="line" name="sv02"/>
      <point x="530" y="427" type="line" name="av01"/>
      <point x="353" y="0" type="line"/>
    </contour>
    <contour>
      <point x="862" y="1331" type="line" name="mv01"/>
      <point x="763" y="990" type="line" name="mh01"/>
      <point x="627" y="646" type="line"/>
      <point x="851" y="646" type="line"/>
      <point x="840" y="990" type="line" name="mh02"/>
    </contour>
    <contour>
      <point x="974" y="1927" type="qcurve" name="av02"/>
      <point x="1033" y="1927"/>
      <point x="1129" y="1882"/>
      <point x="1192" y="1805"/>
      <point x="1218" y="1701"/>
      <point x="1208" y="1642" type="qcurve" name="sv03"/>
      <point x="1197" y="1583"/>
      <point x="1135" y="1478"/>
      <point x="1045" y="1399"/>
      <point x="934" y="1353"/>
      <point x="875" y="1353" type="qcurve" name="at02"/>
      <point x="816" y="1353"/>
      <point x="719" y="1399"/>
      <point x="655" y="1478"/>
      <point x="627" y="1583"/>
      <point x="638" y="1642" type="qcurve" name="av03"/>
      <point x="648" y="1701"/>
      <point x="712" y="1805"/>
      <point x="803" y="1882"/>
      <point x="915" y="1927"/>
    </contour>
    <contour>
      <point x="907" y="1542" type="qcurve"/>
      <point x="927" y="1542"/>
      <point x="965" y="1558"/>
      <point x="996" y="1585"/>
      <point x="1017" y="1621"/>
      <point x="1021" y="1641" type="qcurve" name="sv04"/>
      <point x="1024" y="1661"/>
      <point x="1015" y="1696"/>
      <point x="994" y="1723"/>
      <point x="961" y="1738"/>
      <point x="941" y="1738" type="qcurve"/>
      <point x="921" y="1738"/>
      <point x="883" y="1723"/>
      <point x="852" y="1696"/>
      <point x="830" y="1661"/>
      <point x="827" y="1641" type="qcurve" name="av04"/>
      <point x="823" y="1621"/>
      <point x="832" y="1585"/>
      <point x="854" y="1558"/>
      <point x="887" y="1542"/>
    </contour>
  </outline>
</glyph>
<glyph name="AE" format="2">
  <advance width="1300"/>
  <unicode hex="00C6"/>
  <outline>
    <contour>
      <point x="1177" y="228" type="line"/>
      <point x="1110" y="0" type="line" name="sv01"/>
      <point x="480" y="0" type="line"/>
      <point x="539" y="231" type="line"/>
      <point x="574" y="427" type="line"/>
      <point x="403" y="427" type="line"/>
      <point x="181" y="0" type="line"/>
      <point x="-82" y="0" type="line" name="ab01"/>
      <point x="569" y="1284" type="line"/>
      <point x="653" y="1500" type="line" name="at01"/>
      <point x="1365" y="1500" type="line" name="sv02"/>
      <point x="1325" y="1272" type="line"/>
      <point x="993" y="1272" type="line"/>
      <point x="991" y="1237"/>
      <point x="987" y="1167"/>
      <point x="984" y="1133" type="qcurve"/>
      <point x="946" y="916" type="line" name="av02"/>
      <point x="1195" y="916" type="line" name="sv03"/>
      <point x="1157" y="703" type="line"/>
      <point x="908" y="703" type="line"/>
      <point x="848" y="360" type="line"/>
      <point x="817" y="228" type="line"/>
    </contour>
    <contour>
      <point x="710" y="1250" type="line"/>
      <point x="590" y="851" type="line"/>
      <point x="481" y="599" type="line" name="av01"/>
      <point x="604" y="599" type="line" name="sv04"/>
    </contour>
  </outline>
</glyph>
<glyph name="Ccedilla" format="2">
  <advance width="1300"/>
  <unicode hex="00C7"/>
  <outline>
    <contour>
      <point x="1048" y="133" type="line" name="hr00"/>
      <point x="933" y="52"/>
      <point x="695" y="-17"/>
      <point x="565" y="-17" type="qcurve" name="ab01"/>
      <point x="462" y="-17"/>
      <point x="293" y="40"/>
      <point x="164" y="143"/>
      <point x="74" y="287"/>
      <point x="27" y="461"/>
      <point x="21" y="662"/>
      <point x="40" y="769" type="qcurve"/>
      <point x="58" y="870"/>
      <point x="114" y="1059"/>
      <point x="200" y="1225"/>
      <point x="321" y="1363"/>
      <point x="487" y="1462"/>
      <point x="703" y="1517"/>
      <point x="840" y="1517" type="qcurve" name="at01"/>
      <point x="904" y="1517"/>
      <point x="1025" y="1494"/>
      <point x="1133" y="1450"/>
      <point x="1225" y="1386"/>
      <point x="1261" y="1344" type="qcurve"/>
      <point x="1081" y="1160" type="line"/>
      <point x="1052" y="1182"/>
      <point x="986" y="1222"/>
      <point x="917" y="1252"/>
      <point x="846" y="1270"/>
      <point x="812" y="1270" type="qcurve"/>
      <point x="717" y="1270"/>
      <point x="575" y="1192"/>
      <point x="474" y="1057"/>
      <point x="408" y="875"/>
      <point x="390" y="772" type="qcurve"/>
      <point x="379" y="711"/>
      <point x="374" y="584"/>
      <point x="388" y="464"/>
      <point x="424" y="358"/>
      <point x="485" y="279"/>
      <point x="574" y="233"/>
      <point x="633" y="233" type="qcurve"/>
      <point x="667" y="233"/>
      <point x="735" y="244"/>
      <point x="813" y="269"/>
      <point x="906" y="310"/>
      <point x="965" y="340" type="qcurve"/>
    </contour>
    <contour>
      <point x="713" y="0" type="line" name="sv01"/>
      <point x="737" y="-20"/>
      <point x="755" y="-46" type="qcurve"/>
      <point x="770" y="-69"/>
      <point x="789" y="-132"/>
      <point x="782" y="-171" type="qcurve"/>
      <point x="773" y="-221"/>
      <point x="711" y="-307"/>
      <point x="621" y="-370"/>
      <point x="510" y="-407"/>
      <point x="453" y="-407" type="qcurve" name="av01"/>
      <point x="393" y="-407"/>
      <point x="284" y="-371"/>
      <point x="240" y="-349" type="qcurve"/>
      <point x="189" y="-323"/>
      <point x="144" y="-290" type="qcurve"/>
      <point x="287" y="-131" type="line"/>
      <point x="316" y="-151"/>
      <point x="345" y="-166" type="qcurve"/>
      <point x="369" y="-179"/>
      <point x="424" y="-200"/>
      <point x="446" y="-200" type="qcurve"/>
      <point x="469" y="-200"/>
      <point x="514" y="-175"/>
      <point x="519" y="-147" type="qcurve"/>
      <point x="523" y="-126"/>
      <point x="507" y="-79"/>
      <point x="483" y="-37"/>
      <point x="457" y="-6" name="ab02"/>
      <point x="451" y="0" type="qcurve"/>
    </contour>
  </outline>
</glyph>
<glyph name="Eacute" format="2">
  <advance width="1300"/>
  <unicode hex="00C9"/>
  <outline>
    <contour>
      <point x="1066" y="228" type="line" name="hr00"/>
      <point x="999" y="0" type="line" name="sv01"/>
      <point x="39" y="0" type="line" name="ab01"/>
      <point x="97" y="231" type="line"/>
      <point x="279" y="1263" type="line"/>
      <point x="279" y="1500" type="line" name="at01"/>
      <point x="1254" y="1500" type="line" name="sv02"/>
      <point x="1214" y="1272" type="line"/>
      <point x="617" y="1272" type="line"/>
      <point x="607" y="1134" type="line"/>
      <point x="569" y="916" type="line" name="av01"/>
      <point x="1085" y="916" type="line" name="sv03"/>
      <point x="1047" y="703" type="line"/>
      <point x="531" y="703" type="line"/>
      <point x="471" y="360" type="line"/>
      <point x="439" y="228" type="line" name="mv01"/>
    </contour>
    <contour>
      <point x="777" y="1900" type="line" name="at02"/>
      <point x="1118" y="1920" type="line"/>
      <point x="776" y="1600" type="line"/>
      <point x="561" y="1600" type="line" name="av02"/>
    </contour>
  </outline>
</glyph>
<glyph name="Edieresis" format="2">
  <advance width="1300"/>
  <unicode hex="00CB"/>
  <outline>
    <contour>
      <point x="1066" y="228" type="line" name="hr00"/>
      <point x="999" y="0" type="line" name="sv01"/>
      <point x="39" y="0" type="line" name="ab01"/>
      <point x="97" y="231" type="line"/>
      <point x="279" y="1263" type="line"/>
      <point x="279" y="1500" type="line" name="at01"/>
      <point x="1254" y="1500" type="line" name="sv02"/>
      <point x="1214" y="1272" type="line"/>
      <point x="617" y="1272" type="line"/>
      <point x="607" y="1134" type="line"/>
      <point x="569" y="916" type="line" name="av01"/>
      <point x="1085" y="916" type="line" name="sv03"/>
      <point x="1047" y="703" type="line"/>
      <point x="531" y="703" type="line"/>
      <point x="471" y="360" type="line"/>
      <point x="439" y="228" type="line" name="mv01"/>
    </contour>
    <contour>
      <point x="486" y="1866" type="line" name="av02"/>
      <point x="762" y="1866" type="line" name="mh01"/>
      <point x="715" y="1600" type="line" name="sv04"/>
      <point x="439" y="1600" type="line"/>
    </contour>
    <contour>
      <point x="886" y="1866" type="line" name="av03"/>
      <point x="1162" y="1866" type="line" name="mh02"/>
      <point x="1115" y="1600" type="line" name="sv05"/>
      <point x="839" y="1600" type="line" name="mh03"/>
    </contour>
  </outline>
</glyph>
<glyph name="Igrave" format="2">
  <advance width="1300"/>
  <unicode hex="00CC"/>
  <outline>
    <contour>
      <point x="353" y="1500" type="line" name="at01"/>
      <point x="1231" y="1500" type="line" name="sv01"/>
      <point x="1191" y="1272" type="line"/>
      <point x="918" y="1272" type="line"/>
      <point x="733" y="228" type="line"/>
      <point x="1034" y="228" type="line"/>
      <point x="959" y="0" type="line" name="sv02"/>
      <point x="81" y="0" type="line" name="ab01"/>
      <point x="121" y="228" type="line"/>
      <point x="399" y="228" type="line"/>
      <point x="584" y="1272" type="line"/>
      <point x="278" y="1272" type="line"/>
    </contour>
    <contour>
      <point x="996" y="1600" type="line" name="ah01"/>
      <point x="781" y="1600" type="line" name="sh01"/>
      <point x="553" y="1920" type="line"/>
      <point x="886" y="1900" type="line" name="at02"/>
    </contour>
  </outline>
</glyph>
<glyph name="Iacute" format="2">
  <advance width="1300"/>
  <unicode hex="00CD"/>
  <outline>
    <contour>
      <point x="353" y="1500" type="line" name="at01"/>
      <point x="1231" y="1500" type="line" name="sv01"/>
      <point x="1191" y="1272" type="line"/>
      <point x="918" y="1272" type="line"/>
      <point x="733" y="228" type="line"/>
      <point x="1034" y="228" type="line"/>
      <point x="959" y="0" type="line" name="sv02"/>
      <point x="81" y="0" type="line" name="ab01"/>
      <point x="121" y="228" type="line"/>
      <point x="399" y="228" type="line"/>
      <point x="584" y="1272" type="line"/>
      <point x="278" y="1272" type="line"/>
    </contour>
    <contour>
      <point x="957" y="1900" type="line" name="at02"/>
      <point x="1298" y="1920" type="line"/>
      <point x="956" y="1600" type="line"/>
      <point x="741" y="1600" type="line" name="av01"/>
    </contour>
  </outline>
</glyph>
<glyph name="Icircumflex" format="2">
  <advance width="1300"/>
  <unicode hex="00CE"/>
  <outline>
    <contour>
      <point x="353" y="1500" type="line" name="at01"/>
      <point x="1231" y="1500" type="line" name="sv01"/>
      <point x="1191" y="1272" type="line"/>
      <point x="918" y="1272" type="line"/>
      <point x="733" y="228" type="line"/>
      <point x="1034" y="228" type="line"/>
      <point x="959" y="0" type="line" name="sv02"/>
      <point x="81" y="0" type="line" name="ab01"/>
      <point x="121" y="228" type="line"/>
      <point x="399" y="228" type="line"/>
      <point x="584" y="1272" type="line"/>
      <point x="278" y="1272" type="line"/>
    </contour>
    <contour>
      <point x="1178" y="1624" type="line" name="sv03"/>
      <point x="958" y="1624" type="line"/>
      <point x="906" y="1727" type="line"/>
      <point x="899" y="1854" type="line"/>
      <point x="846" y="1727" type="line"/>
      <point x="747" y="1624" type="line"/>
      <point x="508" y="1624" type="line" name="av01"/>
      <point x="752" y="1904" type="line"/>
      <point x="1046" y="1924" type="line"/>
    </contour>
  </outline>
</glyph>
<glyph name="Idieresis" format="2">
  <advance width="1300"/>
  <unicode hex="00CF"/>
  <outline>
    <contour>
      <point x="353" y="1500" type="line" name="at01"/>
      <point x="1231" y="1500" type="line" name="sv01"/>
      <point x="1191" y="1272" type="line"/>
      <point x="918" y="1272" type="line"/>
      <point x="733" y="228" type="line"/>
      <point x="1034" y="228" type="line"/>
      <point x="959" y="0" type="line" name="sv02"/>
      <point x="81" y="0" type="line" name="ab01"/>
      <point x="121" y="228" type="line"/>
      <point x="399" y="228" type="line"/>
      <point x="584" y="1272" type="line"/>
      <point x="278" y="1272" type="line"/>
    </contour>
    <contour>
      <point x="514" y="1966" type="line" name="av01"/>
      <point x="790" y="1966" type="line" name="mh01"/>
      <point x="743" y="1700" type="line" name="sv03"/>
      <point x="467" y="1700" type="line"/>
    </contour>
    <contour>
      <point x="914" y="1966" type="line" name="av02"/>
      <point x="1190" y="1966" type="line" name="mh02"/>
      <point x="1143" y="1700" type="line" name="sv04"/>
      <point x="867" y="1700" type="line" name="mh03"/>
    </contour>
  </outline>
</glyph>
<glyph name="Eth" format="2">
  <advance width="1300"/>
  <unicode hex="00D0"/>
  <outline>
    <contour>
      <point x="2" y="888" type="line" name="hr00"/>
      <point x="162" y="888" type="line"/>
      <point x="228" y="1263" type="line"/>
      <point x="228" y="1500" type="line"/>
      <point x="361" y="1513"/>
      <point x="544" y="1517"/>
      <point x="633" y="1517" type="curve" smooth="yes"/>
      <point x="1080" y="1517"/>
      <point x="1376" y="1309"/>
      <point x="1287" y="807" type="curve" smooth="yes"/>
      <point x="1185" y="226"/>
      <point x="777" y="0"/>
      <point x="358" y="0" type="curve"/>
      <point x="6" y="0" type="line"/>
      <point x="123" y="665" type="line"/>
      <point x="-36" y="665" type="line"/>
    </contour>
    <contour>
      <point x="585" y="1289" type="curve" smooth="yes"/>
      <point x="578" y="1289"/>
      <point x="571" y="1289"/>
      <point x="563" y="1288" type="curve"/>
      <point x="555" y="1127" type="line"/>
      <point x="513" y="888" type="line"/>
      <point x="693" y="888" type="line"/>
      <point x="654" y="665" type="line"/>
      <point x="474" y="665" type="line"/>
      <point x="397" y="230" type="line"/>
      <point x="823" y="256"/>
      <point x="897" y="583"/>
      <point x="931" y="778" type="curve" smooth="yes"/>
      <point x="984" y="1078"/>
      <point x="944" y="1289"/>
    </contour>
  </outline>
</glyph>
<glyph name="Ntilde" format="2">
  <advance width="1300"/>
  <unicode hex="00D1"/>
  <outline>
    <contour>
      <point x="739" y="0" type="line" name="hr00"/>
      <point x="443" y="950" type="line"/>
      <point x="433" y="950" type="line"/>
      <point x="442" y="649" type="line"/>
      <point x="327" y="0" type="line"/>
      <point x="5" y="0" type="line" name="ab01"/>
      <point x="227" y="1263" type="line"/>
      <point x="227" y="1500" type="line" name="at01"/>
      <point x="566" y="1520" type="line" name="at02"/>
      <point x="861" y="600" type="line"/>
      <point x="871" y="600" type="line"/>
      <point x="857" y="852" type="line"/>
      <point x="971" y="1500" type="line" name="sv01"/>
      <point x="1297" y="1520" type="line" name="at03"/>
      <point x="1028" y="0" type="line" name="sv02"/>
    </contour>
    <contour>
      <point x="441" y="1627" type="line"/>
      <point x="452" y="1667"/>
      <point x="500" y="1758"/>
      <point x="574" y="1834"/>
      <point x="674" y="1884"/>
      <point x="737" y="1884" type="qcurve"/>
      <point x="786" y="1884"/>
      <point x="849" y="1859"/>
      <point x="897" y="1829"/>
      <point x="942" y="1804"/>
      <point x="973" y="1804" type="qcurve"/>
      <point x="994" y="1804"/>
      <point x="1025" y="1818"/>
      <point x="1047" y="1842"/>
      <point x="1063" y="1874"/>
      <point x="1069" y="1892" type="qcurve"/>
      <point x="1235" y="1882" type="line"/>
      <point x="1224" y="1838"/>
      <point x="1180" y="1745"/>
      <point x="1110" y="1669"/>
      <point x="1011" y="1620"/>
      <point x="944" y="1620" type="qcurve"/>
      <point x="898" y="1620"/>
      <point x="840" y="1645"/>
      <point x="792" y="1675"/>
      <point x="744" y="1700"/>
      <point x="709" y="1700" type="qcurve" name="mv01"/>
      <point x="691" y="1700"/>
      <point x="665" y="1686"/>
      <point x="644" y="1664"/>
      <point x="628" y="1635"/>
      <point x="622" y="1620" type="qcurve"/>
    </contour>
  </outline>
</glyph>
<glyph name="Ocircumflex" format="2">
  <advance width="1300"/>
  <unicode hex="00D4"/>
  <outline>
    <contour>
      <point x="487" y="-17" type="qcurve" name="ab01"/>
      <point x="389" y="-17"/>
      <point x="234" y="38"/>
      <point x="119" y="139"/>
      <point x="43" y="279"/>
      <point x="5" y="450"/>
      <point x="5" y="645"/>
      <point x="24" y="750" type="qcurve"/>
      <point x="42" y="855"/>
      <point x="110" y="1050"/>
      <point x="206" y="1221"/>
      <point x="330" y="1361"/>
      <point x="480" y="1462"/>
      <point x="657" y="1517"/>
      <point x="758" y="1517" type="qcurve" name="at01"/>
      <point x="905" y="1517"/>
      <point x="1107" y="1395"/>
      <point x="1221" y="1187"/>
      <point x="1249" y="907"/>
      <point x="1221" y="750" type="qcurve"/>
      <point x="1202" y="645"/>
      <point x="1135" y="450"/>
      <point x="1039" y="279"/>
      <point x="915" y="139"/>
      <point x="764" y="38"/>
      <point x="587" y="-17"/>
    </contour>
    <contour>
      <point x="865" y="721" type="qcurve"/>
      <point x="876" y="783"/>
      <point x="892" y="913"/>
      <point x="895" y="1036"/>
      <point x="879" y="1145"/>
      <point x="837" y="1226"/>
      <point x="765" y="1274"/>
      <point x="709" y="1274" type="qcurve"/>
      <point x="657" y="1274"/>
      <point x="573" y="1231"/>
      <point x="506" y="1158"/>
      <point x="455" y="1061"/>
      <point x="416" y="952"/>
      <point x="388" y="837"/>
      <point x="379" y="783" type="qcurve"/>
      <point x="368" y="720"/>
      <point x="352" y="589"/>
      <point x="350" y="465"/>
      <point x="366" y="356"/>
      <point x="408" y="274"/>
      <point x="480" y="226"/>
      <point x="535" y="226" type="qcurve"/>
      <point x="612" y="226"/>
      <point x="724" y="320"/>
      <point x="802" y="466"/>
      <point x="851" y="640"/>
    </contour>
    <contour>
      <point x="1125" y="1620" type="line" name="sv01"/>
      <point x="905" y="1620" type="line"/>
      <point x="853" y="1723" type="line"/>
      <point x="846" y="1850" type="line"/>
      <point x="793" y="1723" type="line"/>
      <point x="694" y="1620" type="line"/>
      <point x="455" y="1620" type="line" name="av01"/>
      <point x="699" y="1900" type="line"/>
      <point x="993" y="1920" type="line"/>
    </contour>
  </outline>
</glyph>
<glyph name="Otilde" format="2">
  <advance width="1300"/>
  <unicode hex="00D5"/>
  <outline>
    <contour>
      <point x="514" y="-17" type="qcurve" name="ab01"/>
      <point x="416" y="-17"/>
      <point x="261" y="38"/>
      <point x="146" y="139"/>
      <point x="70" y="279"/>
      <point x="32" y="450"/>
      <point x="32" y="645"/>
      <point x="51" y="750" type="qcurve"/>
      <point x="69" y="855"/>
      <point x="137" y="1050"/>
      <point x="233" y="1221"/>
      <point x="357" y="1361"/>
      <point x="507" y="1462"/>
      <point x="684" y="1517"/>
      <point x="785" y="1517" type="qcurve" name="at01"/>
      <point x="932" y="1517"/>
      <point x="1134" y="1395"/>
      <point x="1248" y="1187"/>
      <point x="1276" y="907"/>
      <point x="1248" y="750" type="qcurve"/>
      <point x="1229" y="645"/>
      <point x="1162" y="450"/>
      <point x="1066" y="279"/>
      <point x="942" y="139"/>
      <point x="791" y="38"/>
      <point x="614" y="-17"/>
    </contour>
    <contour>
      <point x="892" y="721" type="qcurve"/>
      <point x="903" y="783"/>
      <point x="919" y="913"/>
      <point x="922" y="1036"/>
      <point x="906" y="1145"/>
      <point x="864" y="1226"/>
      <point x="792" y="1274"/>
      <point x="736" y="1274" type="qcurve"/>
      <point x="684" y="1274"/>
      <point x="600" y="1231"/>
      <point x="533" y="1158"/>
      <point x="482" y="1061"/>
      <point x="443" y="952"/>
      <point x="415" y="837"/>
      <point x="406" y="783" type="qcurve"/>
      <point x="395" y="720"/>
      <point x="379" y="589"/>
      <point x="377" y="465"/>
      <point x="393" y="356"/>
      <point x="435" y="274"/>
      <point x="507" y="226"/>
      <point x="562" y="226" type="qcurve"/>
      <point x="639" y="226"/>
      <point x="751" y="320"/>
      <point x="829" y="466"/>
      <point x="878" y="640"/>
    </contour>
    <contour>
      <point x="455" y="1627" type="line"/>
      <point x="466" y="1667"/>
      <point x="514" y="1758"/>
      <point x="588" y="1834"/>
      <point x="688" y="1884"/>
      <point x="751" y="1884" type="qcurve"/>
      <point x="800" y="1884"/>
      <point x="863" y="1859"/>
      <point x="911" y="1829"/>
      <point x="956" y="1804"/>
      <point x="987" y="1804" type="qcurve"/>
      <point x="1008" y="1804"/>
      <point x="1039" y="1818"/>
      <point x="1061" y="1842"/>
      <point x="1077" y="1874"/>
      <point x="1083" y="1892" type="qcurve"/>
      <point x="1249" y="1882" type="line"/>
      <point x="1238" y="1838"/>
      <point x="1194" y="1745"/>
      <point x="1124" y="1669"/>
      <point x="1025" y="1620"/>
      <point x="958" y="1620" type="qcurve"/>
      <point x="912" y="1620"/>
      <point x="854" y="1645"/>
      <point x="806" y="1675"/>
      <point x="758" y="1700"/>
      <point x="723" y="1700" type="qcurve" name="mv01"/>
      <point x="705" y="1700"/>
      <point x="679" y="1686"/>
      <point x="658" y="1664"/>
      <point x="642" y="1635"/>
      <point x="636" y="1620" type="qcurve"/>
    </contour>
  </outline>
</glyph>
<glyph name="Odieresis" format="2">
  <advance width="1300"/>
  <unicode hex="00D6"/>
  <outline>
    <contour>
      <point x="518" y="-17" type="qcurve" name="ab01"/>
      <point x="420" y="-17"/>
      <point x="265" y="38"/>
      <point x="150" y="139"/>
      <point x="74" y="279"/>
      <point x="36" y="450"/>
      <point x="36" y="645"/>
      <point x="55" y="750" type="qcurve"/>
      <point x="73" y="855"/>
      <point x="141" y="1050"/>
      <point x="237" y="1221"/>
      <point x="361" y="1361"/>
      <point x="511" y="1462"/>
      <point x="688" y="1517"/>
      <point x="789" y="1517" type="qcurve" name="at01"/>
      <point x="936" y="1517"/>
      <point x="1138" y="1395"/>
      <point x="1252" y="1187"/>
      <point x="1280" y="907"/>
      <point x="1252" y="750" type="qcurve"/>
      <point x="1233" y="645"/>
      <point x="1166" y="450"/>
      <point x="1070" y="279"/>
      <point x="946" y="139"/>
      <point x="795" y="38"/>
      <point x="618" y="-17"/>
    </contour>
    <contour>
      <point x="896" y="721" type="qcurve"/>
      <point x="907" y="783"/>
      <point x="923" y="913"/>
      <point x="926" y="1036"/>
      <point x="910" y="1145"/>
      <point x="868" y="1226"/>
      <point x="796" y="1274"/>
      <point x="740" y="1274" type="qcurve"/>
      <point x="688" y="1274"/>
      <point x="604" y="1231"/>
      <point x="537" y="1158"/>
      <point x="486" y="1061"/>
      <point x="447" y="952"/>
      <point x="419" y="837"/>
      <point x="410" y="783" type="qcurve"/>
      <point x="399" y="720"/>
      <point x="383" y="589"/>
      <point x="381" y="465"/>
      <point x="397" y="356"/>
      <point x="439" y="274"/>
      <point x="511" y="226"/>
      <point x="566" y="226" type="qcurve"/>
      <point x="643" y="226"/>
      <point x="755" y="320"/>
      <point x="833" y="466"/>
      <point x="882" y="640"/>
    </contour>
    <contour>
      <point x="538" y="1866" type="line" name="av01"/>
      <point x="814" y="1866" type="line" name="mh01"/>
      <point x="767" y="1600" type="line" name="sv01"/>
      <point x="491" y="1600" type="line"/>
    </contour>
    <contour>
      <point x="938" y="1866" type="line" name="av02"/>
      <point x="1214" y="1866" type="line" name="mh02"/>
      <point x="1167" y="1600" type="line" name="sv02"/>
      <point x="891" y="1600" type="line" name="mh03"/>
    </contour>
  </outline>
</glyph>
<glyph name="multiply" format="2">
  <advance width="1300"/>
  <unicode hex="00D7"/>
  <outline>
    <contour>
      <point x="212" y="119" type="line" name="ih05"/>
      <point x="51" y="269" type="line"/>
      <point x="481" y="633" type="line" name="iv01"/>
      <point x="180" y="998" type="line"/>
      <point x="393" y="1149" type="line" name="ih02"/>
      <point x="641" y="847" type="line"/>
      <point x="690" y="729" type="line" name="ih01"/>
      <point x="733" y="847" type="line"/>
      <point x="1086" y="1149" type="line" name="ih03"/>
      <point x="1247" y="998" type="line"/>
      <point x="817" y="633" type="line" name="iv02"/>
      <point x="1118" y="269" type="line"/>
      <point x="905" y="119" type="line" name="ih06"/>
      <point x="658" y="419" type="line"/>
      <point x="609" y="538" type="line" name="ih04"/>
      <point x="566" y="419" type="line"/>
    </contour>
  </outline>
</glyph>
<glyph name="Ugrave" format="2">
  <advance width="1300"/>
  <unicode hex="00D9"/>
  <outline>
    <contour>
      <point x="1261" y="1500" type="line" name="sv01"/>
      <point x="1091" y="534" type="line"/>
      <point x="1067" y="395"/>
      <point x="956" y="188"/>
      <point x="792" y="51"/>
      <point x="579" y="-17"/>
      <point x="453" y="-17" type="qcurve" name="ab01"/>
      <point x="317" y="-17"/>
      <point x="144" y="69"/>
      <point x="55" y="227"/>
      <point x="42" y="448"/>
      <point x="66" y="582" type="qcurve"/>
      <point x="186" y="1263" type="line"/>
      <point x="186" y="1500" type="line" name="at01"/>
      <point x="563" y="1520" type="line" name="at02"/>
      <point x="394" y="564" type="line"/>
      <point x="380" y="483"/>
      <point x="370" y="355"/>
      <point x="393" y="267"/>
      <point x="457" y="221"/>
      <point x="516" y="221" type="qcurve"/>
      <point x="607" y="221"/>
      <point x="730" y="368"/>
      <point x="756" y="516" type="qcurve"/>
      <point x="929" y="1500" type="line"/>
    </contour>
    <contour>
      <point x="901" y="1600" type="line" name="ah01"/>
      <point x="686" y="1600" type="line" name="sh01"/>
      <point x="458" y="1920" type="line"/>
      <point x="791" y="1900" type="line" name="at03"/>
    </contour>
  </outline>
</glyph>
<glyph name="Ucircumflex" format="2">
  <advance width="1300"/>
  <unicode hex="00DB"/>
  <outline>
    <contour>
      <point x="1261" y="1500" type="line" name="sv01"/>
      <point x="1091" y="534" type="line"/>
      <point x="1067" y="395"/>
      <point x="956" y="188"/>
      <point x="792" y="51"/>
      <point x="579" y="-17"/>
      <point x="453" y="-17" type="qcurve" name="ab01"/>
      <point x="317" y="-17"/>
      <point x="144" y="69"/>
      <point x="55" y="227"/>
      <point x="42" y="448"/>
      <point x="66" y="582" type="qcurve"/>
      <point x="186" y="1263" type="line"/>
      <point x="186" y="1500" type="line" name="at01"/>
      <point x="563" y="1520" type="line" name="at02"/>
      <point x="394" y="564" type="line"/>
      <point x="380" y="483"/>
      <point x="370" y="355"/>
      <point x="393" y="267"/>
      <point x="457" y="221"/>
      <point x="516" y="221" type="qcurve"/>
      <point x="607" y="221"/>
      <point x="730" y="368"/>
      <point x="756" y="516" type="qcurve"/>
      <point x="929" y="1500" type="line"/>
    </contour>
    <contour>
      <point x="1135" y="1620" type="line" name="sv02"/>
      <point x="915" y="1620" type="line"/>
      <point x="863" y="1723" type="line"/>
      <point x="856" y="1850" type="line"/>
      <point x="803" y="1723" type="line"/>
      <point x="704" y="1620" type="line"/>
      <point x="465" y="1620" type="line" name="av01"/>
      <point x="709" y="1900" type="line"/>
      <point x="1003" y="1920" type="line"/>
    </contour>
  </outline>
</glyph>
<glyph name="Udieresis" format="2">
  <advance width="1300"/>
  <unicode hex="00DC"/>
  <outline>
    <contour>
      <point x="1261" y="1500" type="line" name="sv01"/>
      <point x="1091" y="534" type="line"/>
      <point x="1067" y="395"/>
      <point x="956" y="188"/>
      <point x="792" y="51"/>
      <point x="579" y="-17"/>
      <point x="453" y="-17" type="qcurve" name="ab01"/>
      <point x="317" y="-17"/>
      <point x="144" y="69"/>
      <point x="55" y="227"/>
      <point x="42" y="448"/>
      <point x="66" y="582" type="qcurve"/>
      <point x="186" y="1263" type="line"/>
      <point x="186" y="1500" type="line" name="at01"/>
      <point x="563" y="1520" type="line" name="at02"/>
      <point x="394" y="564" type="line"/>
      <point x="380" y="483"/>
      <point x="370" y="355"/>
      <point x="393" y="267"/>
      <point x="457" y="221"/>
      <point x="516" y="221" type="qcurve"/>
      <point x="607" y="221"/>
      <point x="730" y="368"/>
      <point x="756" y="516" type="qcurve"/>
      <point x="929" y="1500" type="line"/>
    </contour>
    <contour>
      <point x="486" y="1866" type="line" name="av01"/>
      <point x="762" y="1866" type="line" name="mh01"/>
      <point x="715" y="1600" type="line" name="sv02"/>
      <point x="439" y="1600" type="line"/>
    </contour>
    <contour>
      <point x="886" y="1866" type="line" name="av02"/>
      <point x="1162" y="1866" type="line" name="mh02"/>
      <point x="1115" y="1600" type="line" name="sv03"/>
      <point x="839" y="1600" type="line" name="mh03"/>
    </contour>
  </outline>
</glyph>
<glyph name="Yacute" format="2">
  <advance width="1300"/>
  <unicode hex="00DD"/>
  <outline>
    <contour>
      <point x="487" y="1143" type="line" name="hr00"/>
      <point x="529" y="773" type="line"/>
      <point x="652" y="1143" type="line"/>
      <point x="897" y="1500" type="line"/>
      <point x="1232" y="1500" type="line" name="sv01"/>
      <point x="649" y="650" type="line"/>
      <point x="534" y="0" type="line" name="sv02"/>
      <point x="183" y="0" type="line" name="ab01"/>
      <point x="298" y="650" type="line"/>
      <point x="19" y="1500" type="line" name="at01"/>
      <point x="362" y="1520" type="line" name="at02"/>
    </contour>
    <contour>
      <point x="616" y="1900" type="line" name="at03"/>
      <point x="957" y="1920" type="line"/>
      <point x="615" y="1600" type="line"/>
      <point x="400" y="1600" type="line" name="av01"/>
    </contour>
  </outline>
</glyph>
<glyph name="Thorn" format="2">
  <advance width="1300"/>
  <unicode hex="00DE"/>
  <outline>
    <contour>
      <point x="310" y="1500" type="line" name="at01"/>
      <point x="693" y="1500" type="line" name="sv01"/>
      <point x="659" y="1311" type="line" name="av02"/>
      <point x="773" y="1311" type="line" name="sv02"/>
      <point x="824" y="1311"/>
      <point x="935" y="1293"/>
      <point x="1040" y="1252"/>
      <point x="1130" y="1186"/>
      <point x="1191" y="1090"/>
      <point x="1215" y="963"/>
      <point x="1201" y="882" type="qcurve" name="sv03"/>
      <point x="1191" y="825"/>
      <point x="1152" y="702"/>
      <point x="1077" y="584"/>
      <point x="959" y="478"/>
      <point x="870" y="438" type="qcurve"/>
      <point x="842" y="426"/>
      <point x="780" y="405"/>
      <point x="708" y="390"/>
      <point x="622" y="381"/>
      <point x="571" y="381" type="qcurve" name="sv04"/>
      <point x="495" y="381" type="line" name="av01"/>
      <point x="428" y="0" type="line" name="sv05"/>
      <point x="86" y="0" type="line" name="ab01"/>
      <point x="310" y="1267" type="line"/>
    </contour>
    <contour>
      <point x="621" y="1093" type="line"/>
      <point x="535" y="605" type="line"/>
      <point x="639" y="605" type="line"/>
      <point x="688" y="605"/>
      <point x="768" y="647"/>
      <point x="828" y="722"/>
      <point x="868" y="823"/>
      <point x="879" y="882" type="qcurve" name="av03"/>
      <point x="896" y="983"/>
      <point x="803" y="1093"/>
      <point x="706" y="1093" type="qcurve"/>
    </contour>
  </outline>
</glyph>
<glyph name="adieresis" format="2">
  <advance width="1300"/>
  <unicode hex="00E4"/>
  <outline>
    <contour>
      <point x="840" y="885" type="line" name="hr00"/>
      <point x="820" y="888"/>
      <point x="786" y="892"/>
      <point x="779" y="893" type="qcurve"/>
      <point x="704" y="893"/>
      <point x="589" y="831"/>
      <point x="507" y="727"/>
      <point x="458" y="588"/>
      <point x="450" y="510" type="qcurve"/>
      <point x="444" y="449"/>
      <point x="449" y="340"/>
      <point x="471" y="257"/>
      <point x="512" y="209"/>
      <point x="541" y="209" type="qcurve"/>
      <point x="575" y="209"/>
      <point x="636" y="232"/>
      <point x="689" y="268"/>
      <point x="730" y="310"/>
      <point x="745" y="329" type="qcurve"/>
    </contour>
    <contour>
      <point x="484" y="-16" type="qcurve" name="ab01"/>
      <point x="407" y="-15"/>
      <point x="293" y="32"/>
      <point x="212" y="112"/>
      <point x="163" y="219"/>
      <point x="140" y="342"/>
      <point x="139" y="476"/>
      <point x="148" y="542" type="qcurve"/>
      <point x="157" y="614"/>
      <point x="205" y="756"/>
      <point x="284" y="884"/>
      <point x="393" y="993"/>
      <point x="534" y="1072"/>
      <point x="709" y="1117"/>
      <point x="813" y="1117" type="qcurve" name="at01"/>
      <point x="874" y="1116"/>
      <point x="936" y="1108" type="qcurve"/>
      <point x="990" y="1101"/>
      <point x="1116" y="1071"/>
      <point x="1174" y="1043" type="qcurve"/>
      <point x="1031" y="209" type="line"/>
      <point x="1017" y="0" type="line" name="sv01"/>
      <point x="695" y="0" type="line" name="ab02"/>
      <point x="723" y="162" type="line"/>
      <point x="568" y="-10" type="line"/>
      <point x="557" y="-12"/>
      <point x="521" y="-17"/>
    </contour>
    <contour>
      <point x="547" y="1566" type="line" name="av01"/>
      <point x="823" y="1566" type="line" name="mh01"/>
      <point x="776" y="1300" type="line" name="sv02"/>
      <point x="500" y="1300" type="line"/>
    </contour>
    <contour>
      <point x="947" y="1566" type="line" name="av02"/>
      <point x="1223" y="1566" type="line" name="mh02"/>
      <point x="1176" y="1300" type="line" name="sv03"/>
      <point x="900" y="1300" type="line" name="mh03"/>
    </contour>
  </outline>
</glyph>
<glyph name="ccedilla" format="2">
  <advance width="1300"/>
  <unicode hex="00E7"/>
  <outline>
    <contour>
      <point x="1006" y="772" type="line" name="hr00"/>
      <point x="969" y="833"/>
      <point x="861" y="885"/>
      <point x="784" y="885" type="qcurve"/>
      <point x="723" y="885"/>
      <point x="602" y="838"/>
      <point x="501" y="752"/>
      <point x="428" y="629"/>
      <point x="415" y="553" type="qcurve"/>
      <point x="403" y="484"/>
      <point x="436" y="367"/>
      <point x="509" y="283"/>
      <point x="612" y="236"/>
      <point x="670" y="236" type="qcurve"/>
      <point x="722" y="236"/>
      <point x="810" y="255"/>
      <point x="884" y="288"/>
      <point x="942" y="330"/>
      <point x="964" y="353" type="qcurve"/>
      <point x="1050" y="137" type="line" name="mh01"/>
      <point x="1029" y="121"/>
      <point x="949" y="69"/>
      <point x="834" y="19"/>
      <point x="684" y="-17"/>
      <point x="593" y="-17" type="qcurve" name="ab01"/>
      <point x="460" y="-17"/>
      <point x="259" y="75"/>
      <point x="132" y="232"/>
      <point x="85" y="440"/>
      <point x="105" y="555" type="qcurve"/>
      <point x="117" y="624"/>
      <point x="166" y="762"/>
      <point x="244" y="887"/>
      <point x="354" y="994"/>
      <point x="499" y="1072"/>
      <point x="683" y="1117"/>
      <point x="796" y="1117" type="qcurve" name="at01"/>
      <point x="930" y="1117"/>
      <point x="1137" y="1042"/>
      <point x="1200" y="957" type="qcurve"/>
    </contour>
    <contour>
      <point x="695" y="0" type="line" name="sv01"/>
      <point x="719" y="-20"/>
      <point x="737" y="-46" type="qcurve"/>
      <point x="752" y="-69"/>
      <point x="771" y="-132"/>
      <point x="764" y="-171" type="qcurve"/>
      <point x="755" y="-221"/>
      <point x="693" y="-307"/>
      <point x="603" y="-370"/>
      <point x="492" y="-407"/>
      <point x="435" y="-407" type="qcurve" name="av01"/>
      <point x="375" y="-407"/>
      <point x="266" y="-371"/>
      <point x="222" y="-349" type="qcurve"/>
      <point x="171" y="-323"/>
      <point x="126" y="-290" type="qcurve" name="mh02"/>
      <point x="269" y="-131" type="line"/>
      <point x="298" y="-151"/>
      <point x="327" y="-166" type="qcurve"/>
      <point x="351" y="-179"/>
      <point x="406" y="-200"/>
      <point x="428" y="-200" type="qcurve"/>
      <point x="451" y="-200"/>
      <point x="496" y="-175"/>
      <point x="501" y="-147" type="qcurve"/>
      <point x="505" y="-126"/>
      <point x="489" y="-79"/>
      <point x="465" y="-37"/>
      <point x="439" y="-6" name="ab02"/>
      <point x="433" y="0" type="qcurve"/>
    </contour>
  </outline>
</glyph>
<glyph name="edieresis" format="2">
  <advance width="1300"/>
  <unicode hex="00EB"/>
  <outline>
    <contour>
      <point x="1078" y="158" type="line" name="hr00"/>
      <point x="1032" y="121"/>
      <point x="928" y="58"/>
      <point x="808" y="11"/>
      <point x="668" y="-16"/>
      <point x="586" y="-16" type="qcurve" name="ab01"/>
      <point x="442" y="-16"/>
      <point x="239" y="78"/>
      <point x="119" y="235"/>
      <point x="80" y="439"/>
      <point x="100" y="550" type="qcurve"/>
      <point x="112" y="621"/>
      <point x="164" y="760"/>
      <point x="243" y="886"/>
      <point x="351" y="993"/>
      <point x="488" y="1072"/>
      <point x="654" y="1117"/>
      <point x="752" y="1117" type="qcurve" name="at01"/>
      <point x="872" y="1117"/>
      <point x="1048" y="1046"/>
      <point x="1155" y="918"/>
      <point x="1192" y="740"/>
      <point x="1173" y="632" type="qcurve"/>
      <point x="1168" y="605"/>
      <point x="1146" y="517"/>
      <point x="1132" y="466" type="qcurve" name="sv01"/>
      <point x="395" y="466" type="line" name="av01"/>
      <point x="387" y="412"/>
      <point x="400" y="318"/>
      <point x="456" y="249"/>
      <point x="560" y="210"/>
      <point x="644" y="210" type="qcurve"/>
      <point x="696" y="210"/>
      <point x="777" y="233"/>
      <point x="839" y="264"/>
      <point x="885" y="298"/>
      <point x="901" y="310" type="qcurve"/>
    </contour>
    <contour>
      <point x="886" y="672" type="line"/>
      <point x="894" y="718"/>
      <point x="882" y="800"/>
      <point x="840" y="863"/>
      <point x="769" y="900"/>
      <point x="718" y="900" type="qcurve"/>
      <point x="667" y="900"/>
      <point x="592" y="870"/>
      <point x="537" y="825"/>
      <point x="501" y="775"/>
      <point x="490" y="756" type="qcurve"/>
      <point x="381" y="653" type="line"/>
      <point x="557" y="671" type="line"/>
    </contour>
    <contour>
      <point x="535" y="1566" type="line" name="av02"/>
      <point x="811" y="1566" type="line" name="mh01"/>
      <point x="764" y="1300" type="line" name="sv02"/>
      <point x="488" y="1300" type="line"/>
    </contour>
    <contour>
      <point x="935" y="1566" type="line" name="av03"/>
      <point x="1211" y="1566" type="line" name="mh02"/>
      <point x="1164" y="1300" type="line" name="sv03"/>
      <point x="888" y="1300" type="line" name="mh03"/>
    </contour>
  </outline>
</glyph>
<glyph name="iacute" format="2">
  <advance width="1300"/>
  <unicode hex="00ED"/>
  <outline>
    <contour>
      <point x="515" y="834" type="line" name="hr00"/>
      <point x="606" y="896" type="line"/>
      <point x="510" y="876" type="line"/>
      <point x="247" y="876" type="line"/>
      <point x="247" y="1100" type="line"/>
      <point x="889" y="1100" type="line"/>
      <point x="770" y="423" type="line" smooth="yes"/>
      <point x="750" y="314"/>
      <point x="794" y="236"/>
      <point x="873" y="236" type="curve" smooth="yes"/>
      <point x="961" y="236"/>
      <point x="1026" y="263"/>
      <point x="1107" y="330" type="curve"/>
      <point x="1125" y="98" type="line"/>
      <point x="1084" y="70"/>
      <point x="999" y="-17"/>
      <point x="809" y="-17" type="curve" smooth="yes"/>
      <point x="503" y="-17"/>
      <point x="401" y="189"/>
      <point x="444" y="432" type="curve"/>
    </contour>
    <contour>
      <point x="762" y="1500" type="line" name="hr01"/>
      <point x="1103" y="1520" type="line"/>
      <point x="761" y="1200" type="line"/>
      <point x="546" y="1200" type="line"/>
    </contour>
  </outline>
</glyph>
<glyph name="ograve" format="2">
  <advance width="1300"/>
  <unicode hex="00F2"/>
  <outline>
    <contour>
      <point x="556" y="-17" type="qcurve" name="ab01"/>
      <point x="436" y="-17"/>
      <point x="251" y="70"/>
      <point x="134" y="223"/>
      <point x="90" y="431"/>
      <point x="111" y="553" type="qcurve"/>
      <point x="132" y="674"/>
      <point x="247" y="881"/>
      <point x="417" y="1032"/>
      <point x="634" y="1117"/>
      <point x="757" y="1117" type="qcurve" name="at01"/>
      <point x="877" y="1117"/>
      <point x="1060" y="1032"/>
      <point x="1174" y="881"/>
      <point x="1215" y="674"/>
      <point x="1194" y="553" type="qcurve"/>
      <point x="1173" y="431"/>
      <point x="1061" y="223"/>
      <point x="894" y="70"/>
      <point x="680" y="-17"/>
    </contour>
    <contour>
      <point x="863" y="528" type="qcurve"/>
      <point x="875" y="596"/>
      <point x="875" y="728"/>
      <point x="842" y="833"/>
      <point x="771" y="897"/>
      <point x="713" y="897" type="qcurve"/>
      <point x="657" y="897"/>
      <point x="567" y="842"/>
      <point x="498" y="750"/>
      <point x="452" y="633"/>
      <point x="441" y="571" type="qcurve"/>
      <point x="429" y="502"/>
      <point x="431" y="370"/>
      <point x="467" y="267"/>
      <point x="540" y="203"/>
      <point x="599" y="203" type="qcurve"/>
      <point x="653" y="203"/>
      <point x="741" y="258"/>
      <point x="808" y="350"/>
      <point x="852" y="466"/>
    </contour>
    <contour>
      <point x="901" y="1200" type="line" name="ah01"/>
      <point x="686" y="1200" type="line" name="sh01"/>
      <point x="458" y="1520" type="line"/>
      <point x="791" y="1500" type="line" name="at02"/>
    </contour>
  </outline>
</glyph>
<glyph name="otilde" format="2">
  <advance width="1300"/>
  <unicode hex="00F5"/>
  <outline>
    <contour>
      <point x="556" y="-17" type="qcurve" name="ab01"/>
      <point x="436" y="-17"/>
      <point x="251" y="70"/>
      <point x="134" y="223"/>
      <point x="90" y="431"/>
      <point x="111" y="553" type="qcurve"/>
      <point x="132" y="674"/>
      <point x="247" y="881"/>
      <point x="417" y="1032"/>
      <point x="634" y="1117"/>
      <point x="757" y="1117" type="qcurve" name="at01"/>
      <point x="877" y="1117"/>
      <point x="1060" y="1032"/>
      <point x="1174" y="881"/>
      <point x="1215" y="674"/>
      <point x="1194" y="553" type="qcurve"/>
      <point x="1173" y="431"/>
      <point x="1061" y="223"/>
      <point x="894" y="70"/>
      <point x="680" y="-17"/>
    </contour>
    <contour>
      <point x="863" y="528" type="qcurve"/>
      <point x="875" y="596"/>
      <point x="875" y="728"/>
      <point x="842" y="833"/>
      <point x="771" y="897"/>
      <point x="713" y="897" type="qcurve"/>
      <point x="657" y="897"/>
      <point x="567" y="842"/>
      <point x="498" y="750"/>
      <point x="452" y="633"/>
      <point x="441" y="571" type="qcurve"/>
      <point x="429" y="502"/>
      <point x="431" y="370"/>
      <point x="467" y="267"/>
      <point x="540" y="203"/>
      <point x="599" y="203" type="qcurve"/>
      <point x="653" y="203"/>
      <point x="741" y="258"/>
      <point x="808" y="350"/>
      <point x="852" y="466"/>
    </contour>
    <contour>
      <point x="435" y="1247" type="line"/>
      <point x="446" y="1287"/>
      <point x="494" y="1378"/>
      <point x="568" y="1454"/>
      <point x="668" y="1504"/>
      <point x="731" y="1504" type="qcurve"/>
      <point x="780" y="1504"/>
      <point x="843" y="1479"/>
      <point x="891" y="1449"/>
      <point x="936" y="1424"/>
      <point x="967" y="1424" type="qcurve"/>
      <point x="988" y="1424"/>
      <point x="1019" y="1438"/>
      <point x="1041" y="1462"/>
      <point x="1057" y="1494"/>
      <point x="1063" y="1512" type="qcurve"/>
      <point x="1229" y="1502" type="line"/>
      <point x="1218" y="1458"/>
      <point x="1174" y="1365"/>
      <point x="1104" y="1289"/>
      <point x="1005" y="1240"/>
      <point x="938" y="1240" type="qcurve"/>
      <point x="892" y="1240"/>
      <point x="834" y="1265"/>
      <point x="786" y="1295"/>
      <point x="738" y="1320"/>
      <point x="703" y="1320" type="qcurve" name="mv01"/>
      <point x="685" y="1320"/>
      <point x="659" y="1306"/>
      <point x="638" y="1284"/>
      <point x="622" y="1255"/>
      <point x="616" y="1240" type="qcurve"/>
    </contour>
  </outline>
</glyph>
<glyph name="odieresis" format="2">
  <advance width="1300"/>
  <unicode hex="00F6"/>
  <outline>
    <contour>
      <point x="556" y="-17" type="qcurve" name="ab01"/>
      <point x="436" y="-17"/>
      <point x="251" y="70"/>
      <point x="134" y="223"/>
      <point x="90" y="431"/>
      <point x="111" y="553" type="qcurve"/>
      <point x="132" y="674"/>
      <point x="247" y="881"/>
      <point x="417" y="1032"/>
      <point x="634" y="1117"/>
      <point x="757" y="1117" type="qcurve" name="at01"/>
      <point x="877" y="1117"/>
      <point x="1060" y="1032"/>
      <point x="1174" y="881"/>
      <point x="1215" y="674"/>
      <point x="1194" y="553" type="qcurve"/>
      <point x="1173" y="431"/>
      <point x="1061" y="223"/>
      <point x="894" y="70"/>
      <point x="680" y="-17"/>
    </contour>
    <contour>
      <point x="863" y="528" type="qcurve"/>
      <point x="875" y="596"/>
      <point x="875" y="728"/>
      <point x="842" y="833"/>
      <point x="771" y="897"/>
      <point x="713" y="897" type="qcurve"/>
      <point x="657" y="897"/>
      <point x="567" y="842"/>
      <point x="498" y="750"/>
      <point x="452" y="633"/>
      <point x="441" y="571" type="qcurve"/>
      <point x="429" y="502"/>
      <point x="431" y="370"/>
      <point x="467" y="267"/>
      <point x="540" y="203"/>
      <point x="599" y="203" type="qcurve"/>
      <point x="653" y="203"/>
      <point x="741" y="258"/>
      <point x="808" y="350"/>
      <point x="852" y="466"/>
    </contour>
    <contour>
      <point x="505" y="1566" type="line" name="av01"/>
      <point x="781" y="1566" type="line" name="mh01"/>
      <point x="734" y="1300" type="line" name="sv01"/>
      <point x="458" y="1300" type="line"/>
    </contour>
    <contour>
      <point x="905" y="1566" type="line" name="av02"/>
      <point x="1181" y="1566" type="line" name="mh02"/>
      <point x="1134" y="1300" type="line" name="sv02"/>
      <point x="858" y="1300" type="line" name="mh03"/>
    </contour>
  </outline>
</glyph>
<glyph name="divide" format="2">
  <advance width="1300"/>
  <unicode hex="00F7"/>
  <outline>
    <contour>
      <point x="451" y="287" type="qcurve" name="hr00"/>
      <point x="456" y="316"/>
      <point x="487" y="367"/>
      <point x="533" y="406"/>
      <point x="587" y="428"/>
      <point x="616" y="428" type="qcurve"/>
      <point x="645" y="428"/>
      <point x="691" y="406"/>
      <point x="723" y="367"/>
      <point x="736" y="316"/>
      <point x="731" y="287" type="qcurve"/>
      <point x="726" y="259"/>
      <point x="695" y="207"/>
      <point x="651" y="168"/>
      <point x="596" y="144"/>
      <point x="567" y="144" type="qcurve"/>
      <point x="539" y="144"/>
      <point x="491" y="168"/>
      <point x="459" y="207"/>
      <point x="446" y="259"/>
    </contour>
    <contour>
      <point x="566" y="940" type="qcurve"/>
      <point x="571" y="969"/>
      <point x="602" y="1020"/>
      <point x="648" y="1059"/>
      <point x="702" y="1081"/>
      <point x="731" y="1081" type="qcurve"/>
      <point x="760" y="1081"/>
      <point x="806" y="1059"/>
      <point x="838" y="1020"/>
      <point x="851" y="969"/>
      <point x="846" y="940" type="qcurve"/>
      <point x="841" y="912"/>
      <point x="810" y="860"/>
      <point x="766" y="821"/>
      <point x="711" y="797"/>
      <point x="682" y="797" type="qcurve"/>
      <point x="654" y="797"/>
      <point x="606" y="821"/>
      <point x="574" y="860"/>
      <point x="561" y="912"/>
    </contour>
    <contour>
      <point x="219" y="724" type="line"/>
      <point x="1119" y="724" type="line"/>
      <point x="1080" y="500" type="line"/>
      <point x="180" y="500" type="line"/>
    </contour>
  </outline>
</glyph>
<glyph name="oslash" format="2">
  <advance width="1300"/>
  <unicode hex="00F8"/>
  <outline>
    <contour>
      <point x="269" y="-100" type="line" name="hr00"/>
      <point x="10" y="-100" type="line"/>
      <point x="1040" y="1209" type="line"/>
      <point x="1290" y="1209" type="line"/>
    </contour>
    <contour>
      <point x="551" y="-17" type="qcurve"/>
      <point x="431" y="-17"/>
      <point x="246" y="70"/>
      <point x="129" y="223"/>
      <point x="85" y="431"/>
      <point x="106" y="553" type="qcurve"/>
      <point x="127" y="674"/>
      <point x="242" y="881"/>
      <point x="412" y="1032"/>
      <point x="629" y="1117"/>
      <point x="752" y="1117" type="qcurve"/>
      <point x="872" y="1117"/>
      <point x="1055" y="1032"/>
      <point x="1169" y="881"/>
      <point x="1210" y="674"/>
      <point x="1189" y="553" type="qcurve"/>
      <point x="1168" y="431"/>
      <point x="1056" y="223"/>
      <point x="889" y="70"/>
      <point x="675" y="-17"/>
    </contour>
    <contour>
      <point x="858" y="528" type="qcurve"/>
      <point x="870" y="596"/>
      <point x="870" y="728"/>
      <point x="837" y="833"/>
      <point x="766" y="897"/>
      <point x="708" y="897" type="qcurve"/>
      <point x="652" y="897"/>
      <point x="562" y="842"/>
      <point x="493" y="750"/>
      <point x="447" y="633"/>
      <point x="436" y="571" type="qcurve"/>
      <point x="424" y="502"/>
      <point x="426" y="370"/>
      <point x="462" y="267"/>
      <point x="535" y="203"/>
      <point x="594" y="203" type="qcurve"/>
      <point x="648" y="203"/>
      <point x="736" y="258"/>
      <point x="803" y="350"/>
      <point x="847" y="466"/>
    </contour>
  </outline>
</glyph>
<glyph name="uacute" format="2">
  <advance width="1300"/>
  <unicode hex="00FA"/>
  <outline>
    <contour>
      <point x="891" y="1100" type="line" name="sv01"/>
      <point x="1212" y="1120" type="line" name="at03"/>
      <point x="1014" y="0" type="line" name="sv02"/>
      <point x="697" y="0" type="line" name="ab01"/>
      <point x="715" y="100" type="line"/>
      <point x="616" y="0" type="line"/>
      <point x="587" y="-8"/>
      <point x="526" y="-17"/>
      <point x="492" y="-17" type="qcurve" name="ab02"/>
      <point x="358" y="-17"/>
      <point x="191" y="59"/>
      <point x="105" y="186"/>
      <point x="88" y="350"/>
      <point x="103" y="438" type="qcurve"/>
      <point x="220" y="1100" type="line" name="at01"/>
      <point x="540" y="1120" type="line" name="at02"/>
      <point x="419" y="438" type="line"/>
      <point x="410" y="386"/>
      <point x="413" y="303"/>
      <point x="444" y="244"/>
      <point x="508" y="213"/>
      <point x="559" y="213" type="qcurve"/>
      <point x="592" y="213"/>
      <point x="652" y="233"/>
      <point x="701" y="265"/>
      <point x="740" y="301"/>
      <point x="753" y="318" type="qcurve"/>
    </contour>
    <contour>
      <point x="816" y="1500" type="line" name="at04"/>
      <point x="1157" y="1520" type="line"/>
      <point x="815" y="1200" type="line"/>
      <point x="600" y="1200" type="line" name="av01"/>
    </contour>
  </outline>
</glyph>
<glyph name="udieresis" format="2">
  <advance width="1300"/>
  <unicode hex="00FC"/>
  <outline>
    <contour>
      <point x="891" y="1100" type="line" name="sv01"/>
      <point x="1212" y="1120" type="line" name="at03"/>
      <point x="1014" y="0" type="line" name="sv02"/>
      <point x="697" y="0" type="line" name="ab01"/>
      <point x="715" y="100" type="line"/>
      <point x="616" y="0" type="line"/>
      <point x="587" y="-8"/>
      <point x="526" y="-17"/>
      <point x="492" y="-17" type="qcurve" name="ab02"/>
      <point x="358" y="-17"/>
      <point x="191" y="59"/>
      <point x="105" y="186"/>
      <point x="88" y="350"/>
      <point x="103" y="438" type="qcurve"/>
      <point x="220" y="1100" type="line" name="at01"/>
      <point x="540" y="1120" type="line" name="at02"/>
      <point x="419" y="438" type="line"/>
      <point x="410" y="386"/>
      <point x="413" y="303"/>
      <point x="444" y="244"/>
      <point x="508" y="213"/>
      <point x="559" y="213" type="qcurve"/>
      <point x="592" y="213"/>
      <point x="652" y="233"/>
      <point x="701" y="265"/>
      <point x="740" y="301"/>
      <point x="753" y="318" type="qcurve"/>
    </contour>
    <contour>
      <point x="473" y="1566" type="line" name="av01"/>
      <point x="749" y="1566" type="line" name="mh01"/>
      <point x="702" y="1300" type="line" name="sv03"/>
      <point x="426" y="1300" type="line"/>
    </contour>
    <contour>
      <point x="873" y="1566" type="line" name="av02"/>
      <point x="1149" y="1566" type="line" name="mh02"/>
      <point x="1102" y="1300" type="line" name="sv04"/>
      <point x="826" y="1300" type="line" name="mh03"/>
    </contour>
  </outline>
</glyph>
<glyph name="yacute" format="2">
  <advance width="1300"/>
  <unicode hex="00FD"/>
  <outline>
    <contour>
      <point x="601" y="670" type="line" name="hr00"/>
      <point x="605" y="200" type="line"/>
      <point x="747" y="670" type="line"/>
      <point x="986" y="1100" type="line" name="sv01"/>
      <point x="1319" y="1120" type="line" name="at03"/>
      <point x="715" y="8" type="line"/>
      <point x="670" y="-75"/>
      <point x="574" y="-248"/>
      <point x="456" y="-390"/>
      <point x="307" y="-480"/>
      <point x="210" y="-480" type="qcurve" name="av01"/>
      <point x="143" y="-480"/>
      <point x="32" y="-424"/>
      <point x="-17" y="-374" type="qcurve"/>
      <point x="138" y="-194" type="line"/>
      <point x="158" y="-209"/>
      <point x="206" y="-234"/>
      <point x="233" y="-234" type="qcurve"/>
      <point x="277" y="-234"/>
      <point x="362" y="-135"/>
      <point x="415" y="-47" type="qcurve"/>
      <point x="198" y="1100" type="line" name="at01"/>
      <point x="517" y="1120" type="line" name="at02"/>
    </contour>
    <contour>
      <point x="815" y="1500" type="line" name="at04"/>
      <point x="1156" y="1520" type="line"/>
      <point x="814" y="1200" type="line"/>
      <point x="599" y="1200" type="line" name="av02"/>
    </contour>
  </outline>
</glyph>
<glyph name="thorn" format="2">
  <advance width="1300"/>
  <unicode hex="00FE"/>
  <outline>
    <contour>
      <point x="935" y="528" type="qcurve" name="ah01"/>
      <point x="947" y="596"/>
      <point x="946" y="728"/>
      <point x="912" y="833"/>
      <point x="841" y="897"/>
      <point x="782" y="897" type="qcurve"/>
      <point x="727" y="897"/>
      <point x="637" y="842"/>
      <point x="570" y="750"/>
      <point x="525" y="633"/>
      <point x="514" y="571" type="qcurve"/>
      <point x="502" y="502"/>
      <point x="503" y="370"/>
      <point x="537" y="267"/>
      <point x="608" y="203"/>
      <point x="666" y="203" type="qcurve"/>
      <point x="721" y="203"/>
      <point x="811" y="258"/>
      <point x="879" y="350"/>
      <point x="924" y="466"/>
    </contour>
    <contour>
      <point x="697" y="1520" type="line" name="at01"/>
      <point x="641" y="1201" type="line"/>
      <point x="529" y="1030" type="line"/>
      <point x="724" y="1109" type="line"/>
      <point x="749" y="1113"/>
      <point x="798" y="1117"/>
      <point x="824" y="1117" type="qcurve" name="at02"/>
      <point x="944" y="1117"/>
      <point x="1128" y="1032"/>
      <point x="1244" y="881"/>
      <point x="1287" y="674"/>
      <point x="1266" y="553" type="qcurve" name="sh01"/>
      <point x="1245" y="431"/>
      <point x="1131" y="223"/>
      <point x="963" y="70"/>
      <point x="748" y="-17"/>
      <point x="624" y="-17" type="qcurve" name="ab01"/>
      <point x="598" y="-17"/>
      <point x="550" y="-13"/>
      <point x="527" y="-9" type="qcurve"/>
      <point x="361" y="75" type="line"/>
      <point x="412" y="-99" type="line"/>
      <point x="362" y="-380" type="line" name="sv01"/>
      <point x="21" y="-380" type="line" name="av01"/>
      <point x="353" y="1500" type="line"/>
    </contour>
  </outline>
</glyph>
<glyph name="ydieresis" format="2">
  <advance width="1300"/>
  <unicode hex="00FF"/>
  <outline>
    <contour>
      <point x="601" y="670" type="line" name="hr00"/>
      <point x="605" y="200" type="line"/>
      <point x="747" y="670" type="line"/>
      <point x="986" y="1100" type="line" name="sv01"/>
      <point x="1319" y="1120" type="line" name="at03"/>
      <point x="715" y="8" type="line"/>
      <point x="670" y="-75"/>
      <point x="574" y="-248"/>
      <point x="456" y="-390"/>
      <point x="307" y="-480"/>
      <point x="210" y="-480" type="qcurve" name="av01"/>
      <point x="143" y="-480"/>
      <point x="32" y="-424"/>
      <point x="-17" y="-374" type="qcurve"/>
      <point x="138" y="-194" type="line"/>
      <point x="158" y="-209"/>
      <point x="206" y="-234"/>
      <point x="233" y="-234" type="qcurve"/>
      <point x="277" y="-234"/>
      <point x="362" y="-135"/>
      <point x="415" y="-47" type="qcurve"/>
      <point x="198" y="1100" type="line" name="at01"/>
      <point x="517" y="1120" type="line" name="at02"/>
    </contour>
    <contour>
      <point x="546" y="1566" type="line" name="av02"/>
      <point x="822" y="1566" type="line" name="mh01"/>
      <point x="775" y="1300" type="line" name="sv02"/>
      <point x="499" y="1300" type="line"/>
    </contour>
    <contour>
      <point x="946" y="1566" type="line" name="av03"/>
      <point x="1222" y="1566" type="line" name="mh02"/>
      <point x="1175" y="1300" type="line" name="sv03"/>
      <point x="899" y="1300" type="line" name="mh03"/>
    </contour>
  </outline>
</glyph>
<glyph name="OE" format="2">
  <advance width="1300"/>
  <unicode hex="0152"/>
  <outline>
    <contour>
      <point x="527" y="0" type="line" name="ab01"/>
      <point x="488" y="60" type="line"/>
      <point x="451" y="-17" type="line" name="ab02"/>
      <point x="319" y="-17"/>
      <point x="127" y="68"/>
      <point x="17" y="252"/>
      <point x="-7" y="544"/>
      <point x="29" y="750" type="qcurve"/>
      <point x="65" y="956"/>
      <point x="191" y="1247"/>
      <point x="367" y="1432"/>
      <point x="590" y="1517"/>
      <point x="722" y="1517" type="qcurve" name="at02"/>
      <point x="731" y="1440" type="line"/>
      <point x="792" y="1500" type="line" name="at01"/>
      <point x="1345" y="1500" type="line" name="sv01"/>
      <point x="1305" y="1272" type="line"/>
      <point x="975" y="1272" type="line"/>
      <point x="965" y="1134" type="line"/>
      <point x="927" y="916" type="line" name="av01"/>
      <point x="1176" y="916" type="line" name="sv02"/>
      <point x="1138" y="703" type="line"/>
      <point x="889" y="703" type="line"/>
      <point x="829" y="360" type="line"/>
      <point x="798" y="228" type="line"/>
      <point x="1157" y="228" type="line"/>
      <point x="1090" y="0" type="line" name="sv03"/>
    </contour>
    <contour>
      <point x="701" y="1265" type="line"/>
      <point x="687" y="1271"/>
      <point x="656" y="1279"/>
      <point x="642" y="1279" type="qcurve"/>
      <point x="536" y="1279"/>
      <point x="378" y="1026"/>
      <point x="335" y="783" type="qcurve"/>
      <point x="309" y="638"/>
      <point x="302" y="426"/>
      <point x="335" y="288"/>
      <point x="409" y="221"/>
      <point x="466" y="221" type="qcurve"/>
      <point x="491" y="221"/>
      <point x="519" y="231" type="qcurve"/>
    </contour>
  </outline>
</glyph>
<glyph name="Scaron" format="2">
  <advance width="1300"/>
  <unicode hex="0160"/>
  <outline>
    <contour>
      <point x="1050" y="1178" type="line" name="hr00"/>
      <point x="1008" y="1205"/>
      <point x="940" y="1241"/>
      <point x="880" y="1264"/>
      <point x="825" y="1274"/>
      <point x="797" y="1274" type="qcurve"/>
      <point x="760" y="1274"/>
      <point x="685" y="1260"/>
      <point x="621" y="1226"/>
      <point x="574" y="1169"/>
      <point x="567" y="1125" type="qcurve"/>
      <point x="559" y="1084"/>
      <point x="590" y="1025"/>
      <point x="648" y="979"/>
      <point x="727" y="941"/>
      <point x="768" y="921" type="qcurve"/>
      <point x="861" y="876"/>
      <point x="1003" y="775"/>
      <point x="1092" y="652"/>
      <point x="1124" y="497"/>
      <point x="1106" y="398" type="qcurve"/>
      <point x="1086" y="282"/>
      <point x="962" y="124"/>
      <point x="786" y="26"/>
      <point x="572" y="-17"/>
      <point x="462" y="-17" type="qcurve" name="ab01"/>
      <point x="399" y="-17"/>
      <point x="287" y="1"/>
      <point x="185" y="36"/>
      <point x="89" y="88"/>
      <point x="41" y="121" type="qcurve"/>
      <point x="219" y="348" type="line"/>
      <point x="243" y="330"/>
      <point x="310" y="294"/>
      <point x="386" y="264"/>
      <point x="467" y="246"/>
      <point x="505" y="246" type="qcurve"/>
      <point x="549" y="246"/>
      <point x="638" y="262"/>
      <point x="713" y="303"/>
      <point x="767" y="374"/>
      <point x="777" y="430" type="qcurve"/>
      <point x="787" y="484"/>
      <point x="752" y="562"/>
      <point x="683" y="621"/>
      <point x="591" y="669"/>
      <point x="544" y="693" type="qcurve"/>
      <point x="478" y="727"/>
      <point x="358" y="813"/>
      <point x="273" y="919"/>
      <point x="232" y="1049"/>
      <point x="246" y="1127" type="qcurve"/>
      <point x="264" y="1228"/>
      <point x="374" y="1375"/>
      <point x="531" y="1471"/>
      <point x="720" y="1517"/>
      <point x="816" y="1517" type="qcurve" name="at01"/>
      <point x="933" y="1517"/>
      <point x="1136" y="1443"/>
      <point x="1234" y="1369" type="qcurve"/>
    </contour>
    <contour>
      <point x="1027" y="1596" type="line" name="hr01"/>
      <point x="736" y="1625" type="line"/>
      <point x="611" y="1900" type="line" name="ih02"/>
      <point x="841" y="1900" type="line" name="sv01"/>
      <point x="900" y="1807" type="line"/>
      <point x="914" y="1680" type="line" name="ih01"/>
      <point x="970" y="1807" type="line"/>
      <point x="1062" y="1900" type="line"/>
      <point x="1267" y="1900" type="line" name="ih03"/>
    </contour>
  </outline>
</glyph>
